<svg xmlns="http://www.w3.org/2000/svg" viewBox="0 0 20.11 20.11"><defs><style>.cls-1{fill:#fff;}.cls-2{fill:#2b1f4f;}</style></defs><g id="Layer_2" data-name="Layer 2"><g id="Layer_1-2" data-name="Layer 1"><path class="cls-1" d="M20.11,10.06A10.06,10.06,0,1,1,10.06,0a10.05,10.05,0,0,1,10,10.06"/><path class="cls-2" d="M10.94,10.24a1.14,1.14,0,0,1-.88.4,1.16,1.16,0,0,1-.89-.4L5.32,5.87h9.47ZM4.46,6.77a.55.55,0,0,1,0-.18L8.34,11a2.28,2.28,0,0,0,3.43,0l3.87-4.38a1.1,1.1,0,0,1,0,.18v6.57a.91.91,0,0,1-.9.9H5.36a.9.9,0,0,1-.9-.9Zm10.3-2H5.36a2,2,0,0,0-2,2v6.57a2,2,0,0,0,2,2h9.4a2,2,0,0,0,2-2V6.77a2,2,0,0,0-2-2"/></g></g></svg>