<?xml version="1.0" encoding="utf-8"?>
<!-- Generator: Adobe Illustrator 25.2.0, SVG Export Plug-In . SVG Version: 6.00 Build 0)  -->
<svg version="1.1" id="Layer_1" xmlns="http://www.w3.org/2000/svg" xmlns:xlink="http://www.w3.org/1999/xlink" x="0px" y="0px"
	 viewBox="0 0 478.1 96.5" style="enable-background:new 0 0 478.1 96.5;" xml:space="preserve">
<style type="text/css">
	.st0{clip-path:url(#SVGID_2_);}
	.st1{fill:#CBB7FF;}
</style>
<g>
	<g>
		<defs>
			<rect id="SVGID_1_" width="478.1" height="96.6"/>
		</defs>
		<clipPath id="SVGID_2_">
			<use xlink:href="#SVGID_1_"  style="overflow:visible;"/>
		</clipPath>
		<g class="st0">
			<path class="st1" d="M166.2,152.7c-7.6,0-13.7,6.1-13.7,13.6s6.2,13.6,13.7,13.6c7.6,0,13.7-6.1,13.7-13.6
				C180,158.8,173.8,152.7,166.2,152.7"/>
			<path class="st1" d="M120.4,107.5c-7.6,0-13.7,6.1-13.7,13.6c0,7.5,6.2,13.6,13.7,13.6c7.6,0,13.7-6.1,13.7-13.6
				S128,107.5,120.4,107.5"/>
			<path class="st1" d="M320.2,43.4c-2.1,5.3-1,11.5,3.3,15.8s10.5,5.4,15.8,3.3c-2.1,5.3-1,11.5,3.3,15.8c5.8,5.8,15.1,5.8,20.9,0
				s5.8-15.1,0-20.9c-4.3-4.3-10.5-5.4-15.8-3.3c2.1-5.3,1-11.5-3.3-15.8s-10.5-5.4-15.8-3.3c2.1-5.3,1-11.5-3.3-15.8
				c-5.8-5.8-15.1-5.8-20.9,0s-5.8,15.1,0,20.9C308.7,44.3,315,45.4,320.2,43.4"/>
			<g>
				<path class="st1" d="M0,0v1.2v94.2v1.2v94.3v1.1v94.4v1.1v95.4h95.4h1.1h94.2h1.2h94.2h1.1h94.3h0.6h0.6H406h23.8h23.8H478
					v-24.4v-23.8v-23.8v-23.8v-0.7l0,0V192l0,0V96.5v-1.2V49.5l0.7-0.7l-0.4-0.4v-0.6H478V1.2V0 M1.2,1.2h39.6
					C20.4,4.4,4.4,20.4,1.2,40.8V1.2z M59.2,102.2l-6.6,6.9l6.6,6.9l-6.6,6.9l6.6,6.9l-6.6,6.9l6.6,6.9l-6.6,6.9l6.6,6.9l-6.6,6.9
					l6.6,6.9l-6.6,6.9l6.6,6.9l-4.7,4.9l0.6,0.5H39.3l5.2-5.4l-6.6-6.9l6.6-6.9l-6.6-6.9l6.6-6.9l-6.6-6.9l6.6-6.9l-6.6-6.9l6.6-6.9
					l-6.6-6.9l6.6-6.9l-6.6-6.9l6.6-6.9l-5.4-5.7h16.3l-0.8,0.8L59.2,102.2z M1.2,355.5v-17.4l0.2-0.2l50.5-50.6h17.3L1.2,355.5z
					 M3,285.6l45.4-45.8l45.2,45.8H3z M48.3,94.8c-25.6,0-46.5-20.9-46.5-46.5S22.7,1.8,48.3,1.8s46.5,20.9,46.5,46.5
					S73.9,94.8,48.3,94.8 M1.2,55.7C4.4,76,20.5,92.1,40.8,95.3H1.2V55.7z M36.4,116.1l-6.6,6.9l6.6,6.9l-6.6,6.9l6.6,6.9l-6.6,6.9
					l6.6,6.9l-6.6,6.9l6.6,6.9l-6.6,6.9l6.6,6.9l-4.7,4.9l0.6,0.5H16.5l5.2-5.4l-6.6-6.9l6.6-6.9l-6.6-6.9l6.6-6.9l-6.6-6.9l6.6-6.9
					l-6.6-6.9l6.6-6.9l-6.6-6.9l6.6-6.9l-6.6-6.9l6.6-6.9l-5.4-5.7h16.3l-0.8,0.8l4.7,4.9l-6.6,6.9L36.4,116.1z M1.2,96.5h8.6
					L9,97.3l4.7,4.9L7,109.1l6.6,6.9L7,123l6.6,6.9L7,136.8l6.6,6.9l-6.6,7l6.6,6.9L7,164.5l6.6,6.9l-6.6,7l6.6,6.9l-4.7,4.9
					l0.6,0.5H1.2V96.5z M1.2,192h46.1l-46,46.5c0,0,0,0,0,0.1L1.2,192L1.2,192z M48.4,192.5l45.2,45.8H3L48.4,192.5z M1.2,239.2
					c0.1,0.1,0.3,0.3,0.5,0.3H47L1.2,285.7c0,0,0,0,0,0.1V239.2z M1.2,287.4h0.2v15.9l15.8-15.9h17.3L1.2,320.8V287.4z M95.3,365.4
					l-16,16l-0.2,0.2H61.8L95.3,348V365.4z M95.3,330.7l-50.6,50.7l-0.2,0.2H27.2l0.2-0.2l68-68L95.3,330.7L95.3,330.7z M95.3,296
					L10,381.4l-0.2,0.2H1.2v-8.7l85.4-85.5h8.8L95.3,296L95.3,296z M95.3,285.6l-45.5-46.2H95c0.1,0,0.2,0,0.3-0.1V285.6z
					 M95.3,238.4L49.5,192h45.6l0,0h0.2C95.3,192,95.3,238.4,95.3,238.4z M60.7,150.7l6.6-6.9l-6.6-6.9l6.6-6.9l-6.6-6.9l6.6-6.9
					l-6.6-6.9l6.6-6.9l-5.4-5.7h16.3l-0.8,0.8l4.7,4.9l-6.6,6.9l6.6,6.9l-6.6,6.9l6.6,6.9l-6.6,6.9l6.6,6.9l-6.6,6.9l6.6,6.9
					l-6.6,6.9l6.6,6.9l-6.6,6.9l6.6,6.9l-4.7,4.9l0.6,0.5H62.1l5.2-5.4l-6.6-6.9l6.6-6.9l-6.6-6.9l6.6-6.9L60.7,150.7z M83.5,150.7
					l6.6-6.9l-6.6-6.9l6.6-6.9l-6.6-6.9l6.6-6.9l-6.6-6.9l6.6-6.9l-5.4-5.7h10.4v94.2H84.9l5.2-5.4l-6.6-6.9l6.6-6.9l-6.6-6.9
					l6.6-6.9L83.5,150.7z M95.3,95.4H55.7C76,92.2,92.1,76.1,95.3,55.8V95.4z M95.3,40.8C92.1,20.4,76.1,4.4,55.7,1.2h39.6V40.8z
					 M95.3,0H2 M264.2,166.9l21.4-21.4v21.4H264.2z M285.7,169.3v21.4h-21.4L285.7,169.3z M264.2,143l21.4-21.4V143H264.2z
					 M264.2,119.2l21.4-21.4v21.4H264.2z M192.6,95.3L238.9,49l46.3,46.3H192.6z M207.4,274l15.4-15.9c4.7,3.9,10.4,5.9,16.1,5.9
					c6.6,0,13.1-2.5,18-7.6c9.4-9.8,9.3-25.3-0.2-34.9l15.3-15.9c8.6,8.5,14,20.4,14,33.4c0,25.9-21.1,47.1-47,47.1h-0.1
					C226.7,286.1,215.7,281.5,207.4,274 M228.3,286.1h-36.4v-35.8C196.2,268.1,210.4,282.1,228.3,286.1 M222.3,256.2
					c-9.5-9.1-9.7-24.3-0.6-33.7c4.7-4.8,10.9-7.3,17.1-7.3c6,0,11.9,2.2,16.6,6.7c9.5,9.1,9.7,24.3,0.6,33.7
					S231.7,265.3,222.3,256.2 M255.8,220.6c-9.9-9.2-25.5-8.8-34.9,1c-9.6,9.9-9.3,25.8,0.6,35.4c0.1,0.1,0.3,0.2,0.4,0.3
					l-15.3,15.9c-8.2-7.8-13.6-18.5-14.6-30.5v-7.4c1.9-24.2,22.2-43.4,46.9-43.4l0,0c12.5,0,23.8,4.9,32.2,12.8L255.8,220.6z
					 M192.8,119.2l21.8-21.8v21.8H192.8z M214.6,121.2V143h-21.8L214.6,121.2z M214.6,145v21.8h-21.8L214.6,145z M214.6,168.9v21.8
					h-21.8L214.6,168.9z M228.3,192c-17.9,4-32.1,18-36.4,35.8V192H228.3z M238.4,168.9v21.8h-21.8L238.4,168.9z M238.4,143h-21.8
					l21.8-21.8V143z M238.4,119.2h-21.8l21.8-21.8V119.2z M238.4,145v21.8h-21.8L238.4,145z M240.4,166.9l21.8-21.8v21.8H240.4z
					 M262.2,168.9v21.8h-21.8L262.2,168.9z M240.4,143l21.8-21.8V143H240.4z M240.4,119.2l21.8-21.8v21.8H240.4z M192.7,1.2h92.5
					L239,47.4L192.7,1.2z M190.7,0h-45.8 M142.4,0H96.5 M142.5,2.9v44.2H98.2L142.5,2.9z M96.5,95.3l45.9-45.9l0,0v45.9H96.5
					L96.5,95.3z M96.5,96.7h93.9v94.1H96.5V96.7z M144.2,310.9L144.2,310.9L144.2,310.9c0-12.7,10.3-23,22.9-23
					c12.6,0,22.9,10.3,22.9,22.9s-10.3,22.9-22.9,22.9C154.5,333.9,144.3,323.6,144.2,310.9 M162.1,334.5c-9.2,2-16.4,9.2-18.4,18.3
					c-2-9.2-9.3-16.4-18.4-18.3c9.2-2,16.4-9.2,18.4-18.3C145.7,325.3,152.9,332.5,162.1,334.5 M143.7,305.7
					c-2-9.1-9.2-16.2-18.3-18.3h36.5C152.8,289.4,145.7,296.6,143.7,305.7 M143.1,310.9L143.1,310.9L143.1,310.9
					c0,12.7-10.3,23-22.9,23c-10,0-18.5-6.4-21.6-15.3c-0.8-2.4-1.3-4.9-1.3-7.6c0-5.2,1.8-10,4.7-13.9c4.2-5.5,10.8-9,18.2-9
					C132.8,288,143.1,298.3,143.1,310.9 M115.1,334.5c-9.2,2-16.4,9.2-18.5,18.4v-6.1v-17.4v-10.9v-2.4c0.2,0.8,0.4,1.6,0.7,2.4
					C99.9,326.5,106.7,332.7,115.1,334.5 M101.9,295.1c-2.5,2.9-4.3,6.3-5.2,10.1l-0.1-10.5v-0.9v-6.5h18.3
					C109.7,288.5,105.2,291.3,101.9,295.1 M96.6,275.8V192h83.9C136.5,196.8,101.4,231.8,96.6,275.8 M190.1,192.6
					c-0.3,51.1-41.8,92.6-92.9,92.9C97.5,234.5,139,193,190.1,192.6 M96.6,381.6v-0.2h0.1V364l-0.1,0.1v-0.9
					c2,9.1,9.2,16.3,18.3,18.3H96.6V381.6z M97.2,358.1c0-12.6,10.3-22.9,22.9-22.9s22.9,10.3,22.9,22.9l0,0l0,0
					c0,12.6-10.3,22.9-22.9,22.9S97.2,370.7,97.2,358.1 M125.4,381.6c9.1-2,16.2-9.2,18.3-18.3c2,9.1,9.2,16.2,18.3,18.3H125.4z
					 M144.2,358.1L144.2,358.1C144.2,358,144.2,358,144.2,358.1c0-12.7,10.3-23,22.9-23c12.6,0,22.9,10.3,22.9,22.9
					s-10.3,22.9-22.9,22.9C154.5,381,144.3,370.7,144.2,358.1 M190.7,381.6h-18.3c9.1-2,16.2-9.2,18.3-18.3V381.6z M190.7,352.8
					c-2-9.2-9.3-16.4-18.4-18.3c9.2-2,16.4-9.2,18.4-18.3V352.8z M190.7,305.7c-2-9.1-9.2-16.2-18.3-18.3h18.3V305.7z M190.7,236.2
					c-0.1,0.9-0.1,1.9-0.1,2.8c0,0.9,0,1.9,0.1,2.8v44.3h-83.6c43.8-4.9,78.7-39.7,83.6-83.5V236.2z M190.7,95.4h-47.6l47.6-47.6
					L190.7,95.4L190.7,95.4z M190.7,47.1h-45.9l45.9-45.9l0,0L190.7,47.1L190.7,47.1z M191.9,94.4V2l46.2,46.2L191.9,94.4z
					 M285.9,381.6h-94v-94.2h94V381.6z M286,286.1h-0.1h-36.5c18.3-4.1,32.7-18.6,36.6-36.9V286.1z M286,228.9
					c-3.9-18.3-18.3-32.8-36.6-36.9h36.2v0.2h0.4V228.9z M286,94.5l-46.3-46.3L286,2V94.5z M381.4,0h-94.2 M367.3,226l13.2,13.2
					l-13.2,13.2l-0.3,0.3v0.5v18.6h-18.6h-0.5l-0.3,0.3l-13.2,13.2l-13.2-13.2l-0.3-0.3h-0.5h-18.6v-18.6v-0.5l-0.3-0.3l-13.2-13.2
					l13.2-13.2l0.3-0.3v-0.5v-18.6h18.6h0.5l0.3-0.3l13.2-13.2l13.2,13.2l0.3,0.3h0.5H367v18.6v0.5L367.3,226z M333.7,192.2
					l-13.3,13.3h-19.8v19.8l-13.3,13.3v-46.4L333.7,192.2L333.7,192.2z M287.3,190.7V96.5h46.6c26,0,47.2,21.2,47.2,47.2
					c0,24.3-18.5,44.4-42.2,46.9L287.3,190.7L287.3,190.7z M300.6,253.2V273h19.8l13.2,13.2h-46.3v-46.3L300.6,253.2z M380.3,287.4
					L354,313.7l0.4,0.4c-5.2-5.1-12.2-8.2-20-8.2c-15.8,0-28.6,12.8-28.6,28.6c0,7.9,3.2,15,8.3,20.2l-0.6-0.6l-26.3,26.3v-93
					L380.3,287.4L380.3,287.4z M361.9,334.5c0,15.1-12.3,27.4-27.4,27.4s-27.4-12.3-27.4-27.4s12.3-27.4,27.4-27.4
					S361.9,319.4,361.9,334.5 M381.3,381.5H288l26.5-26.5l-0.2-0.2c5.2,5.1,12.3,8.3,20.2,8.3c15.8,0,28.6-12.8,28.6-28.6
					c0-7.8-3.1-14.9-8.2-20l0,0l26.4-26.4V381.5z M381.5,286.1h-46.3l13.2-13.2h19.8v-19.8l13.3-13.3V286.1z M381.5,238.5
					l-13.3-13.3v-19.8h-19.8l-13.3-13.3c1,0,1.9-0.1,2.9-0.2h43.5L381.5,238.5L381.5,238.5z M381.5,190.7h-35.8
					c18.2-4.6,32.4-19.5,35.8-38.2V190.7z M381.5,135c-3.5-19.1-18.2-34.2-37-38.4h37V135z M381.5,47.7h-0.2v1.2h0.2v46.4h-94.3V1.2
					h94.3V47.7z M476,0h-45.5l0,0h-0.6l-0.4-0.4L429,0h-46.4 M429.8,97.3c25.6,0,46.5,20.9,46.5,46.5s-20.9,46.5-46.5,46.5
					s-46.5-20.9-46.5-46.5C383.3,118.1,404.2,97.3,429.8,97.3 M429.3,47.7h-44.8l44.8-46.3V47.7z M382.7,1.2h45.2l-45,46.6h-0.3
					L382.7,1.2L382.7,1.2z M382.7,48.9h46.7v46.4h-46.7V48.9z M382.7,96.5h40.7c-20.9,2.8-37.5,19.2-40.7,40.1V96.5z M382.7,150.9
					c3,20.2,18.8,36.3,38.9,39.8h-38.9V150.9z M382.7,287.4h21.9l-21.9,21.9V287.4z M382.7,335.1h21.9l-21.9,21.8V335.1z
					 M405.3,380.7l-21.8-21.8h21.8V380.7z M405.3,333.1l-21.8-21.8h21.8V333.1z M429.2,381.6h-21.9l21.9-21.8V381.6z M406.5,357.8
					V336l21.8,21.8H406.5z M429.2,333.9h-21.9l21.9-21.8V333.9z M406.5,310.1v-21.8l21.8,21.8H406.5z M453,380.7l-21.8-21.8H453
					V380.7z M430.3,357v-21.8h21.9L430.3,357z M453,333.1l-21.8-21.8H453V333.1z M430.3,309.3v-21.9h21.9L430.3,309.3z M382.7,192
					h94.2v94.2h-94.2V192z M476,310.1h-21.8v-21.8L476,310.1z M454.2,336l21.8,21.8h-21.8V336z M476.8,381.6H455l21.9-21.8v21.8
					H476.8z M476.8,333.9H455l21.9-21.8v21.8H476.8z M476.8,190.7H438c19.9-3.5,35.5-19.2,38.8-39.2V190.7z M476.8,136
					c-3.4-20.5-19.8-36.6-40.6-39.5h40.6V136z M476.8,95.3h-44.7l44.7-44.7V95.3z M476.8,49l-46.3,46.4l0,0V48.9L476.8,49L476.8,49z
					 M476.8,47.8h-46.3V1.2h46.3V47.8z"/>
			</g>
		</g>
	</g>
</g>
</svg>
