<?xml version="1.0" encoding="utf-8"?>
<!-- Generator: Adobe Illustrator 25.2.0, SVG Export Plug-In . SVG Version: 6.00 Build 0)  -->
<svg version="1.1" id="Layer_1" xmlns="http://www.w3.org/2000/svg" xmlns:xlink="http://www.w3.org/1999/xlink" x="0px" y="0px"
	 viewBox="0 0 478.1 96.6" style="enable-background:new 0 0 478.1 96.6;" xml:space="preserve">
<style type="text/css">
	.st0{clip-path:url(#SVGID_2_);}
	.st1{fill:none;}
	.st2{fill:#CBB7FF;}
</style>
<g>
	<defs>
		<rect id="SVGID_1_" x="0" y="0" width="478.1" height="380.3"/>
	</defs>
	<clipPath id="SVGID_2_">
		<use xlink:href="#SVGID_1_"  style="overflow:visible;"/>
	</clipPath>
	<g class="st0">
		<g>
			<polygon class="st1" points="216.9,166.9 238.7,145.1 238.7,166.9 			"/>
			<polygon class="st1" points="193.1,166.9 214.9,145.1 214.9,166.9 			"/>
			<polygon class="st1" points="240.7,166.9 262.6,145.1 262.6,166.9 			"/>
			<polygon class="st1" points="264.6,166.9 286.4,145.1 286.4,166.9 			"/>
			<polygon class="st1" points="96.9,97.4 143.1,143.6 96.9,189.8 			"/>
			<polygon class="st1" points="1.5,95.3 1.5,49.5 47.3,95.3 			"/>
			<polygon class="st1" points="95.7,95.3 49.9,95.3 95.7,49.5 			"/>
			<polygon class="st1" points="216.9,119.2 238.7,97.4 238.7,119.2 			"/>
			<polygon class="st1" points="1.5,1.2 47.4,1.2 1.5,47 			"/>
			<path class="st1" d="M323.5,96.6c-17.8,4.3-31.8,18.4-35.8,36.4V96.6H323.5z"/>
			<polygon class="st1" points="262.6,143.1 240.7,143.1 262.6,121.2 			"/>
			<polygon class="st1" points="262.6,119.2 240.7,119.2 262.6,97.4 			"/>
			<polygon class="st1" points="286.4,119.2 264.6,119.2 286.4,97.4 			"/>
			<polygon class="st1" points="286.4,143.1 264.6,143.1 286.4,121.2 			"/>
			<polygon class="st1" points="214.9,143.1 193.1,143.1 214.9,121.2 			"/>
			<polygon class="st1" points="238.7,143.1 216.9,143.1 238.7,121.2 			"/>
			<path class="st1" d="M392.7,6.6c3.9-3,8.7-4.7,13.9-4.7c2.7,0,5.2,0.5,7.6,1.3c8.9,3.1,15.3,11.6,15.3,21.6
				c0,12.6-10.3,22.9-22.9,22.9c0,0,0,0,0,0s0,0,0,0c-12.6,0-22.9-10.3-22.9-22.9C383.7,17.4,387.2,10.8,392.7,6.6z"/>
			<path class="st1" d="M288.3,94.8c0.3-51.1,41.8-92.6,92.9-92.9C380.9,52.9,339.4,94.5,288.3,94.8z"/>
			<path class="st1" d="M459,1.2h0.9l-0.1,0.1H477V1.2h0.2v18.3C475.2,10.4,468.1,3.3,459,1.2z"/>
			<path class="st1" d="M287.7,85.2V1.2h83.8C327.5,6.1,292.4,41.1,287.7,85.2z"/>
			<path class="st1" d="M453.8,47.7C453.8,47.7,453.8,47.7,453.8,47.7C453.7,47.7,453.7,47.7,453.8,47.7c-12.7,0-23-10.3-23-22.9
				c0-12.6,10.3-22.9,22.9-22.9c12.6,0,22.9,10.3,22.9,22.9C476.7,37.4,466.4,47.7,453.8,47.7z"/>
			<path class="st1" d="M477.3,77.1v18.3H459C468.1,93.3,475.2,86.2,477.3,77.1z"/>
			<polygon class="st1" points="49.8,1.2 95.7,1.2 95.7,47 			"/>
			<path class="st1" d="M453.7,94.8c-12.6,0-22.9-10.3-22.9-22.9c0-12.6,10.3-22.9,22.9-22.9c0,0,0,0,0,0s0,0,0,0
				c12.6,0,22.9,10.3,22.9,22.9C476.7,84.5,466.4,94.8,453.7,94.8z"/>
			<path class="st1" d="M459,48.3c9.1-2,16.2-9.2,18.3-18.3v36.5C475.2,57.5,468.1,50.3,459,48.3z"/>
			<path class="st1" d="M389.6,1.2h0.9l10.5,0.1c-3.8,0.9-7.2,2.7-10.1,5.2c-3.8,3.3-6.6,7.8-7.7,12.9V1.2H389.6z"/>
			<polygon class="st1" points="145.1,47.1 145.1,47.1 191,1.2 191,1.2 191,47.1 			"/>
			<path class="st1" d="M406.6,94.8c-12.6,0-22.9-10.3-22.9-22.9c0-12.6,10.3-22.9,22.9-22.9c0,0,0,0,0,0s0,0,0,0
				c12.6,0,22.9,10.3,22.9,22.9C429.5,84.5,419.3,94.8,406.6,94.8z"/>
			<path class="st1" d="M414.2,1.9c-0.8-0.3-1.6-0.5-2.4-0.7h2.4h10.9h17.4h6.1c-9.2,2-16.4,9.3-18.4,18.5
				C428.4,11.3,422.2,4.6,414.2,1.9z"/>
			<polygon class="st1" points="142.8,47.1 98.6,47.1 142.8,2.9 			"/>
			<path class="st1" d="M286.5,95.1V1.2h-94.1v93.9H286.5z M216.8,38.8c-7.5,0-13.6-6.2-13.6-13.7s6.1-13.7,13.6-13.7
				s13.6,6.2,13.6,13.7S224.2,38.8,216.8,38.8z M262,84.6c-7.5,0-13.6-6.2-13.6-13.7c0-7.6,6.1-13.7,13.6-13.7
				c7.5,0,13.6,6.2,13.6,13.7C275.5,78.5,269.5,84.6,262,84.6z"/>
			<polygon class="st1" points="193.1,119.2 214.9,97.4 214.9,119.2 			"/>
			<ellipse class="st1" cx="430.2" cy="48.3" rx="18.3" ry="18.4"/>
			<path class="st1" d="M401.4,48.3c-9.1,2-16.2,9.2-18.3,18.3V30C385.1,39.1,392.3,46.3,401.4,48.3z"/>
			<path class="st1" d="M191-39.6V0l-39.6,0C171.8-3.2,187.8-19.3,191-39.6z"/>
			<path class="st1" d="M287.7,143.5c0-24.7,19.2-45,43.4-46.9h7.4c12,0.9,22.7,6.3,30.5,14.6L353,126.5c-0.1-0.1-0.2-0.3-0.3-0.4
				c-9.6-9.9-25.5-10.2-35.4-0.6c-9.8,9.4-10.2,25-1,34.9l-15.9,15.3C292.5,167.3,287.7,156,287.7,143.5L287.7,143.5z"/>
			<polygon class="st1" points="468.6,-94.2 477.3,-94.2 477.3,-85.5 477,-85.3 391.7,0 383.1,0 383.1,-8.8 			"/>
			<path class="st1" d="M335.2-48.4v-45.4c0-0.2-0.1-0.3-0.3-0.5h46.6c0,0,0,0-0.1,0L335.2-48.4z"/>
			<polygon class="st1" points="285.9,-86.4 281,-81.8 274,-88.4 267.1,-81.8 260.2,-88.4 253.3,-81.8 246.4,-88.4 239.4,-81.8 
				232.5,-88.4 225.6,-81.8 218.7,-88.4 211.8,-81.8 204.8,-88.4 197.9,-81.8 193,-86.4 192.2,-85.6 192.2,-94.2 286.4,-94.2 
				286.4,-85.9 			"/>
			<polygon class="st1" points="383.1,-78.1 399,-94 383.1,-94 383.1,-94.2 416.5,-94.2 383.1,-60.8 			"/>
			<polygon class="st1" points="477.3,-68.2 477.3,-50.9 477,-50.6 426.4,0 409,0 477,-68 			"/>
			<polygon class="st1" points="477.3,-16.2 477,-16 461.1,0 443.7,0 477.3,-33.5 			"/>
			<polygon class="st1" points="193,-63.6 192.2,-62.8 192.2,-79.1 197.9,-73.7 204.8,-80.2 211.8,-73.7 218.7,-80.2 225.6,-73.7 
				232.5,-80.2 239.4,-73.7 246.4,-80.2 253.3,-73.7 260.2,-80.2 267.1,-73.7 274,-80.2 281,-73.7 286.4,-78.8 286.4,-63.1 
				285.9,-63.6 281,-59 274,-65.6 267.1,-59 260.2,-65.6 253.3,-59 246.4,-65.6 239.4,-59 232.5,-65.6 225.6,-59 218.7,-65.6 
				211.8,-59 204.8,-65.6 197.9,-59 			"/>
			<path class="st1" d="M287.7-48.1v-46.1h46.6c0,0,0,0-0.1,0L287.7-48.1z"/>
			<path class="st1" d="M96.9-54.6v-39.6h39.6C116.1-91,100.1-74.9,96.9-54.6z"/>
			<polygon class="st1" points="30.7,-65 30.7,-30 1.5,-0.8 1.5,-94.2 94.9,-94.2 65.7,-65 			"/>
			<polygon class="st1" points="192.2,-56.3 197.9,-50.9 204.8,-57.4 211.8,-50.9 218.7,-57.4 225.6,-50.9 232.5,-57.4 239.4,-50.9 
				246.4,-57.4 253.3,-50.9 260.2,-57.4 267.1,-50.9 274,-57.4 281,-50.9 286.4,-56 286.4,-40.3 285.9,-40.8 281,-36.2 274,-42.8 
				267.1,-36.2 260.2,-42.8 253.3,-36.2 246.4,-42.8 239.4,-36.2 232.5,-42.8 225.6,-36.2 218.7,-42.8 211.8,-36.2 204.8,-42.8 
				197.9,-36.2 193,-40.8 192.2,-40 			"/>
			<polygon class="st1" points="433.7,-94 433.9,-94.2 451.2,-94.2 383.1,-26.1 383.1,-43.5 			"/>
			<path class="st1" d="M151.4-94.2H191v39.6C187.8-74.9,171.8-91,151.4-94.2z"/>
			<circle class="st1" cx="144" cy="-47.1" r="46.5"/>
			<polygon class="st1" points="335.4,-47 381.3,-92.3 381.3,-1.7 			"/>
			<polygon class="st1" points="334,-1.7 288.2,-47 334,-92.3 			"/>
			<polygon class="st1" points="193.4,190.3 214.9,168.9 214.9,190.3 			"/>
			<polygon class="st1" points="191,97.2 191,189.9 144.7,143.6 			"/>
			<polygon class="st1" points="217.3,190.3 238.7,168.9 238.7,190.3 			"/>
			<polygon class="st1" points="265,190.3 286.4,168.9 286.4,190.3 			"/>
			<path class="st1" d="M351.3,160.6c-9.5,9.1-24.6,8.9-33.7-0.6c-4.5-4.6-6.7-10.6-6.7-16.6c0-6.2,2.4-12.5,7.3-17.1
				c9.5-9.1,24.6-8.9,33.7,0.6C361,136.4,360.7,151.5,351.3,160.6z"/>
			<polygon class="st1" points="241.1,190.3 262.6,168.9 262.6,190.3 			"/>
			<path class="st1" d="M381.8,143.6c0,25.9-21.1,47-47.1,47c-13.1,0-24.9-5.4-33.4-14l15.9-15.3c9.6,9.5,25.2,9.6,34.9,0.2
				c5.1-4.9,7.6-11.4,7.6-18c0-5.7-2-11.5-5.9-16.1l15.9-15.4C377.2,120.4,381.8,131.4,381.8,143.6L381.8,143.6z"/>
			<path class="st1" d="M346,96.6h35.8V133C377.8,115,363.8,100.9,346,96.6z"/>
			<polygon class="st1" points="66.6,-29.1 66.6,-64.2 95.7,-93.3 95.7,0 48.7,0 48.6,-0.1 48.5,0 2.3,0 31.5,-29.1 			"/>
			<polygon class="st1" points="267.1,-28.1 274,-34.6 281,-28.1 286.4,-33.2 286.4,-17.5 285.9,-18 281,-13.4 274,-20 267.1,-13.4 
				260.2,-20 253.3,-13.4 246.4,-20 239.4,-13.4 232.5,-20 225.6,-13.4 218.7,-20 211.8,-13.4 204.8,-20 197.9,-13.4 193,-18 
				192.2,-17.2 192.2,-33.5 197.9,-28.1 204.8,-34.6 211.8,-28.1 218.7,-34.6 225.6,-28.1 232.5,-34.6 239.4,-28.1 246.4,-34.6 
				253.3,-28.1 260.2,-34.6 			"/>
			<polygon class="st1" points="287.7,-0.3 287.7,-45.8 334.1,0 287.7,0 287.7,-0.3 			"/>
			<polygon class="st1" points="267.1,-5.3 274,-11.8 281,-5.3 286.4,-10.4 286.4,-0.3 192.2,-0.3 192.2,-10.7 197.9,-5.3 
				204.8,-11.8 211.8,-5.3 218.7,-11.8 225.6,-5.3 232.5,-11.8 239.4,-5.3 246.4,-11.8 253.3,-5.3 260.2,-11.8 			"/>
			<path class="st1" d="M335.2-45.5L381.3,0l-46.3,0c0.1-0.1,0.1-0.2,0.1-0.3V-45.5z"/>
			<path class="st1" d="M430.2,76.9c2,9.2,9.2,16.4,18.3,18.4h-36.6C421,93.3,428.2,86.1,430.2,76.9z"/>
			<polygon class="st1" points="1.5,190.7 1.5,96.5 48.5,96.5 48.6,96.6 48.7,96.5 95.7,96.5 95.7,190.7 			"/>
			<path class="st1" d="M136.5,0L96.9,0v-39.6C100.1-19.3,116.1-3.2,136.5,0z"/>
			<rect x="15.6" y="15.3" transform="matrix(0.7071 -0.7071 0.7071 0.7071 -19.888 48.5024)" class="st1" width="66" height="66"/>
			<polygon class="st1" points="428.8,309.9 407,309.9 407,288.1 			"/>
			<polygon class="st1" points="476.4,309.9 454.6,309.9 454.6,288.1 			"/>
			<polygon class="st1" points="477.3,333.8 455.4,333.8 477.3,312 			"/>
			<polygon class="st1" points="430.8,287.3 452.6,287.3 430.8,309.2 			"/>
			<polygon class="st1" points="384.1,311.2 405.8,311.2 405.8,333 			"/>
			<polygon class="st1" points="383.1,287.3 405,287.3 383.1,309.3 			"/>
			<polygon class="st1" points="431.7,311.2 453.4,311.2 453.4,333 			"/>
			<polygon class="st1" points="429.6,333.8 407.8,333.8 429.6,312 			"/>
			<polygon class="st1" points="143.4,334 97.1,334 143.4,289.2 			"/>
			
				<ellipse transform="matrix(9.853785e-02 -0.9951 0.9951 9.853785e-02 -116.9708 539.77)" class="st1" cx="239.4" cy="334.4" rx="46.5" ry="46.5"/>
			<polygon class="st1" points="95.2,334.1 95.6,334.6 95.6,335.1 95.7,335.1 95.7,380.6 2.8,287.3 95.7,287.3 95.7,333.7 			"/>
			<path class="st1" d="M96.9,191.9v94.3h46.6l0-0.2h1.2l0,0.2H191v-94.3H96.9z M135.7,209.1c4.3,4.3,5.4,10.5,3.3,15.8
				c5.3-2.1,11.5-1,15.8,3.3c4.3,4.3,5.4,10.5,3.3,15.8c5.3-2.1,11.5-1,15.8,3.3c5.8,5.8,5.8,15.1,0,20.9c-5.8,5.8-15.1,5.8-20.9,0
				c-4.3-4.3-5.4-10.5-3.3-15.8c-5.3,2.1-11.5,1-15.8-3.3c-4.3-4.3-5.4-10.5-3.3-15.8c-5.3,2.1-11.5,1-15.8-3.3
				c-5.8-5.8-5.8-15.1,0-20.9C120.7,203.3,130,203.3,135.7,209.1z"/>
			<path class="st1" d="M246.6,287.3h39.8v38.9C282.9,306.1,266.8,290.4,246.6,287.3z"/>
			<polygon class="st1" points="476.4,357.6 454.6,357.6 454.6,335.8 			"/>
			<path class="st1" d="M192.2,328v-40.7h40.1C211.5,290.4,195.1,307.1,192.2,328z"/>
			<polygon class="st1" points="96.9,332.6 96.9,287.3 143.4,287.3 143.4,287.6 			"/>
			<polygon class="st1" points="144.6,334 144.6,287.3 191,287.3 191,334 			"/>
			<polygon class="st1" points="94.9,381.5 1.5,381.5 1.5,287.7 			"/>
			<polygon class="st1" points="191,381.5 146.3,381.5 191,336.8 			"/>
			<polygon class="st1" points="191,335.1 191,335.2 144.7,381.5 144.6,381.5 144.6,335.1 			"/>
			<path class="st1" d="M286.4,342.7v38.8h-39.2C267.2,378.2,282.9,362.6,286.4,342.7z"/>
			<polygon class="st1" points="143.4,335.1 143.5,381.5 96.9,381.5 96.9,335.1 			"/>
			<path class="st1" d="M231.7,381.5h-39.5v-40.6C195,361.6,211.1,378.1,231.7,381.5z"/>
			<path class="st1" d="M230.7,286.1h-38.4v-37C196.4,267.9,211.6,282.6,230.7,286.1z"/>
			<path class="st1" d="M401.4,95.3h-18.3V77.1C385.1,86.2,392.3,93.3,401.4,95.3z"/>
			<polygon class="st1" points="431.7,358.8 453.4,358.8 453.4,380.6 			"/>
			<polygon class="st1" points="429.6,381.5 407.8,381.5 429.6,359.6 			"/>
			<polygon class="st1" points="383.1,335 405,335 383.1,356.9 			"/>
			<polygon class="st1" points="428.8,357.6 407,357.6 407,335.8 			"/>
			<path class="st1" d="M381.8,381.5v-94.2h-94.2v94.2H381.8z M348.1,365.4l-7.4-21.3l-6.9,6.9l-7.3-21.2l-6.9,6.9l-9.6-27.8
				l27.8,9.7l-6.9,6.9L352,333l-6.9,6.9l21.2,7.4L348.1,365.4z"/>
			<polygon class="st1" points="477.3,381.5 455.4,381.5 477.3,359.6 			"/>
			<polygon class="st1" points="405.8,380.6 384.1,358.8 405.8,358.8 			"/>
			<polygon class="st1" points="430.8,335 452.6,335 430.8,356.8 			"/>
			<polygon class="st1" points="368.6,272.8 368.6,253 381.8,239.8 381.8,286.1 335.5,286.1 348.9,272.8 			"/>
			<polygon class="st1" points="190.2,190.7 97.7,190.7 143.9,144.4 			"/>
			<polygon class="st1" points="13.4,204 6.8,210.9 13.4,217.9 6.8,224.8 13.4,231.7 6.8,238.6 13.4,245.5 6.8,252.5 13.4,259.4 
				6.8,266.3 13.4,273.2 6.8,280.2 12.4,286 1.5,286 1.5,191.8 11.8,191.8 6.8,197.1 			"/>
			<polygon class="st1" points="59,204 52.4,210.9 59,217.9 52.4,224.8 59,231.7 52.4,238.6 59,245.5 52.4,252.5 59,259.4 
				52.4,266.3 59,273.2 52.4,280.2 58,286 41.4,286 42.4,285 37.7,280.2 44.3,273.2 37.7,266.3 44.3,259.4 37.7,252.5 44.3,245.5 
				37.7,238.6 44.3,231.7 37.7,224.8 44.3,217.9 37.7,210.9 44.3,204 37.7,197.1 42.4,192.2 42,191.8 57.4,191.8 52.4,197.1 			"/>
			<polygon class="st1" points="36.2,204 29.6,210.9 36.2,217.9 29.6,224.8 36.2,231.7 29.6,238.6 36.2,245.5 29.6,252.5 
				36.2,259.4 29.6,266.3 36.2,273.2 29.6,280.2 35.2,286 18.6,286 19.6,285 14.9,280.2 21.5,273.2 14.9,266.3 21.5,259.4 
				14.9,252.5 21.5,245.5 14.9,238.6 21.5,231.7 14.9,224.8 21.5,217.9 14.9,210.9 21.5,204 14.9,197.1 19.6,192.2 19.2,191.8 
				34.6,191.8 29.6,197.1 			"/>
			<path class="st1" d="M287.7,190.3v-36.2c4.1,18.3,18.6,32.7,36.9,36.6h-36.7v-0.4H287.7z"/>
			<path class="st1" d="M381.8,154.1v36.5v0.1h-36.9C363.2,186.7,377.7,172.4,381.8,154.1z"/>
			<polygon class="st1" points="142.8,49.4 142.8,95.3 96.9,95.3 96.9,95.3 			"/>
			<polygon class="st1" points="81.8,204 75.2,210.9 81.8,217.9 75.2,224.8 81.8,231.7 75.2,238.6 81.8,245.5 75.2,252.5 
				81.8,259.4 75.2,266.3 81.8,273.2 75.2,280.2 80.8,286 64.2,286 65.2,285 60.5,280.2 67.1,273.2 60.5,266.3 67.1,259.4 
				60.5,252.5 67.1,245.5 60.5,238.6 67.1,231.7 60.5,224.8 67.1,217.9 60.5,210.9 67.1,204 60.5,197.1 65.2,192.2 64.8,191.8 
				80.2,191.8 75.2,197.1 			"/>
			<polygon class="st1" points="191,95.3 143.4,95.3 191,47.7 			"/>
			<path class="st1" d="M383.1,96.6v94h94.2v-94H383.1z M407.2,158.2c4.1,0,7.5,3.4,7.5,7.5c0,4.1-3.4,7.5-7.5,7.5
				c-4.1,0-7.5-3.4-7.5-7.5C399.7,161.6,403.1,158.2,407.2,158.2z M430.3,158.2c4.1,0,7.5,3.4,7.5,7.5c0,4.1-3.4,7.5-7.5,7.5
				c-4.1,0-7.5-3.4-7.5-7.5C422.8,161.6,426.1,158.2,430.3,158.2z M453.3,158.2c4.1,0,7.5,3.4,7.5,7.5c0,4.1-3.4,7.5-7.5,7.5
				c-4.1,0-7.5-3.4-7.5-7.5C445.8,161.6,449.2,158.2,453.3,158.2z M407.2,135.2c4.1,0,7.5,3.4,7.5,7.5c0,4.1-3.4,7.5-7.5,7.5
				c-4.1,0-7.5-3.4-7.5-7.5C399.7,138.5,403.1,135.2,407.2,135.2z M430.3,135.2c4.1,0,7.5,3.4,7.5,7.5c0,4.1-3.4,7.5-7.5,7.5
				c-4.1,0-7.5-3.4-7.5-7.5C422.8,138.5,426.1,135.2,430.3,135.2z M453.3,135.2c4.1,0,7.5,3.4,7.5,7.5c0,4.1-3.4,7.5-7.5,7.5
				c-4.1,0-7.5-3.4-7.5-7.5C445.8,138.5,449.2,135.2,453.3,135.2z M407.2,112.1c4.1,0,7.5,3.4,7.5,7.5c0,4.1-3.4,7.5-7.5,7.5
				c-4.1,0-7.5-3.4-7.5-7.5C399.7,115.5,403.1,112.1,407.2,112.1z M430.3,112.1c4.1,0,7.5,3.4,7.5,7.5c0,4.1-3.4,7.5-7.5,7.5
				c-4.1,0-7.5-3.4-7.5-7.5C422.8,115.5,426.1,112.1,430.3,112.1z M453.3,112.1c4.1,0,7.5,3.4,7.5,7.5c0,4.1-3.4,7.5-7.5,7.5
				c-4.1,0-7.5-3.4-7.5-7.5C445.8,115.5,449.2,112.1,453.3,112.1z"/>
			<path class="st1" d="M381.8,11.8v83.6h-44.3c-0.9-0.1-1.9-0.1-2.8-0.1c-0.9,0-1.9,0-2.8,0.1h-33.6
				C342.1,90.4,377,55.6,381.8,11.8z"/>
			<path class="st1" d="M410.2,259.5c5.2,5.1,12.2,8.2,20,8.2c15.8,0,28.6-12.8,28.6-28.6c0-7.9-3.2-15-8.3-20.2l0.2,0.2l26.5-26.5
				v93.3h-93.3L410.2,259.5L410.2,259.5z"/>
			<path class="st1" d="M476.1,191.9l-26.3,26.3l0.6,0.6c-5.2-5.1-12.3-8.3-20.2-8.3c-15.8,0-28.6,12.8-28.6,28.6
				c0,7.8,3.1,14.9,8.2,20l-0.4-0.4L383.1,285v-93H476.1z"/>
			
				<ellipse transform="matrix(0.9239 -0.3827 0.3827 0.9239 -58.7568 182.8272)" class="st1" cx="430.2" cy="239.1" rx="27.4" ry="27.4"/>
			<polygon class="st1" points="97.7,96.5 190.1,96.5 143.9,142.7 			"/>
			<polygon class="st1" points="87,286 88,285 83.3,280.2 89.9,273.2 83.3,266.3 89.9,259.4 83.3,252.5 89.9,245.5 83.3,238.6 
				89.9,231.7 83.3,224.8 89.9,217.9 83.3,210.9 89.9,204 83.3,197.1 88,192.2 87.6,191.8 95.7,191.8 95.7,286 			"/>
			<path class="st1" d="M286.4,250.3v35.8h-38.2C266.9,282.7,281.8,268.5,286.4,250.3z"/>
			<path class="st1" d="M287.8,239.7l13.3,13.3v19.8h19.8l13.3,13.3h-46.5v-43.5C287.7,241.7,287.8,240.7,287.8,239.7z"/>
			<polygon class="st1" points="334.2,191.9 320.9,205.3 301.1,205.3 301.1,225 287.8,238.3 287.8,191.9 			"/>
			<polygon class="st1" points="381.8,191.9 381.8,238.2 368.6,225 368.6,205.3 348.9,205.3 335.5,191.9 			"/>
			<polygon class="st1" points="302.3,271.6 302.3,253 302.3,252.5 301.9,252.2 288.8,239 301.9,225.9 302.3,225.5 302.3,225 
				302.3,206.4 320.9,206.4 321.4,206.4 321.7,206.1 334.9,192.9 348,206.1 348.4,206.4 348.9,206.4 367.5,206.4 367.5,225 
				367.5,225.5 367.8,225.9 381,239 367.8,252.2 367.5,252.5 367.5,253 367.5,271.6 348.9,271.6 348.4,271.6 348,272 334.9,285.1 
				321.7,272 321.4,271.6 320.9,271.6 			"/>
			<path class="st1" d="M239.4,285.7c-26,0-47.2-21.2-47.2-47.2v-46.6h94.2v51.7C283.9,267.3,263.8,285.7,239.4,285.7z"/>
			<path class="st2" d="M414.7,119.6c0,4.1-3.4,7.5-7.5,7.5c-4.1,0-7.5-3.4-7.5-7.5c0-4.1,3.4-7.5,7.5-7.5
				C411.4,112.1,414.7,115.5,414.7,119.6z"/>
			<path class="st2" d="M414.7,142.7c0,4.1-3.4,7.5-7.5,7.5c-4.1,0-7.5-3.4-7.5-7.5c0-4.1,3.4-7.5,7.5-7.5
				C411.4,135.2,414.7,138.5,414.7,142.7z"/>
			<path class="st2" d="M414.7,165.7c0,4.1-3.4,7.5-7.5,7.5c-4.1,0-7.5-3.4-7.5-7.5c0-4.1,3.4-7.5,7.5-7.5
				C411.4,158.2,414.7,161.6,414.7,165.7z"/>
			<path class="st2" d="M437.8,119.6c0,4.1-3.4,7.5-7.5,7.5c-4.1,0-7.5-3.4-7.5-7.5c0-4.1,3.4-7.5,7.5-7.5
				C434.4,112.1,437.8,115.5,437.8,119.6z"/>
			<path class="st2" d="M437.8,142.7c0,4.1-3.4,7.5-7.5,7.5c-4.1,0-7.5-3.4-7.5-7.5c0-4.1,3.4-7.5,7.5-7.5
				C434.4,135.2,437.8,138.5,437.8,142.7z"/>
			<path class="st2" d="M437.8,165.7c0,4.1-3.4,7.5-7.5,7.5c-4.1,0-7.5-3.4-7.5-7.5c0-4.1,3.4-7.5,7.5-7.5
				C434.4,158.2,437.8,161.6,437.8,165.7z"/>
			<path class="st2" d="M460.8,119.6c0,4.1-3.4,7.5-7.5,7.5c-4.1,0-7.5-3.4-7.5-7.5c0-4.1,3.4-7.5,7.5-7.5
				C457.5,112.1,460.8,115.5,460.8,119.6z"/>
			<path class="st2" d="M460.8,142.7c0,4.1-3.4,7.5-7.5,7.5c-4.1,0-7.5-3.4-7.5-7.5c0-4.1,3.4-7.5,7.5-7.5
				C457.5,135.2,460.8,138.5,460.8,142.7z"/>
			<path class="st2" d="M460.8,165.7c0,4.1-3.4,7.5-7.5,7.5c-4.1,0-7.5-3.4-7.5-7.5c0-4.1,3.4-7.5,7.5-7.5
				C457.5,158.2,460.8,161.6,460.8,165.7z"/>
			<polygon class="st2" points="333.8,351.1 326.5,329.9 319.6,336.8 309.9,309 337.7,318.7 330.8,325.6 352,333 345.1,339.9 
				366.3,347.3 348.1,365.4 340.8,344.2 			"/>
			<path class="st2" d="M248.4,70.9c0-7.6,6.1-13.7,13.6-13.7c7.5,0,13.6,6.2,13.6,13.7c0,7.6-6.1,13.7-13.6,13.7
				C254.5,84.6,248.4,78.5,248.4,70.9z"/>
			<path class="st2" d="M203.2,25.1c0-7.6,6.1-13.7,13.6-13.7s13.6,6.2,13.6,13.7s-6.1,13.7-13.6,13.7S203.2,32.7,203.2,25.1z"/>
			<path class="st2" d="M139.1,224.9c5.3-2.1,11.5-1,15.8,3.3c4.3,4.3,5.4,10.5,3.3,15.8c5.3-2.1,11.5-1,15.8,3.3
				c5.8,5.8,5.8,15.1,0,20.9c-5.8,5.8-15.1,5.8-20.9,0c-4.3-4.3-5.4-10.5-3.3-15.8c-5.3,2.1-11.5,1-15.8-3.3
				c-4.3-4.3-5.4-10.5-3.3-15.8c-5.3,2.1-11.5,1-15.8-3.3c-5.8-5.8-5.8-15.1,0-20.9c5.8-5.8,15.1-5.8,20.9,0
				C140,213.4,141.1,219.6,139.1,224.9z"/>
			<path class="st2" d="M144.5,383.4l0.7-0.7H191h1.2h95.3v0h94.4v0h0.7h23.8h23.8H454h24.4v-24.4v-23.8v-23.8v-23.3v-0.6v-0.6
				v-94.3v-1.1V96.6v-1.2V1.2V0.1v-95.4H383h-1.1h-94.4h-1.1h-94.3H191H96.9h-1.2H0.3V0v1.2v47l-0.1,0.1l0.1,0.1v48.2h0v94.1v1.2
				v94.3v1l0,95.5h95.3h1.2h46.6l0,0.3h0.6L144.5,383.4z M94.9-94.2L65.7-65h-35v35L1.5-0.8v-93.3H94.9z M136.5-94.2
				c-20.3,3.2-36.4,19.3-39.6,39.6v-39.6H136.5z M193-40.8l-0.8,0.8v-16.3l5.7,5.4l6.9-6.6l6.9,6.6l6.9-6.6l6.9,6.6l6.9-6.6l6.9,6.6
				l6.9-6.6l6.9,6.6l6.9-6.6l6.9,6.6l6.9-6.6l6.9,6.6l5.4-5.2v15.7l-0.5-0.6l-4.9,4.7l-6.9-6.6l-6.9,6.6l-6.9-6.6l-6.9,6.6l-6.9-6.6
				l-6.9,6.6l-6.9-6.6l-6.9,6.6l-6.9-6.6l-6.9,6.6l-6.9-6.6l-6.9,6.6L193-40.8z M383.1-26.1v-17.3L433.7-94l0.2-0.2h17.4L383.1-26.1
				z M381.3-1.7L335.4-47l45.8-45.4V-1.7z M144-0.6c-25.6,0-46.5-20.9-46.5-46.5s20.9-46.5,46.5-46.5s46.5,20.9,46.5,46.5
				S169.6-0.6,144-0.6z M191-94.2v39.6c-3.2-20.3-19.3-36.4-39.6-39.6H191z M204.8-65.6l-6.9,6.6l-4.9-4.7l-0.8,0.8v-16.3l5.7,5.4
				l6.9-6.6l6.9,6.6l6.9-6.6l6.9,6.6l6.9-6.6l6.9,6.6l6.9-6.6l6.9,6.6l6.9-6.6l6.9,6.6l6.9-6.6l6.9,6.6l5.4-5.2v15.7l-0.5-0.6
				L281-59l-6.9-6.6l-6.9,6.6l-6.9-6.6l-6.9,6.6l-6.9-6.6l-6.9,6.6l-6.9-6.6l-6.9,6.6l-6.9-6.6l-6.9,6.6L204.8-65.6z M286.4-94.2
				v8.3l-0.5-0.6l-4.9,4.7l-6.9-6.6l-6.9,6.6l-6.9-6.6l-6.9,6.6l-6.9-6.6l-6.9,6.6l-6.9-6.6l-6.9,6.6l-6.9-6.6l-6.9,6.6l-6.9-6.6
				l-6.9,6.6l-4.9-4.7l-0.8,0.8v-8.6H286.4z M334.2-94.2C334.2-94.2,334.2-94.2,334.2-94.2l-46.6,46.1v-46.1H334.2z M334-92.3v90.6
				L288.2-47L334-92.3z M381.5-94.2C381.5-94.2,381.4-94.2,381.5-94.2l-46.3,45.8v-45.4c0-0.2-0.1-0.3-0.3-0.5H381.5z M416.5-94.2
				l-33.4,33.4v-17.3L399-94h-15.9v-0.2H416.5z M443.7,0l33.5-33.5v17.3L477-16l-16,16L443.7,0z M409,0l68-68l0.2-0.2v17.3l-0.2,0.2
				L426.4,0L409,0z M383.1,0v-8.8l85.5-85.4h8.7v8.6l-0.2,0.2L391.7,0H383.1z M335.1,0c0.1-0.1,0.1-0.2,0.1-0.3v-45.2L381.3,0
				L335.1,0z M287.7,0v-0.2h-0.1v-45.6L334.1,0L287.7,0z M253.3-28.1l6.9-6.6l6.9,6.6l6.9-6.6l6.9,6.6l5.4-5.2v15.7l-0.5-0.6
				l-4.9,4.7L274-20l-6.9,6.6l-6.9-6.6l-6.9,6.6l-6.9-6.6l-6.9,6.6l-6.9-6.6l-6.9,6.6l-6.9-6.6l-6.9,6.6l-6.9-6.6l-6.9,6.6L193-18
				l-0.8,0.8v-16.3l5.7,5.4l6.9-6.6l6.9,6.6l6.9-6.6l6.9,6.6l6.9-6.6l6.9,6.6l6.9-6.6L253.3-28.1z M253.3-5.3l6.9-6.6l6.9,6.6
				l6.9-6.6l6.9,6.6l5.4-5.2v10.2h-94.2v-10.4l5.7,5.4l6.9-6.6l6.9,6.6l6.9-6.6l6.9,6.6l6.9-6.6l6.9,6.6l6.9-6.6L253.3-5.3z
				 M151.4,0c20.3-3.2,36.4-19.3,39.6-39.6V0L151.4,0z M96.9,0v-39.6c3.2,20.3,19.3,36.4,39.6,39.6L96.9,0z M2.3,0l29.1-29.1h35.1
				v-35.1l29.1-29.1V0l-47,0l-0.1-0.1L48.5,0L2.3,0z M95.7,96.5v94.1H1.5l0-94.1h47l0.1,0.1l0.1-0.1H95.7z M262.6,190.3h-21.4
				l21.4-21.4V190.3z M286.4,168.9v21.4H265L286.4,168.9z M238.7,190.3h-21.4l21.4-21.4V190.3z M214.9,190.3h-21.4l21.4-21.4V190.3z
				 M191,189.9l-46.3-46.3L191,97.2V189.9z M381.8,143.5L381.8,143.5c0,26-21.1,47.1-47.1,47.1c-13.1,0-24.9-5.4-33.4-14l15.9-15.3
				c9.6,9.5,25.2,9.6,34.9,0.2c5.1-4.9,7.6-11.4,7.6-18c0-5.7-2-11.5-5.9-16.1l15.9-15.4C377.2,120.4,381.8,131.4,381.8,143.5z
				 M346,96.6h35.8V133C377.8,115,363.8,100.9,346,96.6z M351.3,160.6c-9.5,9.1-24.6,8.9-33.7-0.6c-4.5-4.6-6.7-10.6-6.7-16.6
				c0-6.2,2.4-12.5,7.3-17.1c9.5-9.1,24.6-8.9,33.7,0.6C361,136.4,360.7,151.5,351.3,160.6z M300.5,175.8
				c-7.9-8.4-12.8-19.8-12.8-32.2v0c0-24.7,19.2-45,43.4-46.9h7.4c12,0.9,22.7,6.3,30.5,14.6L353,126.5c-0.1-0.1-0.2-0.3-0.3-0.4
				c-9.6-9.9-25.5-10.2-35.4-0.6c-9.8,9.4-10.2,25-1,34.9L300.5,175.8z M214.9,119.2h-21.8l21.8-21.8V119.2z M238.7,97.4v21.8h-21.8
				L238.7,97.4z M262.6,97.4v21.8h-21.8L262.6,97.4z M286.4,97.4v21.8h-21.8L286.4,97.4z M287.7,96.6h35.8
				c-17.8,4.3-31.8,18.4-35.8,36.4V96.6z M286.4,121.2v21.8h-21.8L286.4,121.2z M216.9,143.1l21.8-21.8v21.8H216.9z M193.1,143.1
				l21.8-21.8v21.8H193.1z M262.6,121.2v21.8h-21.8L262.6,121.2z M262.6,166.9h-21.8l21.8-21.8V166.9z M286.4,145.1v21.8h-21.8
				L286.4,145.1z M238.7,166.9h-21.8l21.8-21.8V166.9z M214.9,166.9h-21.8l21.8-21.8V166.9z M143.1,143.6l-46.2,46.2V97.4
				L143.1,143.6z M1.5,49.5l45.8,45.8H1.5V49.5z M48.6,1.6l46.7,46.7L48.6,94.9L1.9,48.3L48.6,1.6z M95.7,49.5v45.8H49.9L95.7,49.5z
				 M47.4,1.2L1.5,47V1.2H47.4z M95.7,1.2V47L49.8,1.2H95.7z M142.8,2.9v44.2H98.6L142.8,2.9z M191,1.2v45.9h-45.9h0L191,1.2
				L191,1.2z M286.5,1.2v93.9h-94.1V1.2H286.5z M429.5,71.8c0,12.6-10.3,22.9-22.9,22.9c-12.6,0-22.9-10.3-22.9-22.9
				c0-12.6,10.3-22.9,22.9-22.9c0,0,0,0,0,0s0,0,0,0C419.3,48.9,429.5,59.2,429.5,71.8z M411.9,48.3c9.2-2,16.4-9.3,18.3-18.4
				c2,9.2,9.2,16.4,18.3,18.4c-9.2,2-16.4,9.3-18.3,18.4C428.2,57.6,421,50.3,411.9,48.3z M383.1,66.6V30c2,9.1,9.2,16.2,18.3,18.3
				C392.3,50.3,385.1,57.5,383.1,66.6z M383.7,24.8c0-7.4,3.6-14,9-18.2c3.9-3,8.7-4.7,13.9-4.7c2.7,0,5.2,0.5,7.6,1.3
				c8.9,3.1,15.3,11.6,15.3,21.6c0,12.6-10.3,22.9-22.9,22.9c0,0,0,0,0,0s0,0,0,0C394,47.7,383.7,37.4,383.7,24.8z M414.2,1.9
				c-0.8-0.3-1.6-0.5-2.4-0.7h2.4h10.9h17.4h6.1c-9.2,2-16.4,9.3-18.4,18.5C428.4,11.3,422.2,4.6,414.2,1.9z M383.1,19.5V1.2h6.5
				h0.9l10.5,0.1c-3.8,0.9-7.2,2.7-10.1,5.2C387,9.9,384.2,14.4,383.1,19.5z M287.7,85.2V1.2h83.8C327.5,6.1,292.4,41.1,287.7,85.2z
				 M381.2,1.8c-0.3,51.1-41.8,92.6-92.9,92.9C288.6,43.7,330.2,2.2,381.2,1.8z M477.3,19.5c-2-9.1-9.2-16.3-18.3-18.3h0.9l-0.1,0.1
				H477V1.2h0.2V19.5z M476.7,24.8c0,12.6-10.3,22.9-22.9,22.9c0,0,0,0,0,0s0,0,0,0c-12.6,0-22.9-10.3-22.9-22.9
				c0-12.6,10.3-22.9,22.9-22.9C466.4,1.8,476.7,12.1,476.7,24.8z M477.3,66.6c-2-9.1-9.2-16.2-18.3-18.3c9.1-2,16.2-9.2,18.3-18.3
				V66.6z M476.7,71.8c0,12.6-10.3,22.9-22.9,22.9c-12.6,0-22.9-10.3-22.9-22.9c0-12.6,10.3-22.9,22.9-22.9c0,0,0,0,0,0s0,0,0,0
				C466.4,48.9,476.7,59.2,476.7,71.8z M459,95.3c9.1-2,16.2-9.2,18.3-18.3v18.3H459z M411.9,95.3c9.2-2,16.4-9.3,18.3-18.4
				c2,9.2,9.2,16.4,18.3,18.4H411.9z M383.1,95.3V77.1c2,9.1,9.2,16.2,18.3,18.3H383.1z M298.4,95.3c43.8-4.9,78.6-39.8,83.5-83.6
				v83.6h-44.3c-0.9-0.1-1.9-0.1-2.8-0.1c-0.9,0-1.9,0-2.8,0.1H298.4z M143.4,95.3L191,47.7v47.6H143.4z M96.9,95.3L96.9,95.3
				l45.9-45.9v45.9H96.9z M143.9,142.7L97.7,96.5h92.4L143.9,142.7z M383.1,190.6v-94h94.2v94H383.1z M344.9,190.7
				c18.3-3.9,32.8-18.3,36.9-36.6v36.5v0.1H344.9z M287.8,190.7v-0.4h-0.2v-36.2c4.1,18.3,18.6,32.7,36.9,36.6H287.8z M97.7,190.7
				l46.3-46.3l46.3,46.3H97.7z M11.8,191.8l-5,5.3l6.6,6.9l-6.6,6.9l6.6,6.9l-6.6,6.9l6.6,6.9l-6.6,6.9l6.6,6.9l-6.6,6.9l6.6,6.9
				l-6.6,6.9l6.6,6.9l-6.6,6.9l5.6,5.8H1.5v-94.2H11.8z M34.6,191.8l-5,5.3l6.6,6.9l-6.6,6.9l6.6,6.9l-6.6,6.9l6.6,6.9l-6.6,6.9
				l6.6,6.9l-6.6,6.9l6.6,6.9l-6.6,6.9l6.6,6.9l-6.6,6.9l5.6,5.8H18.6l1-1l-4.7-4.9l6.6-6.9l-6.6-6.9l6.6-6.9l-6.6-6.9l6.6-6.9
				l-6.6-6.9l6.6-6.9l-6.6-6.9l6.6-6.9l-6.6-6.9l6.6-6.9l-6.6-6.9l4.7-4.9l-0.4-0.4H34.6z M57.4,191.8l-5,5.3L59,204l-6.6,6.9
				l6.6,6.9l-6.6,6.9l6.6,6.9l-6.6,6.9l6.6,6.9l-6.6,6.9l6.6,6.9l-6.6,6.9l6.6,6.9l-6.6,6.9L58,286H41.4l1-1l-4.7-4.9l6.6-6.9
				l-6.6-6.9l6.6-6.9l-6.6-6.9l6.6-6.9l-6.6-6.9l6.6-6.9l-6.6-6.9l6.6-6.9l-6.6-6.9l6.6-6.9l-6.6-6.9l4.7-4.9l-0.4-0.4H57.4z
				 M80.2,191.8l-5,5.3l6.6,6.9l-6.6,6.9l6.6,6.9l-6.6,6.9l6.6,6.9l-6.6,6.9l6.6,6.9l-6.6,6.9l6.6,6.9l-6.6,6.9l6.6,6.9l-6.6,6.9
				l5.6,5.8H64.2l1-1l-4.7-4.9l6.6-6.9l-6.6-6.9l6.6-6.9l-6.6-6.9l6.6-6.9l-6.6-6.9l6.6-6.9l-6.6-6.9l6.6-6.9l-6.6-6.9l6.6-6.9
				l-6.6-6.9l4.7-4.9l-0.4-0.4H80.2z M95.7,286H87l1-1l-4.7-4.9l6.6-6.9l-6.6-6.9l6.6-6.9l-6.6-6.9l6.6-6.9l-6.6-6.9l6.6-6.9
				l-6.6-6.9l6.6-6.9l-6.6-6.9l6.6-6.9l-6.6-6.9l4.7-4.9l-0.4-0.4h8.1V286z M321.4,271.6h-0.5h-18.6V253v-0.5l-0.3-0.3L288.8,239
				l13.2-13.2l0.3-0.3V225v-18.6h18.6h0.5l0.3-0.3l13.2-13.2l13.2,13.2l0.3,0.3h0.5h18.6V225v0.5l0.3,0.3L381,239l-13.2,13.2
				l-0.3,0.3v0.5v18.6h-18.6h-0.5L348,272l-13.2,13.2L321.7,272L321.4,271.6z M287.8,191.9h46.4l-13.3,13.3h-19.8V225l-13.3,13.3
				V191.9z M286.4,243.6c-2.5,23.7-22.6,42.2-46.9,42.2c-26,0-47.2-21.2-47.2-47.2v-46.6h94.2V243.6z M335.5,191.9h46.3v46.3
				L368.6,225v-19.8h-19.8L335.5,191.9z M383.1,191.9h93l-26.3,26.3l0.6,0.6c-5.2-5.1-12.3-8.3-20.2-8.3
				c-15.8,0-28.6,12.8-28.6,28.6c0,7.8,3.1,14.9,8.2,20l-0.4-0.4L383.1,285V191.9z M402.8,239.1c0-15.1,12.3-27.4,27.4-27.4
				c15.1,0,27.4,12.3,27.4,27.4c0,15.1-12.3,27.4-27.4,27.4C415.1,266.5,402.8,254.2,402.8,239.1z M383.8,285.9l26.4-26.4l0,0
				c5.2,5.1,12.2,8.2,20,8.2c15.8,0,28.6-12.8,28.6-28.6c0-7.9-3.2-15-8.3-20.2l0.2,0.2l26.5-26.5v93.3H383.8z M335.5,286.1
				l13.3-13.3h19.8V253l13.2-13.2v46.3H335.5z M287.7,286.1v-43.5c0.1-1,0.1-1.9,0.2-2.9l13.3,13.3v19.8h19.8l13.3,13.3H287.7z
				 M248.2,286.1c18.7-3.4,33.6-17.6,38.2-35.8v35.8H248.2z M192.2,286.1v-37c4.2,18.8,19.4,33.5,38.4,37H192.2z M96.9,286.1v-94.3
				H191v94.3h-46.4l0-0.2h-1.2l0,0.2H96.9z M95.7,287.3v46.4l-0.5,0.4l0.4,0.4v0.6h0v45.5L2.8,287.3H95.7z M239.4,288
				c25.6,0,46.5,20.9,46.5,46.5c0,25.6-20.9,46.5-46.5,46.5c-25.6,0-46.5-20.9-46.5-46.5C192.9,308.8,213.8,288,239.4,288z
				 M97.1,334l46.3-44.8l0,44.8H97.1z M143.4,287.3l0,0.3l-46.6,45v-45.2H143.4z M191,287.3V334h-46.4l0-46.7H191z M232.3,287.3
				c-20.8,3.1-37.2,19.7-40.1,40.7v-40.7H232.3z M286.4,287.3v38.9c-3.5-20.1-19.6-35.8-39.8-38.9H286.4z M405,287.3l-21.9,21.9
				v-21.9H405z M452.6,287.3l-21.8,21.9v-21.9H452.6z M454.6,309.9v-21.8l21.8,21.8H454.6z M407,309.9v-21.8l21.8,21.8H407z
				 M455.4,333.8l21.8-21.9v21.9H455.4z M453.4,333l-21.8-21.8h21.8V333z M407.8,333.8l21.8-21.9v21.9H407.8z M405.8,333l-21.8-21.8
				h21.8V333z M454.6,357.6v-21.8l21.8,21.8H454.6z M430.8,356.8V335h21.8L430.8,356.8z M407,357.6v-21.8l21.8,21.8H407z
				 M383.1,356.9V335H405L383.1,356.9z M381.8,381.5h-94.2v-94.2h94.2V381.5z M384.1,358.8h21.8v21.8L384.1,358.8z M453.4,358.8
				v21.8l-21.8-21.8H453.4z M455.4,381.5l21.8-21.9v21.9H455.4z M407.8,381.5l21.8-21.9v21.9H407.8z M247.2,381.5
				c19.9-3.3,35.7-18.9,39.2-38.8v38.8H247.2z M192.2,381.5v-40.6c2.8,20.7,18.9,37.2,39.5,40.6H192.2z M146.3,381.5l44.7-44.7v44.7
				H146.3z M144.6,381.5l0-46.3H191v0L144.6,381.5L144.6,381.5z M96.9,381.5v-46.3h46.6l0,46.3H96.9z M1.5,381.5v-93.8l93.3,93.8
				H1.5z"/>
		</g>
	</g>
</g>
</svg>
