<?xml version="1.0" encoding="utf-8"?>
<!-- Generator: Adobe Illustrator 25.2.0, SVG Export Plug-In . SVG Version: 6.00 Build 0)  -->
<svg version="1.1" id="Layer_1" xmlns="http://www.w3.org/2000/svg" xmlns:xlink="http://www.w3.org/1999/xlink" x="0px" y="0px"
	 viewBox="0 0 478.1 192" style="enable-background:new 0 0 478.1 192;" xml:space="preserve">
<style type="text/css">
	.st0{clip-path:url(#SVGID_2_);}
	.st1{fill:none;}
	.st2{fill:#CBB7FF;}
</style>
<g>
	<defs>
		<rect id="SVGID_1_" width="478.1" height="192"/>
	</defs>
	<clipPath id="SVGID_2_">
		<use xlink:href="#SVGID_1_"  style="overflow:visible;"/>
	</clipPath>
	<g class="st0">
		<g>
			<polygon class="st1" points="216.5,-119.2 238.4,-141 238.4,-119.2 			"/>
			<polygon class="st1" points="192.7,-119.2 214.5,-141 214.5,-119.2 			"/>
			<polygon class="st1" points="240.4,-119.2 262.2,-141 262.2,-119.2 			"/>
			<polygon class="st1" points="264.2,-119.2 286,-141 286,-119.2 			"/>
			<polygon class="st1" points="96.5,-188.8 142.7,-142.5 96.5,-96.3 			"/>
			<polygon class="st1" points="1.2,-190.8 1.2,-236.6 47,-190.8 			"/>
			<polygon class="st1" points="95.3,-190.8 49.5,-190.8 95.3,-236.6 			"/>
			<polygon class="st1" points="216.5,-166.9 238.4,-188.7 238.4,-166.9 			"/>
			<polygon class="st1" points="1.2,-284.9 47,-284.9 1.2,-239.1 			"/>
			<path class="st1" d="M323.2-189.5c-17.8,4.3-31.8,18.4-35.8,36.4v-36.4H323.2z"/>
			<polygon class="st1" points="262.2,-143.1 240.4,-143.1 262.2,-164.9 			"/>
			<polygon class="st1" points="262.2,-166.9 240.4,-166.9 262.2,-188.7 			"/>
			<polygon class="st1" points="286,-166.9 264.2,-166.9 286,-188.7 			"/>
			<polygon class="st1" points="286,-143.1 264.2,-143.1 286,-164.9 			"/>
			<polygon class="st1" points="214.5,-143.1 192.7,-143.1 214.5,-164.9 			"/>
			<polygon class="st1" points="238.4,-143.1 216.5,-143.1 238.4,-164.9 			"/>
			<path class="st1" d="M392.4-279.5c3.9-3,8.7-4.7,13.9-4.7c2.7,0,5.2,0.5,7.6,1.3c8.9,3.1,15.3,11.6,15.3,21.6
				c0,12.6-10.3,22.9-22.9,22.9c0,0,0,0,0,0c0,0,0,0,0,0c-12.6,0-22.9-10.3-22.9-22.9C383.3-268.8,386.9-275.3,392.4-279.5z"/>
			<path class="st1" d="M288-191.3c0.3-51.1,41.8-92.6,92.9-92.9C380.6-233.2,339.1-191.7,288-191.3z"/>
			<path class="st1" d="M458.6-284.9h0.9l-0.1,0.1h17.4v-0.1h0.2v18.3C474.9-275.7,467.7-282.9,458.6-284.9z"/>
			<path class="st1" d="M287.4-200.9v-83.9h83.8C327.1-280.1,292.1-245,287.4-200.9z"/>
			<path class="st1" d="M453.4-238.4C453.4-238.4,453.4-238.4,453.4-238.4C453.4-238.4,453.4-238.4,453.4-238.4
				c-12.7,0-23-10.3-23-22.9c0-12.6,10.3-22.9,22.9-22.9c12.6,0,22.9,10.3,22.9,22.9C476.3-248.7,466.1-238.4,453.4-238.4z"/>
			<path class="st1" d="M476.9-209v18.3h-18.3C467.7-192.8,474.9-199.9,476.9-209z"/>
			<polygon class="st1" points="49.5,-284.9 95.3,-284.9 95.3,-239.1 			"/>
			<path class="st1" d="M453.4-191.4c-12.6,0-22.9-10.3-22.9-22.9c0-12.6,10.3-22.9,22.9-22.9c0,0,0,0,0,0s0,0,0,0
				c12.6,0,22.9,10.3,22.9,22.9C476.3-201.6,466.1-191.4,453.4-191.4z"/>
			<path class="st1" d="M458.7-237.8c9.1-2,16.2-9.2,18.3-18.3v36.5C474.9-228.6,467.7-235.8,458.7-237.8z"/>
			<path class="st1" d="M389.2-284.9h0.9l10.5,0.1c-3.8,0.9-7.2,2.7-10.1,5.2c-3.8,3.3-6.6,7.8-7.7,12.9v-18.3H389.2z"/>
			<polygon class="st1" points="144.8,-239 144.8,-239 190.7,-284.9 190.7,-284.9 190.7,-239 			"/>
			<path class="st1" d="M406.3-191.4c-12.6,0-22.9-10.3-22.9-22.9c0-12.6,10.3-22.9,22.9-22.9c0,0,0,0,0,0c0,0,0,0,0,0
				c12.6,0,22.9,10.3,22.9,22.9C429.2-201.6,418.9-191.4,406.3-191.4z"/>
			<path class="st1" d="M413.9-284.2c-0.8-0.3-1.6-0.5-2.4-0.7h2.4h10.9h17.4h6.1c-9.2,2-16.4,9.3-18.4,18.5
				C428-274.8,421.9-281.5,413.9-284.2z"/>
			<polygon class="st1" points="142.5,-239 98.2,-239 142.5,-283.2 			"/>
			<path class="st1" d="M286.1-191v-93.9H192v93.9H286.1z M216.4-247.3c-7.5,0-13.6-6.2-13.6-13.7s6.1-13.7,13.6-13.7
				S230-268.6,230-261S223.9-247.3,216.4-247.3z M261.6-201.5c-7.5,0-13.6-6.2-13.6-13.7c0-7.6,6.1-13.7,13.6-13.7
				c7.5,0,13.6,6.2,13.6,13.7C275.2-207.7,269.1-201.5,261.6-201.5z"/>
			<polygon class="st1" points="192.7,-166.9 214.5,-188.7 214.5,-166.9 			"/>
			<ellipse class="st1" cx="429.8" cy="-237.8" rx="18.3" ry="18.4"/>
			<path class="st1" d="M401-237.8c-9.1,2-16.2,9.2-18.3,18.3v-36.5C384.8-247,391.9-239.8,401-237.8z"/>
			<path class="st1" d="M190.7-325.7v39.6h-39.6C171.4-289.3,187.5-305.4,190.7-325.7z"/>
			<path class="st1" d="M287.3-142.6c0-24.7,19.2-45,43.4-46.9h7.4c12,0.9,22.7,6.3,30.5,14.6l-15.9,15.3c-0.1-0.1-0.2-0.3-0.3-0.4
				c-9.6-9.9-25.5-10.2-35.4-0.6c-9.8,9.4-10.2,25-1,34.9l-15.9,15.3C292.2-118.8,287.3-130.1,287.3-142.6L287.3-142.6z"/>
			<polygon class="st1" points="468.2,-380.3 476.9,-380.3 476.9,-371.6 476.7,-371.4 391.3,-286.1 382.8,-286.1 382.8,-294.9 			
				"/>
			<path class="st1" d="M334.8-334.5v-45.4c0-0.2-0.1-0.3-0.3-0.5h46.6c0,0,0,0-0.1,0L334.8-334.5z"/>
			<polygon class="st1" points="285.5,-372.6 280.6,-367.9 273.7,-374.5 266.8,-367.9 259.9,-374.5 252.9,-367.9 246,-374.5 
				239.1,-367.9 232.2,-374.5 225.3,-367.9 218.3,-374.5 211.4,-367.9 204.5,-374.5 197.6,-367.9 192.7,-372.6 191.9,-371.7 
				191.9,-380.3 286,-380.3 286,-372 			"/>
			<polygon class="st1" points="382.8,-364.2 398.6,-380.1 382.8,-380.1 382.8,-380.3 416.2,-380.3 382.8,-346.9 			"/>
			<polygon class="st1" points="476.9,-354.3 476.9,-337 476.7,-336.7 426,-286.1 408.7,-286.1 476.7,-354.1 			"/>
			<polygon class="st1" points="476.9,-302.3 476.7,-302.1 460.7,-286.1 443.4,-286.1 476.9,-319.6 			"/>
			<polygon class="st1" points="192.7,-349.8 191.9,-348.9 191.9,-365.2 197.6,-359.8 204.5,-366.4 211.4,-359.8 218.3,-366.4 
				225.3,-359.8 232.2,-366.4 239.1,-359.8 246,-366.4 252.9,-359.8 259.9,-366.4 266.8,-359.8 273.7,-366.4 280.6,-359.8 
				286,-364.9 286,-349.2 285.5,-349.8 280.6,-345.1 273.7,-351.7 266.8,-345.1 259.9,-351.7 252.9,-345.1 246,-351.7 239.1,-345.1 
				232.2,-351.7 225.3,-345.1 218.3,-351.7 211.4,-345.1 204.5,-351.7 197.6,-345.1 			"/>
			<path class="st1" d="M287.3-334.2v-46.1h46.6c0,0,0,0-0.1,0L287.3-334.2z"/>
			<path class="st1" d="M96.5-340.7v-39.6h39.6C115.8-377.1,99.7-361,96.5-340.7z"/>
			<polygon class="st1" points="30.4,-351.1 30.4,-316.1 1.2,-286.9 1.2,-380.3 94.5,-380.3 65.3,-351.1 			"/>
			<polygon class="st1" points="191.9,-342.4 197.6,-337 204.5,-343.6 211.4,-337 218.3,-343.6 225.3,-337 232.2,-343.6 239.1,-337 
				246,-343.6 252.9,-337 259.9,-343.6 266.8,-337 273.7,-343.6 280.6,-337 286,-342.1 286,-326.4 285.5,-327 280.6,-322.3 
				273.7,-328.9 266.8,-322.3 259.9,-328.9 252.9,-322.3 246,-328.9 239.1,-322.3 232.2,-328.9 225.3,-322.3 218.3,-328.9 
				211.4,-322.3 204.5,-328.9 197.6,-322.3 192.7,-327 191.9,-326.1 			"/>
			<polygon class="st1" points="433.3,-380.1 433.5,-380.3 450.9,-380.3 382.8,-312.2 382.8,-329.6 			"/>
			<path class="st1" d="M151.1-380.3h39.6v39.6C187.5-361,171.4-377.1,151.1-380.3z"/>
			<circle class="st1" cx="143.6" cy="-333.2" r="46.5"/>
			<polygon class="st1" points="335.1,-333.1 380.9,-378.4 380.9,-287.9 			"/>
			<polygon class="st1" points="333.7,-287.9 287.8,-333.1 333.7,-378.4 			"/>
			<polygon class="st1" points="193.1,-95.8 214.5,-117.2 214.5,-95.8 			"/>
			<polygon class="st1" points="190.7,-188.9 190.7,-96.2 144.4,-142.5 			"/>
			<polygon class="st1" points="216.9,-95.8 238.4,-117.2 238.4,-95.8 			"/>
			<polygon class="st1" points="264.6,-95.8 286,-117.2 286,-95.8 			"/>
			<path class="st1" d="M350.9-125.5c-9.5,9.1-24.6,8.9-33.7-0.6c-4.5-4.6-6.7-10.6-6.7-16.6c0-6.2,2.4-12.5,7.3-17.1
				c9.5-9.1,24.6-8.9,33.7,0.6C360.6-149.7,360.4-134.6,350.9-125.5z"/>
			<polygon class="st1" points="240.8,-95.8 262.2,-117.2 262.2,-95.8 			"/>
			<path class="st1" d="M381.5-142.5c0,25.9-21.1,47-47.1,47c-13.1,0-24.9-5.4-33.4-14l15.9-15.3c9.6,9.5,25.2,9.6,34.9,0.2
				c5.1-4.9,7.6-11.4,7.6-18c0-5.7-2-11.5-5.9-16.1l15.9-15.4C376.9-165.7,381.5-154.7,381.5-142.5L381.5-142.5z"/>
			<path class="st1" d="M345.6-189.5h35.8v36.4C377.5-171.1,363.5-185.2,345.6-189.5z"/>
			<polygon class="st1" points="66.2,-315.2 66.2,-350.3 95.3,-379.5 95.3,-286.1 48.3,-286.1 48.3,-286.2 48.2,-286.1 2,-286.1 
				31.1,-315.2 			"/>
			<polygon class="st1" points="266.8,-314.2 273.7,-320.8 280.6,-314.2 286,-319.3 286,-303.6 285.5,-304.2 280.6,-299.5 
				273.7,-306.1 266.8,-299.5 259.9,-306.1 252.9,-299.5 246,-306.1 239.1,-299.5 232.2,-306.1 225.3,-299.5 218.3,-306.1 
				211.4,-299.5 204.5,-306.1 197.6,-299.5 192.7,-304.2 191.9,-303.3 191.9,-319.6 197.6,-314.2 204.5,-320.8 211.4,-314.2 
				218.3,-320.8 225.3,-314.2 232.2,-320.8 239.1,-314.2 246,-320.8 252.9,-314.2 259.9,-320.8 			"/>
			<polygon class="st1" points="287.3,-286.4 287.3,-331.9 333.7,-286.1 287.4,-286.1 287.4,-286.4 			"/>
			<polygon class="st1" points="266.8,-291.4 273.7,-298 280.6,-291.4 286,-296.5 286,-286.4 191.9,-286.4 191.9,-296.8 
				197.6,-291.4 204.5,-298 211.4,-291.4 218.3,-298 225.3,-291.4 232.2,-298 239.1,-291.4 246,-298 252.9,-291.4 259.9,-298 			"/>
			<path class="st1" d="M334.8-331.7l46.2,45.5h-46.3c0.1-0.1,0.1-0.2,0.1-0.3V-331.7z"/>
			<path class="st1" d="M429.8-209.2c2,9.2,9.2,16.4,18.3,18.4h-36.6C420.7-192.8,427.9-200,429.8-209.2z"/>
			<polygon class="st1" points="1.2,-95.5 1.2,-189.6 48.2,-189.6 48.3,-189.5 48.3,-189.6 95.3,-189.6 95.3,-95.5 			"/>
			<path class="st1" d="M136.1-286.1H96.5v-39.6C99.7-305.4,115.8-289.3,136.1-286.1z"/>
			
				<rect x="15.3" y="-270.8" transform="matrix(0.7071 -0.7071 0.7071 0.7071 182.3206 -35.539)" class="st1" width="66" height="66"/>
			<polygon class="st1" points="428.4,23.8 406.7,23.8 406.7,2 			"/>
			<polygon class="st1" points="476.1,23.8 454.3,23.8 454.3,2 			"/>
			<polygon class="st1" points="476.9,47.7 455.1,47.7 476.9,25.8 			"/>
			<polygon class="st1" points="430.5,1.2 452.3,1.2 430.5,23.1 			"/>
			<polygon class="st1" points="383.7,25.1 405.5,25.1 405.5,46.9 			"/>
			<polygon class="st1" points="382.8,1.2 404.7,1.2 382.8,23.1 			"/>
			<polygon class="st1" points="431.3,25.1 453.1,25.1 453.1,46.9 			"/>
			<polygon class="st1" points="429.3,47.7 407.5,47.7 429.3,25.8 			"/>
			<polygon class="st1" points="143.1,47.9 96.8,47.9 143.1,3.1 			"/>
			
				<ellipse transform="matrix(9.853783e-02 -0.9951 0.9951 9.853783e-02 167.4359 281.5133)" class="st1" cx="239.1" cy="48.3" rx="46.5" ry="46.5"/>
			<polygon class="st1" points="94.9,48 95.3,48.4 95.3,49 95.3,49 95.3,94.5 2.5,1.2 95.3,1.2 95.3,47.6 			"/>
			<path class="st1" d="M96.5-94.2V0l46.6,0l0-0.2h1.2l0,0.2l46.4,0v-94.3H96.5z M135.4-77c4.3,4.3,5.4,10.5,3.3,15.8
				c5.3-2.1,11.5-1,15.8,3.3c4.3,4.3,5.4,10.5,3.3,15.8c5.3-2.1,11.5-1,15.8,3.3c5.8,5.8,5.8,15.1,0,20.9c-5.8,5.8-15.1,5.8-20.9,0
				c-4.3-4.3-5.4-10.5-3.3-15.8c-5.3,2.1-11.5,1-15.8-3.3c-4.3-4.3-5.4-10.5-3.3-15.8c-5.3,2.1-11.5,1-15.8-3.3
				c-5.8-5.8-5.8-15.1,0-20.9C120.3-82.8,129.6-82.8,135.4-77z"/>
			<path class="st1" d="M246.3,1.2H286v38.9C282.5,20,266.5,4.2,246.3,1.2z"/>
			<polygon class="st1" points="476.1,71.5 454.3,71.5 454.3,49.7 			"/>
			<path class="st1" d="M191.9,41.9V1.2h40.1C211.1,4.3,194.7,20.9,191.9,41.9z"/>
			<polygon class="st1" points="96.5,46.4 96.5,1.2 143.1,1.2 143.1,1.5 			"/>
			<polygon class="st1" points="144.3,47.9 144.3,1.2 190.7,1.2 190.7,47.9 			"/>
			<polygon class="st1" points="94.5,95.4 1.2,95.4 1.2,1.6 			"/>
			<polygon class="st1" points="190.7,95.4 146,95.4 190.7,50.7 			"/>
			<polygon class="st1" points="190.7,49 190.7,49.1 144.3,95.4 144.3,95.4 144.3,49 			"/>
			<path class="st1" d="M286,56.6v38.8h-39.2C266.8,92.1,282.6,76.5,286,56.6z"/>
			<polygon class="st1" points="143.1,49 143.1,95.4 96.5,95.4 96.5,49 			"/>
			<path class="st1" d="M231.3,95.4h-39.5V54.8C194.7,75.5,210.8,92,231.3,95.4z"/>
			<path class="st1" d="M230.3,0l-38.4,0v-37C196.1-18.2,211.3-3.5,230.3,0z"/>
			<path class="st1" d="M401-190.8h-18.3V-209C384.8-199.9,391.9-192.8,401-190.8z"/>
			<polygon class="st1" points="431.3,72.7 453.1,72.7 453.1,94.5 			"/>
			<polygon class="st1" points="429.3,95.4 407.5,95.4 429.3,73.5 			"/>
			<polygon class="st1" points="382.8,48.9 404.7,48.9 382.8,70.8 			"/>
			<polygon class="st1" points="428.4,71.5 406.7,71.5 406.7,49.7 			"/>
			<path class="st1" d="M381.5,95.4V1.2h-94.2v94.2H381.5z M347.8,79.3l-7.4-21.3l-6.9,6.9l-7.3-21.2l-6.9,6.9l-9.6-27.8l27.8,9.7
				l-6.9,6.9l21.2,7.4l-6.9,6.9l21.2,7.4L347.8,79.3z"/>
			<polygon class="st1" points="476.9,95.4 455.1,95.4 476.9,73.5 			"/>
			<polygon class="st1" points="405.5,94.5 383.7,72.7 405.5,72.7 			"/>
			<polygon class="st1" points="430.5,48.9 452.3,48.9 430.5,70.7 			"/>
			<polygon class="st1" points="368.3,-13.3 368.3,-33.1 381.5,-46.3 381.5,0 335.2,0 348.5,-13.3 			"/>
			<polygon class="st1" points="189.9,-95.4 97.3,-95.4 143.6,-141.7 			"/>
			<polygon class="st1" points="13.1,-82.1 6.5,-75.2 13.1,-68.2 6.5,-61.3 13.1,-54.4 6.5,-47.5 13.1,-40.6 6.5,-33.6 13.1,-26.7 
				6.5,-19.8 13.1,-12.9 6.5,-6 12,-0.1 1.2,-0.1 1.2,-94.3 11.5,-94.3 6.5,-89 			"/>
			<polygon class="st1" points="58.7,-82.1 52.1,-75.2 58.7,-68.2 52.1,-61.3 58.7,-54.4 52.1,-47.5 58.7,-40.6 52.1,-33.6 
				58.7,-26.7 52.1,-19.8 58.7,-12.9 52.1,-6 57.6,-0.1 41.1,-0.1 42.1,-1.1 37.4,-6 44,-12.9 37.4,-19.8 44,-26.7 37.4,-33.6 
				44,-40.6 37.4,-47.5 44,-54.4 37.4,-61.3 44,-68.2 37.4,-75.2 44,-82.1 37.4,-89 42.1,-93.9 41.7,-94.3 57.1,-94.3 52.1,-89 			
				"/>
			<polygon class="st1" points="35.9,-82.1 29.3,-75.2 35.9,-68.2 29.3,-61.3 35.9,-54.4 29.3,-47.5 35.9,-40.6 29.3,-33.6 
				35.9,-26.7 29.3,-19.8 35.9,-12.9 29.3,-6 34.8,-0.1 18.3,-0.1 19.3,-1.1 14.6,-6 21.2,-12.9 14.6,-19.8 21.2,-26.7 14.6,-33.6 
				21.2,-40.6 14.6,-47.5 21.2,-54.4 14.6,-61.3 21.2,-68.2 14.6,-75.2 21.2,-82.1 14.6,-89 19.3,-93.9 18.9,-94.3 34.3,-94.3 
				29.3,-89 			"/>
			<path class="st1" d="M287.3-95.8V-132c4.1,18.3,18.6,32.7,36.9,36.6h-36.7v-0.4H287.3z"/>
			<path class="st1" d="M381.5-132v36.5v0.1h-36.9C362.9-99.4,377.4-113.8,381.5-132z"/>
			<polygon class="st1" points="142.5,-236.7 142.5,-190.8 96.5,-190.8 96.5,-190.8 			"/>
			<polygon class="st1" points="81.5,-82.1 74.9,-75.2 81.5,-68.2 74.9,-61.3 81.5,-54.4 74.9,-47.5 81.5,-40.6 74.9,-33.6 
				81.5,-26.7 74.9,-19.8 81.5,-12.9 74.9,-6 80.4,-0.1 63.9,-0.1 64.9,-1.1 60.2,-6 66.8,-12.9 60.2,-19.8 66.8,-26.7 60.2,-33.6 
				66.8,-40.6 60.2,-47.5 66.8,-54.4 60.2,-61.3 66.8,-68.2 60.2,-75.2 66.8,-82.1 60.2,-89 64.9,-93.9 64.5,-94.3 79.9,-94.3 
				74.9,-89 			"/>
			<polygon class="st1" points="190.7,-190.8 143,-190.8 190.7,-238.4 			"/>
			<path class="st1" d="M382.8-189.5v94h94.2v-94H382.8z M406.9-127.9c4.1,0,7.5,3.4,7.5,7.5c0,4.1-3.4,7.5-7.5,7.5
				c-4.1,0-7.5-3.4-7.5-7.5C399.4-124.5,402.7-127.9,406.9-127.9z M429.9-127.9c4.1,0,7.5,3.4,7.5,7.5c0,4.1-3.4,7.5-7.5,7.5
				c-4.1,0-7.5-3.4-7.5-7.5C422.4-124.5,425.8-127.9,429.9-127.9z M453-127.9c4.1,0,7.5,3.4,7.5,7.5c0,4.1-3.4,7.5-7.5,7.5
				c-4.1,0-7.5-3.4-7.5-7.5C445.5-124.5,448.8-127.9,453-127.9z M406.9-150.9c4.1,0,7.5,3.4,7.5,7.5c0,4.1-3.4,7.5-7.5,7.5
				c-4.1,0-7.5-3.4-7.5-7.5C399.4-147.6,402.7-150.9,406.9-150.9z M429.9-150.9c4.1,0,7.5,3.4,7.5,7.5c0,4.1-3.4,7.5-7.5,7.5
				c-4.1,0-7.5-3.4-7.5-7.5C422.4-147.6,425.8-150.9,429.9-150.9z M453-150.9c4.1,0,7.5,3.4,7.5,7.5c0,4.1-3.4,7.5-7.5,7.5
				c-4.1,0-7.5-3.4-7.5-7.5C445.5-147.6,448.8-150.9,453-150.9z M406.9-174c4.1,0,7.5,3.4,7.5,7.5c0,4.1-3.4,7.5-7.5,7.5
				c-4.1,0-7.5-3.4-7.5-7.5C399.4-170.6,402.7-174,406.9-174z M429.9-174c4.1,0,7.5,3.4,7.5,7.5c0,4.1-3.4,7.5-7.5,7.5
				c-4.1,0-7.5-3.4-7.5-7.5C422.4-170.6,425.8-174,429.9-174z M453-174c4.1,0,7.5,3.4,7.5,7.5c0,4.1-3.4,7.5-7.5,7.5
				c-4.1,0-7.5-3.4-7.5-7.5C445.5-170.6,448.8-174,453-174z"/>
			<path class="st1" d="M381.5-274.3v83.6h-44.3c-0.9-0.1-1.9-0.1-2.8-0.1c-0.9,0-1.9,0-2.8,0.1H298
				C341.8-195.7,376.6-230.6,381.5-274.3z"/>
			<path class="st1" d="M409.8-26.6c5.2,5.1,12.2,8.2,20,8.2c15.8,0,28.6-12.8,28.6-28.6c0-7.9-3.2-15-8.3-20.2l0.2,0.2l26.5-26.5
				v93.3h-93.3L409.8-26.6L409.8-26.6z"/>
			<path class="st1" d="M475.8-94.2l-26.3,26.3l0.6,0.6c-5.2-5.1-12.3-8.3-20.2-8.3c-15.8,0-28.6,12.8-28.6,28.6
				c0,7.8,3.1,14.9,8.2,20l-0.4-0.4L382.8-1.1v-93H475.8z"/>
			
				<ellipse transform="matrix(0.9239 -0.3827 0.3827 0.9239 50.706 160.9174)" class="st1" cx="429.8" cy="-47" rx="27.4" ry="27.4"/>
			<polygon class="st1" points="97.4,-189.6 189.8,-189.6 143.6,-143.4 			"/>
			<polygon class="st1" points="86.7,-0.1 87.7,-1.1 83,-6 89.6,-12.9 83,-19.8 89.6,-26.7 83,-33.6 89.6,-40.6 83,-47.5 
				89.6,-54.4 83,-61.3 89.6,-68.2 83,-75.2 89.6,-82.1 83,-89 87.7,-93.9 87.3,-94.3 95.3,-94.3 95.3,-0.1 			"/>
			<path class="st1" d="M286-35.8V0l-38.2,0C266.5-3.4,281.5-17.6,286-35.8z"/>
			<path class="st1" d="M287.5-46.4l13.3,13.3v19.8h19.8L333.9,0l-46.5,0v-43.5C287.4-44.4,287.4-45.4,287.5-46.4z"/>
			<polygon class="st1" points="333.9,-94.2 320.5,-80.8 300.8,-80.8 300.8,-61.1 287.5,-47.8 287.5,-94.2 			"/>
			<polygon class="st1" points="381.5,-94.2 381.5,-47.9 368.3,-61.1 368.3,-80.8 348.5,-80.8 335.2,-94.2 			"/>
			<polygon class="st1" points="301.9,-14.5 301.9,-33.1 301.9,-33.6 301.6,-33.9 288.4,-47.1 301.6,-60.2 301.9,-60.6 301.9,-61.1 
				301.9,-79.7 320.5,-79.7 321,-79.7 321.4,-80 334.5,-93.2 347.7,-80 348,-79.7 348.5,-79.7 367.1,-79.7 367.1,-61.1 367.1,-60.6 
				367.5,-60.2 380.6,-47.1 367.5,-33.9 367.1,-33.6 367.1,-33.1 367.1,-14.5 348.5,-14.5 348,-14.5 347.7,-14.1 334.5,-1 
				321.4,-14.1 321,-14.5 320.5,-14.5 			"/>
			<path class="st1" d="M239.1-0.4c-26,0-47.2-21.2-47.2-47.2v-46.6H286v51.7C283.5-18.8,263.4-0.4,239.1-0.4z"/>
			<path class="st2" d="M414.4-166.5c0,4.1-3.4,7.5-7.5,7.5c-4.1,0-7.5-3.4-7.5-7.5c0-4.1,3.4-7.5,7.5-7.5
				C411-174,414.4-170.6,414.4-166.5z"/>
			<path class="st2" d="M414.4-143.4c0,4.1-3.4,7.5-7.5,7.5c-4.1,0-7.5-3.4-7.5-7.5c0-4.1,3.4-7.5,7.5-7.5
				C411-150.9,414.4-147.6,414.4-143.4z"/>
			<path class="st2" d="M414.4-120.4c0,4.1-3.4,7.5-7.5,7.5c-4.1,0-7.5-3.4-7.5-7.5c0-4.1,3.4-7.5,7.5-7.5
				C411-127.9,414.4-124.5,414.4-120.4z"/>
			<path class="st2" d="M437.4-166.5c0,4.1-3.4,7.5-7.5,7.5c-4.1,0-7.5-3.4-7.5-7.5c0-4.1,3.4-7.5,7.5-7.5
				C434.1-174,437.4-170.6,437.4-166.5z"/>
			<path class="st2" d="M437.4-143.4c0,4.1-3.4,7.5-7.5,7.5c-4.1,0-7.5-3.4-7.5-7.5c0-4.1,3.4-7.5,7.5-7.5
				C434.1-150.9,437.4-147.6,437.4-143.4z"/>
			<path class="st2" d="M437.4-120.4c0,4.1-3.4,7.5-7.5,7.5c-4.1,0-7.5-3.4-7.5-7.5c0-4.1,3.4-7.5,7.5-7.5
				C434.1-127.9,437.4-124.5,437.4-120.4z"/>
			<path class="st2" d="M460.5-166.5c0,4.1-3.4,7.5-7.5,7.5c-4.1,0-7.5-3.4-7.5-7.5c0-4.1,3.4-7.5,7.5-7.5
				C457.1-174,460.5-170.6,460.5-166.5z"/>
			<path class="st2" d="M460.5-143.4c0,4.1-3.4,7.5-7.5,7.5c-4.1,0-7.5-3.4-7.5-7.5c0-4.1,3.4-7.5,7.5-7.5
				C457.1-150.9,460.5-147.6,460.5-143.4z"/>
			<path class="st2" d="M460.5-120.4c0,4.1-3.4,7.5-7.5,7.5c-4.1,0-7.5-3.4-7.5-7.5c0-4.1,3.4-7.5,7.5-7.5
				C457.1-127.9,460.5-124.5,460.5-120.4z"/>
			<polygon class="st2" points="333.5,65 326.1,43.8 319.2,50.7 309.6,22.9 337.4,32.6 330.5,39.5 351.6,46.9 344.7,53.8 
				365.9,61.2 347.8,79.3 340.4,58.1 			"/>
			<path class="st2" d="M248.1-215.2c0-7.6,6.1-13.7,13.6-13.7c7.5,0,13.6,6.2,13.6,13.7c0,7.6-6.1,13.7-13.6,13.7
				C254.1-201.5,248.1-207.7,248.1-215.2z"/>
			<path class="st2" d="M202.8-261c0-7.6,6.1-13.7,13.6-13.7S230-268.6,230-261s-6.1,13.7-13.6,13.7S202.8-253.5,202.8-261z"/>
			<path class="st2" d="M138.7-61.2c5.3-2.1,11.5-1,15.8,3.3c4.3,4.3,5.4,10.5,3.3,15.8c5.3-2.1,11.5-1,15.8,3.3
				c5.8,5.8,5.8,15.1,0,20.9c-5.8,5.8-15.1,5.8-20.9,0c-4.3-4.3-5.4-10.5-3.3-15.8c-5.3,2.1-11.5,1-15.8-3.3
				c-4.3-4.3-5.4-10.5-3.3-15.8c-5.3,2.1-11.5,1-15.8-3.3c-5.8-5.8-5.8-15.1,0-20.9c5.8-5.8,15.1-5.8,20.9,0
				C139.7-72.7,140.8-66.5,138.7-61.2z"/>
			<path class="st2" d="M144.1,97.3l0.7-0.7h45.9h1.2h95.3v0h94.4v0h0.7h23.8h23.8h23.8h24.4V72.1V48.3V24.5V1.2V0.6V0v-94.3v-1.1
				v-94.2v-1.2v-94.2v-1.1v-95.4h-95.4h-1.1h-94.4h-1.1h-94.3h-1.2H96.5h-1.2H0l0,95.3l0,1.2l0,47l-0.1,0.1l0.1,0.1l0,48.2h0l0,94.1
				l0,1.2L0,0v1l0,95.5h95.3h1.2h46.6l0,0.3h0.6L144.1,97.3z M94.5-380.3l-29.2,29.2h-35v35L1.2-286.9v-93.3H94.5z M136.1-380.3
				c-20.3,3.2-36.4,19.3-39.6,39.6v-39.6H136.1z M192.7-327l-0.8,0.8v-16.3l5.7,5.4l6.9-6.6l6.9,6.6l6.9-6.6l6.9,6.6l6.9-6.6
				l6.9,6.6l6.9-6.6l6.9,6.6l6.9-6.6l6.9,6.6l6.9-6.6l6.9,6.6l5.4-5.2v15.7l-0.5-0.6l-4.9,4.7l-6.9-6.6l-6.9,6.6l-6.9-6.6l-6.9,6.6
				l-6.9-6.6l-6.9,6.6l-6.9-6.6l-6.9,6.6l-6.9-6.6l-6.9,6.6l-6.9-6.6l-6.9,6.6L192.7-327z M382.8-312.2v-17.3l50.6-50.5l0.2-0.2
				h17.4L382.8-312.2z M380.9-287.9l-45.8-45.2l45.8-45.4V-287.9z M143.6-286.7c-25.6,0-46.5-20.9-46.5-46.5
				c0-25.6,20.9-46.5,46.5-46.5s46.5,20.9,46.5,46.5C190.1-307.6,169.2-286.7,143.6-286.7z M190.7-380.3v39.6
				c-3.2-20.3-19.3-36.4-39.6-39.6H190.7z M204.5-351.7l-6.9,6.6l-4.9-4.7l-0.8,0.8v-16.3l5.7,5.4l6.9-6.6l6.9,6.6l6.9-6.6l6.9,6.6
				l6.9-6.6l6.9,6.6l6.9-6.6l6.9,6.6l6.9-6.6l6.9,6.6l6.9-6.6l6.9,6.6l5.4-5.2v15.7l-0.5-0.6l-4.9,4.7l-6.9-6.6l-6.9,6.6l-6.9-6.6
				l-6.9,6.6l-6.9-6.6l-6.9,6.6l-6.9-6.6l-6.9,6.6l-6.9-6.6l-6.9,6.6L204.5-351.7z M286-380.3v8.3l-0.5-0.6l-4.9,4.7l-6.9-6.6
				l-6.9,6.6l-6.9-6.6l-6.9,6.6l-6.9-6.6l-6.9,6.6l-6.9-6.6l-6.9,6.6l-6.9-6.6l-6.9,6.6l-6.9-6.6l-6.9,6.6l-4.9-4.7l-0.8,0.8v-8.6
				H286z M333.9-380.3C333.9-380.3,333.9-380.3,333.9-380.3l-46.6,46.1v-46.1H333.9z M333.7-378.4v90.6l-45.8-45.2L333.7-378.4z
				 M381.1-380.3C381.1-380.3,381.1-380.3,381.1-380.3l-46.3,45.8v-45.4c0-0.2-0.1-0.3-0.3-0.5H381.1z M416.2-380.3l-33.4,33.4
				v-17.3l15.9-15.8h-15.9v-0.2H416.2z M443.4-286.1l33.5-33.5v17.3l-0.2,0.2l-16,16H443.4z M408.7-286.1l68-68l0.2-0.2v17.3
				l-0.2,0.2L426-286.1H408.7z M382.8-286.1v-8.8l85.5-85.4h8.7v8.6l-0.2,0.2l-85.4,85.3H382.8z M334.7-286.1
				c0.1-0.1,0.1-0.2,0.1-0.3v-45.2l46.2,45.5H334.7z M287.4-286.1v-0.2h-0.1v-45.6l46.4,45.8H287.4z M252.9-314.2l6.9-6.6l6.9,6.6
				l6.9-6.6l6.9,6.6l5.4-5.2v15.7l-0.5-0.6l-4.9,4.7l-6.9-6.6l-6.9,6.6l-6.9-6.6l-6.9,6.6l-6.9-6.6l-6.9,6.6l-6.9-6.6l-6.9,6.6
				l-6.9-6.6l-6.9,6.6l-6.9-6.6l-6.9,6.6l-4.9-4.7l-0.8,0.8v-16.3l5.7,5.4l6.9-6.6l6.9,6.6l6.9-6.6l6.9,6.6l6.9-6.6l6.9,6.6l6.9-6.6
				L252.9-314.2z M252.9-291.4l6.9-6.6l6.9,6.6l6.9-6.6l6.9,6.6l5.4-5.2v10.2h-94.2v-10.4l5.7,5.4l6.9-6.6l6.9,6.6l6.9-6.6l6.9,6.6
				l6.9-6.6l6.9,6.6l6.9-6.6L252.9-291.4z M151.1-286.1c20.3-3.2,36.4-19.3,39.6-39.6v39.6H151.1z M96.5-286.1v-39.6
				c3.2,20.3,19.3,36.4,39.6,39.6H96.5z M2-286.1l29.1-29.1h35.1v-35.1l29.1-29.1v93.3h-47l-0.1-0.1l-0.1,0.1H2z M95.3-189.6v94.1
				H1.2v-94.1h47l0.1,0.1l0.1-0.1H95.3z M262.2-95.8h-21.4l21.4-21.4V-95.8z M286-117.2v21.4h-21.4L286-117.2z M238.4-95.8h-21.4
				l21.4-21.4V-95.8z M214.5-95.8h-21.4l21.4-21.4V-95.8z M190.7-96.2l-46.3-46.3l46.3-46.3V-96.2z M381.5-142.6L381.5-142.6
				c0,26-21.1,47.1-47.1,47.1c-13.1,0-24.9-5.4-33.4-14l15.9-15.3c9.6,9.5,25.2,9.6,34.9,0.2c5.1-4.9,7.6-11.4,7.6-18
				c0-5.7-2-11.5-5.9-16.1l15.9-15.4C376.9-165.7,381.5-154.7,381.5-142.6z M345.6-189.5h35.8v36.4
				C377.5-171.1,363.5-185.2,345.6-189.5z M350.9-125.5c-9.5,9.1-24.6,8.9-33.7-0.6c-4.5-4.6-6.7-10.6-6.7-16.6
				c0-6.2,2.4-12.5,7.3-17.1c9.5-9.1,24.6-8.9,33.7,0.6C360.6-149.7,360.4-134.6,350.9-125.5z M300.1-110.3
				c-7.9-8.4-12.8-19.8-12.8-32.2v0c0-24.7,19.2-45,43.4-46.9h7.4c12,0.9,22.7,6.3,30.5,14.6l-15.9,15.3c-0.1-0.1-0.2-0.3-0.3-0.4
				c-9.6-9.9-25.5-10.2-35.4-0.6c-9.8,9.4-10.2,25-1,34.9L300.1-110.3z M214.5-166.9h-21.8l21.8-21.8V-166.9z M238.4-188.7v21.8
				h-21.8L238.4-188.7z M262.2-188.7v21.8h-21.8L262.2-188.7z M286-188.7v21.8h-21.8L286-188.7z M287.3-189.5h35.8
				c-17.8,4.3-31.8,18.4-35.8,36.4V-189.5z M286-164.9v21.8h-21.8L286-164.9z M216.5-143.1l21.8-21.8v21.8H216.5z M192.7-143.1
				l21.8-21.8v21.8H192.7z M262.2-164.9v21.8h-21.8L262.2-164.9z M262.2-119.2h-21.8l21.8-21.8V-119.2z M286-141v21.8h-21.8L286-141
				z M238.4-119.2h-21.8l21.8-21.8V-119.2z M214.5-119.2h-21.8l21.8-21.8V-119.2z M142.7-142.5L96.5-96.3v-92.5L142.7-142.5z
				 M1.2-236.6L47-190.8H1.2V-236.6z M48.3-284.5l46.7,46.7l-46.7,46.7L1.6-237.8L48.3-284.5z M95.3-236.6v45.8H49.5L95.3-236.6z
				 M47-284.9L1.2-239.1v-45.9H47z M95.3-284.9v45.9l-45.9-45.9H95.3z M142.5-283.2v44.2H98.2L142.5-283.2z M190.7-284.9v45.9h-45.9
				h0L190.7-284.9L190.7-284.9z M286.1-284.9v93.9H192v-93.9H286.1z M429.2-214.3c0,12.6-10.3,22.9-22.9,22.9
				c-12.6,0-22.9-10.3-22.9-22.9c0-12.6,10.3-22.9,22.9-22.9c0,0,0,0,0,0c0,0,0,0,0,0C418.9-237.2,429.2-226.9,429.2-214.3z
				 M411.5-237.8c9.2-2,16.4-9.3,18.3-18.4c2,9.2,9.2,16.4,18.3,18.4c-9.2,2-16.4,9.3-18.3,18.4
				C427.9-228.5,420.7-235.8,411.5-237.8z M382.8-219.6v-36.5c2,9.1,9.2,16.2,18.3,18.3C391.9-235.8,384.8-228.6,382.8-219.6z
				 M383.3-261.3c0-7.4,3.6-14,9-18.2c3.9-3,8.7-4.7,13.9-4.7c2.7,0,5.2,0.5,7.6,1.3c8.9,3.1,15.3,11.6,15.3,21.6
				c0,12.6-10.3,22.9-22.9,22.9c0,0,0,0,0,0c0,0,0,0,0,0C393.6-238.4,383.3-248.7,383.3-261.3z M413.9-284.2
				c-0.8-0.3-1.6-0.5-2.4-0.7h2.4h10.9h17.4h6.1c-9.2,2-16.4,9.3-18.4,18.5C428-274.8,421.9-281.5,413.9-284.2z M382.8-266.6v-18.3
				h6.5h0.9l10.5,0.1c-3.8,0.9-7.2,2.7-10.1,5.2C386.7-276.2,383.9-271.7,382.8-266.6z M287.4-200.9v-83.9h83.8
				C327.1-280.1,292.1-245,287.4-200.9z M380.9-284.3c-0.3,51.1-41.8,92.6-92.9,92.9C288.3-242.4,329.8-283.9,380.9-284.3z
				 M476.9-266.6c-2-9.1-9.2-16.3-18.3-18.3h0.9l-0.1,0.1h17.4v-0.1h0.2V-266.6z M476.3-261.3c0,12.6-10.3,22.9-22.9,22.9
				c0,0,0,0,0,0s0,0,0,0c-12.6,0-22.9-10.3-22.9-22.9c0-12.6,10.3-22.9,22.9-22.9C466.1-284.3,476.3-274,476.3-261.3z M476.9-219.5
				c-2-9.1-9.2-16.2-18.3-18.3c9.1-2,16.2-9.2,18.3-18.3V-219.5z M476.3-214.3c0,12.6-10.3,22.9-22.9,22.9
				c-12.6,0-22.9-10.3-22.9-22.9c0-12.6,10.3-22.9,22.9-22.9c0,0,0,0,0,0s0,0,0,0C466.1-237.2,476.3-226.9,476.3-214.3z
				 M458.6-190.8c9.1-2,16.2-9.2,18.3-18.3v18.3H458.6z M411.5-190.8c9.2-2,16.4-9.3,18.3-18.4c2,9.2,9.2,16.4,18.3,18.4H411.5z
				 M382.8-190.8V-209c2,9.1,9.2,16.2,18.3,18.3H382.8z M298-190.8c43.8-4.9,78.6-39.8,83.5-83.6v83.6h-44.3
				c-0.9-0.1-1.9-0.1-2.8-0.1c-0.9,0-1.9,0-2.8,0.1H298z M143-190.8l47.6-47.6v47.6H143z M96.5-190.8L96.5-190.8l45.9-45.9v45.9
				H96.5z M143.6-143.4l-46.2-46.2h92.4L143.6-143.4z M382.8-95.6v-94h94.2v94H382.8z M344.6-95.4c18.3-3.9,32.8-18.3,36.9-36.6
				v36.5v0.1H344.6z M287.5-95.4v-0.4h-0.2V-132c4.1,18.3,18.6,32.7,36.9,36.6H287.5z M97.3-95.4l46.3-46.3l46.3,46.3H97.3z
				 M11.5-94.3l-5,5.3l6.6,6.9l-6.6,6.9l6.6,6.9l-6.6,6.9l6.6,6.9l-6.6,6.9l6.6,6.9l-6.6,6.9l6.6,6.9l-6.6,6.9l6.6,6.9L6.5-6L12-0.1
				H1.2l0-94.2H11.5z M34.3-94.3l-5,5.3l6.6,6.9l-6.6,6.9l6.6,6.9l-6.6,6.9l6.6,6.9l-6.6,6.9l6.6,6.9l-6.6,6.9l6.6,6.9l-6.6,6.9
				l6.6,6.9L29.3-6l5.6,5.8H18.3l1-1L14.6-6l6.6-6.9l-6.6-6.9l6.6-6.9l-6.6-6.9l6.6-6.9l-6.6-6.9l6.6-6.9l-6.6-6.9l6.6-6.9l-6.6-6.9
				l6.6-6.9L14.6-89l4.7-4.9l-0.4-0.4H34.3z M57.1-94.3l-5,5.3l6.6,6.9l-6.6,6.9l6.6,6.9l-6.6,6.9l6.6,6.9l-6.6,6.9l6.6,6.9
				l-6.6,6.9l6.6,6.9l-6.6,6.9l6.6,6.9L52.1-6l5.6,5.8H41.1l1-1L37.4-6l6.6-6.9l-6.6-6.9l6.6-6.9l-6.6-6.9l6.6-6.9l-6.6-6.9l6.6-6.9
				l-6.6-6.9l6.6-6.9l-6.6-6.9l6.6-6.9L37.4-89l4.7-4.9l-0.4-0.4H57.1z M79.9-94.3l-5,5.3l6.6,6.9l-6.6,6.9l6.6,6.9l-6.6,6.9
				l6.6,6.9l-6.6,6.9l6.6,6.9l-6.6,6.9l6.6,6.9l-6.6,6.9l6.6,6.9L74.9-6l5.6,5.8H63.9l1-1L60.2-6l6.6-6.9l-6.6-6.9l6.6-6.9l-6.6-6.9
				l6.6-6.9l-6.6-6.9l6.6-6.9l-6.6-6.9l6.6-6.9l-6.6-6.9l6.6-6.9L60.2-89l4.7-4.9l-0.4-0.4H79.9z M95.3-0.1h-8.7l1-1L83-6l6.6-6.9
				L83-19.8l6.6-6.9L83-33.6l6.6-6.9L83-47.5l6.6-6.9L83-61.3l6.6-6.9L83-75.2l6.6-6.9L83-89l4.7-4.9l-0.4-0.4h8.1V-0.1z M321-14.5
				h-0.5h-18.6v-18.6v-0.5l-0.3-0.3l-13.2-13.2l13.2-13.2l0.3-0.3v-0.5v-18.6h18.6h0.5l0.3-0.3l13.2-13.2L347.7-80l0.3,0.3h0.5h18.6
				v18.6v0.5l0.3,0.3l13.2,13.2l-13.2,13.2l-0.3,0.3v0.5v18.6h-18.6H348l-0.3,0.3L334.5-1l-13.2-13.2L321-14.5z M287.5-94.2h46.4
				l-13.3,13.3h-19.8v19.8l-13.3,13.3V-94.2z M286-42.5c-2.5,23.7-22.6,42.2-46.9,42.2c-26,0-47.2-21.2-47.2-47.2v-46.6H286V-42.5z
				 M335.2-94.2h46.3v46.3l-13.2-13.2v-19.8h-19.8L335.2-94.2z M382.8-94.2h93l-26.3,26.3l0.6,0.6c-5.2-5.1-12.3-8.3-20.2-8.3
				c-15.8,0-28.6,12.8-28.6,28.6c0,7.8,3.1,14.9,8.2,20l-0.4-0.4L382.8-1.1V-94.2z M402.4-47c0-15.1,12.3-27.4,27.4-27.4
				c15.1,0,27.4,12.3,27.4,27.4S445-19.6,429.8-19.6C414.7-19.6,402.4-31.9,402.4-47z M383.5-0.2l26.4-26.4l0,0
				c5.2,5.1,12.2,8.2,20,8.2c15.8,0,28.6-12.8,28.6-28.6c0-7.9-3.2-15-8.3-20.2l0.2,0.2l26.5-26.5v93.3H383.5z M335.2,0l13.3-13.3
				h19.8v-19.8l13.2-13.2V0L335.2,0z M287.3,0v-43.5c0.1-1,0.1-1.9,0.2-2.9l13.3,13.3v19.8h19.8L333.9,0L287.3,0z M247.9,0
				c18.7-3.4,33.6-17.6,38.2-35.8V0L247.9,0z M191.9,0v-37c4.2,18.8,19.4,33.5,38.4,37L191.9,0z M96.5,0v-94.3h94.2V0l-46.4,0l0-0.2
				h-1.2l0,0.2L96.5,0z M95.3,1.2v46.4L94.9,48l0.4,0.4V49h0v45.5L2.5,1.2H95.3z M239.1,1.8c25.6,0,46.5,20.9,46.5,46.5
				c0,25.6-20.9,46.5-46.5,46.5c-25.6,0-46.5-20.9-46.5-46.5C192.6,22.7,213.5,1.8,239.1,1.8z M96.8,47.9l46.3-44.8l0,44.8H96.8z
				 M143.1,1.2l0,0.3l-46.6,45V1.2H143.1z M190.7,1.2v46.7h-46.4l0-46.7H190.7z M231.9,1.2c-20.8,3.1-37.2,19.7-40.1,40.7V1.2H231.9
				z M286,1.2v38.9C282.5,20,266.5,4.2,246.3,1.2H286z M404.7,1.2l-21.9,21.9V1.2H404.7z M452.3,1.2l-21.8,21.9V1.2H452.3z
				 M454.3,23.8V2l21.8,21.8H454.3z M406.7,23.8V2l21.8,21.8H406.7z M455.1,47.7l21.8-21.9v21.9H455.1z M453.1,46.9l-21.8-21.8h21.8
				V46.9z M407.5,47.7l21.8-21.9v21.9H407.5z M405.5,46.9l-21.8-21.8h21.8V46.9z M454.3,71.5V49.7l21.8,21.8H454.3z M430.5,70.7
				V48.9h21.8L430.5,70.7z M406.7,71.5V49.7l21.8,21.8H406.7z M382.8,70.8V48.9h21.9L382.8,70.8z M381.5,95.4h-94.2V1.2h94.2V95.4z
				 M383.7,72.7h21.8v21.8L383.7,72.7z M453.1,72.7v21.8l-21.8-21.8H453.1z M455.1,95.4l21.8-21.9v21.9H455.1z M407.5,95.4
				l21.8-21.9v21.9H407.5z M246.9,95.4c19.9-3.3,35.7-18.9,39.2-38.8v38.8H246.9z M191.9,95.4V54.8c2.8,20.7,18.9,37.2,39.5,40.6
				H191.9z M146,95.4l44.7-44.7v44.7H146z M144.3,95.4l0-46.3h46.4v0L144.3,95.4L144.3,95.4z M96.5,95.4V49h46.6l0,46.3H96.5z
				 M1.2,95.4V1.6l93.3,93.8H1.2z"/>
		</g>
		<g>
			<line class="st1" x1="285.2" y1="191.9" x2="192.7" y2="191.9"/>
			<polygon class="st1" points="190.7,96.5 144.9,96.5 190.7,142.3 			"/>
			<polygon class="st1" points="190.7,190.7 190.7,144.9 144.9,190.7 			"/>
			<polygon class="st1" points="96.5,96.5 96.5,142.4 142.4,96.5 			"/>
			<polygon class="st1" points="96.5,144.8 96.5,190.7 142.4,190.7 			"/>
			<path class="st1" d="M142.5,193.6"/>
			<line class="st1" x1="40.8" y1="191.9" x2="1.2" y2="191.9"/>
			<polygon class="st1" points="30.4,125.7 65.3,125.7 94.5,96.5 1.2,96.5 1.2,189.9 30.4,160.7 			"/>
			<path class="st1" d="M48.3,192.5"/>
			<polygon class="st1" points="66.3,161.6 31.1,161.6 2,190.7 95.4,190.7 95.4,143.7 95.3,143.6 95.4,143.5 95.4,97.3 66.3,126.5 
							"/>
			<polygon class="st1" points="286.1,96.5 191.9,96.5 191.9,143.5 192,143.6 191.9,143.7 191.9,190.7 286.1,190.7 			"/>
			<line class="st1" x1="95.4" y1="191.9" x2="55.8" y2="191.9"/>
			
				<rect x="110.6" y="110.6" transform="matrix(0.7072 -0.707 0.707 0.7072 -59.4694 143.6096)" class="st1" width="66" height="66"/>
			<path class="st1" d="M429.4,192.1"/>
			<polygon class="st1" points="429.6,190.2 430,190.6 430.6,190.6 430.6,190.7 476.1,190.7 382.7,97.8 382.7,190.7 429.1,190.7 			
				"/>
			<path class="st1" d="M381.6,191.9h-94.3"/>
			<line class="st1" x1="428" y1="191.9" x2="382.7" y2="191.9"/>
			<polygon class="st1" points="476.9,189.9 476.9,96.5 383.1,96.5 			"/>
			<line class="st1" x1="476.9" y1="191.9" x2="430.6" y2="191.9"/>
			<path class="st1" d="M286.1,192.7"/>
			<polygon class="st1" points="299.4,108.4 306.4,101.8 313.3,108.4 320.2,101.8 327.1,108.4 334,101.8 341,108.4 347.9,101.8 
				354.8,108.4 361.7,101.8 368.7,108.4 375.6,101.8 381.4,107.4 381.4,96.5 287.2,96.5 287.2,106.8 292.5,101.8 			"/>
			<polygon class="st1" points="299.4,154 306.4,147.4 313.3,154 320.2,147.4 327.1,154 334,147.4 341,154 347.9,147.4 354.8,154 
				361.7,147.4 368.7,154 375.6,147.4 381.4,153 381.4,136.4 380.5,137.4 375.6,132.7 368.7,139.3 361.7,132.7 354.8,139.3 
				347.9,132.7 341,139.3 334,132.7 327.1,139.3 320.2,132.7 313.3,139.3 306.4,132.7 299.4,139.3 292.5,132.7 287.6,137.4 
				287.2,137 287.2,152.4 292.5,147.4 			"/>
			<polygon class="st1" points="299.4,131.2 306.4,124.6 313.3,131.2 320.2,124.6 327.1,131.2 334,124.6 341,131.2 347.9,124.6 
				354.8,131.2 361.7,124.6 368.7,131.2 375.6,124.6 381.4,130.2 381.4,113.6 380.5,114.6 375.6,109.9 368.7,116.5 361.7,109.9 
				354.8,116.5 347.9,109.9 341,116.5 334,109.9 327.1,116.5 320.2,109.9 313.3,116.5 306.4,109.9 299.4,116.5 292.5,109.9 
				287.6,114.6 287.2,114.2 287.2,129.6 292.5,124.6 			"/>
			<line class="st1" x1="190.7" y1="191.9" x2="190.7" y2="191.9"/>
			<polygon class="st1" points="299.4,176.8 306.4,170.2 313.3,176.8 320.2,170.2 327.1,176.8 334,170.2 341,176.8 347.9,170.2 
				354.8,176.8 361.7,170.2 368.7,176.8 375.6,170.2 381.4,175.8 381.4,159.2 380.5,160.2 375.6,155.5 368.7,162.1 361.7,155.5 
				354.8,162.1 347.9,155.5 341,162.1 334,155.5 327.1,162.1 320.2,155.5 313.3,162.1 306.4,155.5 299.4,162.1 292.5,155.5 
				287.6,160.2 287.2,159.8 287.2,175.2 292.5,170.2 			"/>
			<path class="st1" d="M191.9,192.7"/>
			<polygon class="st1" points="381.4,182 380.5,183 375.6,178.3 368.7,184.9 361.7,178.3 354.8,184.9 347.9,178.3 341,184.9 
				334,178.3 327.1,184.9 320.2,178.3 313.3,184.9 306.4,178.3 299.4,184.9 292.5,178.3 287.6,183 287.2,182.6 287.2,190.7 
				381.4,190.7 			"/>
			<path class="st2" d="M478.1,191.9v-1.2V95.3h-95.5h-1h-94.3h-1.2h-94.1v0h-48.2l-0.1-0.1l-0.1,0.1h-47h-1.2H0v95.4v1.2 M1.2,96.5
				h93.4l-29.2,29.2h-35v35L1.2,189.9V96.5z M1.2,191.9h39.6 M48.3,192.5 M55.8,191.9h39.6 M95.4,143.5L95.4,143.5v0.1v47H2
				l29.1-29.1h35.1v-35.1l29.1-29.1V143.5z M191.9,143.7L191.9,143.7v-0.1v-47h94.1v94.2h-94.1V143.7z M192.7,191.9h92.5
				 M190.7,96.5v45.8l-45.8-45.8H190.7z M143.6,96.9l46.7,46.7l-46.7,46.7L97,143.6L143.6,96.9z M190.7,144.9v45.8h-45.8
				L190.7,144.9z M96.5,96.5h45.9l-45.9,45.9V96.5z M96.5,144.8l45.9,45.9H96.5V144.8z M142.5,193.6 M190.7,191.9L190.7,191.9
				 M191.9,192.7 M286.1,192.7 M287.2,96.5h94.2v10.9l-5.8-5.6l-6.9,6.6l-6.9-6.6l-6.9,6.6l-6.9-6.6l-6.9,6.6l-6.9-6.6l-6.9,6.6
				l-6.9-6.6l-6.9,6.6l-6.9-6.6l-6.9,6.6l-6.9-6.6l-5.3,5V96.5z M287.2,114.2l0.4,0.4l4.9-4.7l6.9,6.6l6.9-6.6l6.9,6.6l6.9-6.6
				l6.9,6.6l6.9-6.6l6.9,6.6l6.9-6.6l6.9,6.6l6.9-6.6l6.9,6.6l6.9-6.6l4.9,4.7l1-1v16.6l-5.8-5.6l-6.9,6.6l-6.9-6.6l-6.9,6.6
				l-6.9-6.6l-6.9,6.6l-6.9-6.6l-6.9,6.6l-6.9-6.6l-6.9,6.6l-6.9-6.6l-6.9,6.6l-6.9-6.6l-5.3,5V114.2z M287.2,137l0.4,0.4l4.9-4.7
				l6.9,6.6l6.9-6.6l6.9,6.6l6.9-6.6l6.9,6.6l6.9-6.6l6.9,6.6l6.9-6.6l6.9,6.6l6.9-6.6l6.9,6.6l6.9-6.6l4.9,4.7l1-1V153l-5.8-5.6
				l-6.9,6.6l-6.9-6.6l-6.9,6.6l-6.9-6.6L341,154l-6.9-6.6l-6.9,6.6l-6.9-6.6l-6.9,6.6l-6.9-6.6l-6.9,6.6l-6.9-6.6l-5.3,5V137z
				 M287.2,159.8l0.4,0.4l4.9-4.7l6.9,6.6l6.9-6.6l6.9,6.6l6.9-6.6l6.9,6.6l6.9-6.6l6.9,6.6l6.9-6.6l6.9,6.6l6.9-6.6l6.9,6.6
				l6.9-6.6l4.9,4.7l1-1v16.6l-5.8-5.6l-6.9,6.6l-6.9-6.6l-6.9,6.6l-6.9-6.6l-6.9,6.6l-6.9-6.6l-6.9,6.6l-6.9-6.6l-6.9,6.6l-6.9-6.6
				l-6.9,6.6l-6.9-6.6l-5.3,5V159.8z M287.2,190.7v-8.1l0.4,0.4l4.9-4.7l6.9,6.6l6.9-6.6l6.9,6.6l6.9-6.6l6.9,6.6l6.9-6.6l6.9,6.6
				l6.9-6.6l6.9,6.6l6.9-6.6l6.9,6.6l6.9-6.6l4.9,4.7l1-1v8.7H287.2z M287.3,191.9h94.3 M382.7,97.8l93.4,92.9h-45.5v0H430l-0.4-0.4
				l-0.4,0.5h-46.4V97.8z M429.4,192.1 M382.7,191.9H428 M430.6,191.9h46.3 M476.9,189.9l-93.8-93.3h93.8V189.9z"/>
		</g>
		<rect x="-11.8" y="190.7" class="st2" width="514.8" height="56"/>
	</g>
</g>
</svg>
