<svg xmlns="http://www.w3.org/2000/svg" viewBox="0 0 20.11 20.11"><defs><style>.cls-1{fill:#fff;}.cls-2{fill:#2b1f4f;}</style></defs><g id="Layer_2" data-name="Layer 2"><g id="Layer_1-2" data-name="Layer 1"><path class="cls-1" d="M10.06,0A10.06,10.06,0,1,1,0,10.06,10.05,10.05,0,0,1,10.06,0"/><path class="cls-2" d="M10.06,3.72c-1.72,0-1.94,0-2.61,0a4.5,4.5,0,0,0-1.54.3,3.05,3.05,0,0,0-1.12.73,2.93,2.93,0,0,0-.73,1.12,4.5,4.5,0,0,0-.3,1.54c0,.67,0,.89,0,2.61s0,1.93,0,2.61a4.61,4.61,0,0,0,.3,1.54,3,3,0,0,0,.73,1.12,3.19,3.19,0,0,0,1.12.73,4.78,4.78,0,0,0,1.54.29c.67,0,.89,0,2.61,0s1.93,0,2.61,0a4.77,4.77,0,0,0,1.53-.29,3.3,3.3,0,0,0,1.86-1.85,4.9,4.9,0,0,0,.29-1.54c0-.68,0-.89,0-2.61s0-1.94,0-2.61a4.78,4.78,0,0,0-.29-1.54,3.08,3.08,0,0,0-.74-1.12,3.05,3.05,0,0,0-1.12-.73,4.49,4.49,0,0,0-1.53-.3c-.68,0-.89,0-2.61,0m0,1.15c1.69,0,1.89,0,2.55,0a3.45,3.45,0,0,1,1.18.22,2.08,2.08,0,0,1,.73.47,2,2,0,0,1,.47.73,3.51,3.51,0,0,1,.22,1.18c0,.67,0,.87,0,2.56s0,1.89,0,2.56A3.43,3.43,0,0,1,15,13.79a1.88,1.88,0,0,1-.47.73,2,2,0,0,1-.73.47,3.45,3.45,0,0,1-1.18.22c-.66,0-.86,0-2.55,0s-1.9,0-2.56,0A3.45,3.45,0,0,1,6.32,15a2,2,0,0,1-.73-.47,1.88,1.88,0,0,1-.47-.73,3.43,3.43,0,0,1-.22-1.17c0-.67,0-.87,0-2.56s0-1.89,0-2.56a3.51,3.51,0,0,1,.22-1.18,2,2,0,0,1,.47-.73,2.08,2.08,0,0,1,.73-.47A3.45,3.45,0,0,1,7.5,4.9c.66,0,.86,0,2.56,0"/><path class="cls-2" d="M10.06,12.17a2.11,2.11,0,1,1,2.11-2.11,2.12,2.12,0,0,1-2.11,2.11m0-5.36a3.25,3.25,0,1,0,3.25,3.25,3.25,3.25,0,0,0-3.25-3.25"/><path class="cls-2" d="M14.2,6.68a.76.76,0,1,1-.76-.76.76.76,0,0,1,.76.76"/></g></g></svg>