<svg xmlns="http://www.w3.org/2000/svg" viewBox="0 0 20.11 20.11"><defs><style>.cls-1{fill:#fff;}.cls-2{fill:#2b1f4f;}</style></defs><g id="Layer_2" data-name="Layer 2"><g id="Layer_1-2" data-name="Layer 1"><path class="cls-1" d="M20.11,10.06A10.06,10.06,0,1,1,10.06,0a10.05,10.05,0,0,1,10,10.06"/><path class="cls-2" d="M10.83,8.68c.17-.18.31-.37.48-.53a2.55,2.55,0,0,1,1.85-.73,4.17,4.17,0,0,1,1.17.14A2.26,2.26,0,0,1,16,9.26a6.82,6.82,0,0,1,.22,2v4.17c0,.13,0,.16-.16.16H13.86c-.13,0-.15,0-.15-.16v-4a3.73,3.73,0,0,0-.12-1,1.11,1.11,0,0,0-1.22-.86A1.33,1.33,0,0,0,11,10.91a4.3,4.3,0,0,0,0,.62v3.86c0,.13,0,.16-.16.16-.72,0-1.44,0-2.16,0-.12,0-.15,0-.15-.15V7.77c0-.13,0-.16.16-.16h2c.13,0,.16,0,.16.16,0,.31,0,.61,0,.91"/><path class="cls-2" d="M6.91,11.59c0,1.26,0,2.52,0,3.78,0,.14,0,.18-.18.18-.72,0-1.43,0-2.15,0-.11,0-.15,0-.15-.15V7.75c0-.1,0-.14.14-.14H6.76c.14,0,.16,0,.16.17,0,1.27,0,2.54,0,3.81"/><path class="cls-2" d="M7.11,5.09A1.43,1.43,0,1,1,5.68,3.67,1.43,1.43,0,0,1,7.11,5.09"/></g></g></svg>