<svg xmlns="http://www.w3.org/2000/svg" viewBox="0 0 66.43 34"><defs><style>.cls-1{fill:#fff;}</style></defs><g id="Layer_2" data-name="Layer 2"><g id="Layer_1-2" data-name="Layer 1"><path class="cls-1" d="M44.68,9.49a7.49,7.49,0,0,0-5.14,2V0h-4V24.51h4v-2a7.51,7.51,0,1,0,5.14-13m0,11.07A3.56,3.56,0,1,1,48.24,17a3.56,3.56,0,0,1-3.56,3.56"/><rect class="cls-1" x="55.33" width="3.95" height="24.51"/><rect class="cls-1" x="62.48" y="20.56" width="3.95" height="3.95"/><path class="cls-1" d="M11.07,10.15a6.17,6.17,0,0,0-2.76-.66H7.94a6.31,6.31,0,0,0-4,1.79V9.49H0v15H4V17a3.56,3.56,0,1,1,7.11,0v7.51h4V17a7.61,7.61,0,0,0-4-6.85"/><polygon class="cls-1" points="29.27 9.49 24.93 18.79 20.57 9.49 16.62 9.49 22.94 23.05 17.84 34 21.79 34 24.92 27.29 26.91 23.01 33.22 9.49 29.27 9.49"/></g></g></svg>