<svg xmlns="http://www.w3.org/2000/svg" viewBox="0 0 479.5 2290.35"><defs><style>.cls-1{fill:#cbb7ff;}</style></defs><g id="Layer_2" data-name="Layer 2"><g id="Layer_1-2" data-name="Layer 1"><path class="cls-1" d="M215,414.43a7.49,7.49,0,1,0-7.49-7.49,7.49,7.49,0,0,0,7.49,7.49"/><path class="cls-1" d="M238,414.43a7.49,7.49,0,1,0-7.49-7.49,7.49,7.49,0,0,0,7.49,7.49"/><path class="cls-1" d="M261.08,414.43a7.49,7.49,0,1,0-7.48-7.49,7.49,7.49,0,0,0,7.48,7.49"/><path class="cls-1" d="M215,437.48a7.49,7.49,0,1,0-7.49-7.5,7.49,7.49,0,0,0,7.49,7.5"/><path class="cls-1" d="M238,437.48a7.49,7.49,0,1,0-7.49-7.5,7.5,7.5,0,0,0,7.49,7.5"/><path class="cls-1" d="M261.08,437.48a7.49,7.49,0,1,0-7.48-7.5,7.5,7.5,0,0,0,7.48,7.5"/><path class="cls-1" d="M215,460.52A7.49,7.49,0,1,0,207.5,453a7.49,7.49,0,0,0,7.49,7.49"/><path class="cls-1" d="M238,460.52a7.49,7.49,0,1,0-7.49-7.49,7.49,7.49,0,0,0,7.49,7.49"/><path class="cls-1" d="M261.08,460.52A7.49,7.49,0,1,0,253.6,453a7.49,7.49,0,0,0,7.48,7.49"/><polygon class="cls-1" points="446.47 333.55 425.27 326.21 432.2 319.28 404.35 309.63 414.05 337.43 420.93 330.54 428.31 351.7 435.22 344.79 442.62 366.01 460.77 347.85 439.52 340.49 446.47 333.55"/><path class="cls-1" d="M166.22,248.11A13.57,13.57,0,1,0,180,261.68a13.65,13.65,0,0,0-13.74-13.57"/><path class="cls-1" d="M120.42,202.9a13.57,13.57,0,1,0,13.74,13.57,13.66,13.66,0,0,0-13.74-13.57"/><path class="cls-1" d="M320.23,138.77a14.73,14.73,0,0,0,19.09,19.08,14.74,14.74,0,1,0,8.38-8.38,14.74,14.74,0,0,0-19.09-19.08,14.74,14.74,0,1,0-8.38,8.38"/><path class="cls-1" d="M478.31,143.76v-.59H478V.06H143.67L143.61,0l-.05.06H0v478.1H478V381.63h0V287.28h0V144.88l.72-.71ZM1.18,1.23H94.52L65.33,30.42h-35v35L1.18,94.57Zm0,95.35h39.6a47.7,47.7,0,0,0-39.6,39.61Zm58,101.05-6.59,6.92,6.59,6.93-6.59,6.91,6.59,6.93-6.59,6.92,6.59,6.92-6.59,6.92L59.17,253l-6.59,6.93,6.59,6.92-6.59,6.91,6.59,6.93-4.66,4.89.55.53H39.34l5.15-5.42-6.58-6.93,6.58-6.91-6.58-6.93L44.49,253l-6.58-6.92,6.58-6.92-6.58-6.92,6.58-6.93-6.58-6.92,6.58-6.91-6.58-6.93,6.58-6.92-5.42-5.69H55.36l-.85.8Zm-58,253.3V433.58l.2-.2L51.9,382.81H69.24ZM3,381,48.4,335.14,93.61,381Zm45.22-190.8a46.5,46.5,0,1,1,46.5-46.5,46.54,46.54,0,0,1-46.5,46.5m-47.08-39a47.72,47.72,0,0,0,39.61,39.61H1.18Zm35.19,60.33-6.59,6.91,6.59,6.93-6.59,6.92,6.59,6.92-6.59,6.92L36.37,253l-6.59,6.93,6.59,6.92-6.59,6.91,6.59,6.93-4.66,4.89.55.53H16.54l5.15-5.42-6.58-6.93,6.59-6.91-6.59-6.93L21.69,253l-6.58-6.92,6.58-6.92-6.58-6.92,6.58-6.93-6.58-6.92,6.58-6.91-6.58-6.93,6.58-6.92-5.42-5.69H32.56l-.85.8,4.66,4.89-6.59,6.92ZM1.18,191.94H9.76l-.85.8,4.66,4.89L7,204.55l6.59,6.93L7,218.39l6.59,6.93L7,232.24l6.59,6.92L7,246.08,13.57,253,7,259.93l6.59,6.92L7,273.76l6.59,6.93-4.66,4.89.55.53H1.18Zm0,95.43H47.26l-46,46.52s0,.05,0,.07Zm47.22.52,45.21,45.83H3ZM1.18,334.64a.56.56,0,0,0,.45.26H47L1.21,381.14s0,.05,0,.07Zm0,48.17h.2v15.87l15.85-15.87H34.56L1.18,416.23Zm94.17,78-16,16-.22.22H61.83l33.52-33.54Zm0-34.7L44.71,476.76l-.22.22H27.16l.22-.22,68-68Zm0-34.71L10,476.76l-.22.22H1.18v-8.7l85.39-85.47h8.78Zm0-10.31L49.81,334.9H95a.57.57,0,0,0,.33-.11Zm0-47.25L49.54,287.37H95.1v.05h.25ZM60.71,246.08l6.58-6.92-6.58-6.92,6.58-6.93-6.58-6.92,6.58-6.91-6.58-6.93,6.59-6.92-5.43-5.69H78.16l-.85.8L82,197.63l-6.59,6.92L82,211.48l-6.59,6.91L82,225.32l-6.59,6.92L82,239.16l-6.59,6.92L82,253l-6.59,6.93L82,266.85l-6.59,6.91L82,280.69l-4.66,4.89.55.53H62.14l5.15-5.42-6.58-6.93,6.59-6.91-6.59-6.93L67.29,253Zm22.8,0,6.58-6.92-6.58-6.92,6.58-6.93-6.58-6.92,6.58-6.91-6.58-6.93,6.59-6.92-5.43-5.69H95.1v94.17H84.94l5.15-5.42-6.58-6.93,6.59-6.91-6.59-6.93L90.09,253Zm11.84-55.32H55.74a47.72,47.72,0,0,0,39.61-39.61Zm0-54.57a47.72,47.72,0,0,0-39.6-39.61h39.6Zm0-87.93-.06.06.06.06v47H2L31.12,66.3H66.24V31.17L95.35,2.07Zm96.53.12.05-.06-.05-.06v-47H286V95.41H191.88Zm72.36,213.89,21.41-21.43v21.43Zm21.41,2.41v21.43H264.24Zm-21.41-26.25L285.65,217v21.43Zm0-23.84,21.41-21.42v21.42ZM192.6,190.76l46.32-46.29,46.29,46.29Zm14.78,178.66,15.36-15.9a25,25,0,0,0,33.91-36.65L272,301a47.06,47.06,0,0,1-33.06,80.53h-.09a46.87,46.87,0,0,1-31.45-12.12m20.93,12.12H192V345.7a48.39,48.39,0,0,0,36.36,35.84m-6-30A23.84,23.84,0,1,1,256,351a23.86,23.86,0,0,1-33.7.58m33.5-35.52a25,25,0,0,0-34.32,36.37l.38.32-15.34,15.88A47,47,0,0,1,192,338.15v-7.39a47.13,47.13,0,0,1,46.9-43.39h.05a46.89,46.89,0,0,1,32.22,12.83Zm-63-101.46,21.81-21.82v21.82Zm21.81,2v21.83H192.78Zm0,23.84v21.83H192.78Zm0,23.84v21.83H192.78Zm13.73,23.09A48.41,48.41,0,0,0,192,323.22V287.37Zm10.09-23.09v21.83H216.6Zm0-25.85H216.6l21.81-21.83Zm0-23.84H216.6l21.81-21.82Zm0,25.85v21.83H216.6Zm2,21.83,21.81-21.83v21.83Zm21.81,2v21.83H240.42Zm-21.81-25.85,21.81-21.83v21.83Zm0-23.84,21.81-21.82v21.82Zm-47.71-118h92.46L238.92,142.8ZM190.66,1.23V47L144.85,1.23Zm-47,.43,46.66,46.66L143.61,95,97,48.32Zm47,47.94V95.41H144.85ZM96.53,1.23h45.85L96.53,47.09Zm0,48.32,45.85,45.86H96.53Zm45.93,48.74v44.23H98.24ZM96.53,190.76l45.93-45.94h0v45.94Zm0,1.31h93.92V286.2H96.53Zm47.71,214.28v0a22.94,22.94,0,1,1,22.94,22.95,23,23,0,0,1-22.94-22.95M162.1,429.9a24.12,24.12,0,0,0-18.45,18.32,24.1,24.1,0,0,0-18.44-18.32,24.13,24.13,0,0,0,18.44-18.32A24.15,24.15,0,0,0,162.1,429.9m-18.45-28.82a24.12,24.12,0,0,0-18.26-18.27h36.52a24.13,24.13,0,0,0-18.26,18.27m-.59,5.23v0a22.9,22.9,0,1,1-22.93-23,22.95,22.95,0,0,1,22.93,23m-28,23.59A24.12,24.12,0,0,0,96.6,448.25V411.54a23.62,23.62,0,0,0,.68,2.4,24.12,24.12,0,0,0,17.77,16m-13.12-39.34a24,24,0,0,0-5.21,10.07l-.12-10.51v-7.31h18.27a24,24,0,0,0-12.94,7.75M96.6,371.19V287.42h83.92A94.86,94.86,0,0,0,96.6,371.19M190.13,288A93.63,93.63,0,0,1,97.2,381,93.63,93.63,0,0,1,190.13,288M96.6,477v-.22h.12V459.41l-.12.12v-.86A24.11,24.11,0,0,0,114.87,477Zm.6-23.52a22.93,22.93,0,0,1,45.86,0v0a22.93,22.93,0,0,1-45.86,0M125.39,477a24.12,24.12,0,0,0,18.26-18.27A24.12,24.12,0,0,0,161.91,477Zm18.85-23.5v0a22.94,22.94,0,1,1,22.94,23,23,23,0,0,1-22.94-23M190.7,477H172.44a24.12,24.12,0,0,0,18.26-18.27Zm0-28.76a24.11,24.11,0,0,0-18.45-18.32,24.14,24.14,0,0,0,18.45-18.33Zm0-47.14a24.13,24.13,0,0,0-18.26-18.27H190.7Zm0-69.44c0,.93-.09,1.87-.09,2.82s0,1.88.09,2.81v44.27H107.12a94.85,94.85,0,0,0,83.58-83.46Zm0-140.88H143.05l47.65-47.65Zm0-48.24H144.76L190.7,96.58h0Zm1.18,47.3V97.42l46.21,46.21Zm94,287.16H192V382.81h94Zm.14-95.44H249.44a48.4,48.4,0,0,0,36.61-36.91Zm0-57.26a48.41,48.41,0,0,0-36.62-36.91h36.22v.19h.4Zm0-134.35-46.29-46.3,46.29-46.26ZM287.18,1.24h94.17V12.09l-5.84-5.56-6.93,6.59-6.91-6.59-6.93,6.59-6.92-6.59-6.92,6.59L334,6.53l-6.92,6.59-6.93-6.59-6.92,6.59L306.3,6.53l-6.93,6.59-6.92-6.59-5.27,5Zm0,17.67.38.4,4.89-4.65,6.92,6.58,6.92-6.59,6.92,6.59,6.92-6.59,6.93,6.59L334,14.65l6.92,6.59,6.92-6.59,6.92,6.59,6.93-6.58,6.91,6.58,6.93-6.59,4.89,4.66,1-1V34.89l-5.84-5.56-6.93,6.59-6.91-6.59-6.93,6.59-6.92-6.59-6.92,6.59L334,29.33l-6.92,6.59-6.93-6.59-6.92,6.59-6.91-6.59-6.93,6.59-6.92-6.59-5.27,5Zm0,22.8.38.4,4.89-4.66L299.37,44l6.92-6.59L313.21,44l6.92-6.59L327.06,44,334,37.45,340.9,44l6.92-6.59L354.74,44l6.93-6.59L368.58,44l6.93-6.59,4.89,4.66,1-1V57.69l-5.84-5.56-6.93,6.59-6.91-6.59-6.93,6.59-6.92-6.59-6.92,6.59L334,52.13l-6.92,6.59-6.93-6.59-6.92,6.59-6.91-6.59-6.93,6.59-6.92-6.59-5.27,5Zm0,22.8.38.4,4.89-4.66,6.92,6.59,6.92-6.59,6.92,6.59,6.92-6.59,6.93,6.59L334,60.25l6.92,6.59,6.92-6.59,6.92,6.59,6.93-6.59,6.91,6.59,6.93-6.59,4.89,4.66,1-1V80.49l-5.84-5.56-6.93,6.59-6.91-6.59-6.93,6.59-6.92-6.59-6.92,6.59L334,74.93l-6.92,6.59-6.93-6.59-6.92,6.59-6.91-6.59-6.93,6.59-6.92-6.59-5.27,5Zm0,30.9v-8.1l.38.4,4.89-4.66,6.92,6.59,6.92-6.59,6.92,6.59,6.92-6.59,6.93,6.59L334,83.05l6.92,6.59,6.92-6.59,6.92,6.59,6.93-6.59,6.91,6.59,6.93-6.59,4.89,4.66,1-1v8.7Zm80.14,226,13.15,13.15-13.15,13.16-.35.34v19.09H347.88l-.34.35-13.16,13.15-13.15-13.15-.35-.35H301.79V348.09l-.34-.34-13.16-13.16,13.16-13.15.34-.35V302h19.09l.35-.34,13.15-13.16,13.16,13.16.34.34H367v19.09Zm-33.66-33.88L320.4,300.82H300.61V320.6L287.3,333.92V287.56Zm-46.36-1.45V191.94h46.58A47.22,47.22,0,0,1,339,286.11Zm13.31,62.47v19.78H320.4l13.18,13.18H287.3V335.26Zm79.72,34.23-26.26,26.26.43.43a28.6,28.6,0,0,0-40.32,40.57l-.55-.55L287.3,475.85v-93Zm-18.44,47.1a27.43,27.43,0,1,1-27.43-27.43,27.45,27.45,0,0,1,27.43,27.43m19.37,47H287.92l26.54-26.54-.16-.16a28.6,28.6,0,0,0,40.57-40.32l0,0,26.36-26.35Zm.21-95.35H335.19l13.18-13.18h19.78V348.58l13.32-13.32Zm0-47.62L368.15,320.6V300.82H348.37l-13.29-13.29c1,0,1.94-.08,2.9-.16h43.49Zm0-47.81H345.65a48.56,48.56,0,0,0,35.82-38.17Zm0-55.73a48.52,48.52,0,0,0-37-38.44h37Zm0-87.24h-.2v1.17h.2v46.45H287.23V96.58h94.26ZM382.66,2.52,476,95.41H430.5v0h-.59l-.42-.41-.44.46H382.66ZM429.8,192.66a46.5,46.5,0,1,1-46.5,46.5,46.55,46.55,0,0,1,46.5-46.5m-.48-49.51H384.56l44.76-46.33ZM382.66,96.58h45.25l-45,46.56h-.26Zm0,47.73,46.66,0v46.43H382.66Zm0,47.63h40.67A47.7,47.7,0,0,0,382.66,232Zm0,54.38a47.72,47.72,0,0,0,38.88,39.79H382.66Zm0,136.49h21.95l-21.95,21.92Zm0,47.72h21.86l-21.86,21.83Zm22.64,45.58-21.8-21.76h21.8Zm0-47.63-21.8-21.76h21.8ZM429.16,477H407.31l21.85-21.83Zm-22.63-23.81V431.4l21.79,21.77Zm22.63-23.82H407.31l21.85-21.83Zm-22.63-23.81V383.77l21.8,21.77ZM453,476.11l-21.79-21.76H453Zm-22.63-23.75V430.53h21.85ZM453,428.48l-21.8-21.76H453Zm-22.63-23.75V382.81h21.94ZM382.66,287.37h94.17v94.17H382.66ZM476,405.54H454.2V383.77ZM454.2,431.4,476,453.17H454.2ZM476.84,477H455l21.86-21.83Zm0-47.63H455l21.86-21.83Zm0-143.24H438.07a47.7,47.7,0,0,0,38.77-39.18Zm0-54.72a47.69,47.69,0,0,0-40.56-39.45h40.56Zm0-40.63H432.18l44.66-44.7Zm0-46.36-46.32,46.36h0V144.33h46.34Zm0-1.23-46.34,0V96.58h46.34Zm0-48.59L383,1.24h93.8Z"/><path class="cls-1" d="M414.71,692a7.49,7.49,0,1,1-7.49-7.49,7.49,7.49,0,0,1,7.49,7.49"/><path class="cls-1" d="M414.71,715a7.49,7.49,0,1,1-7.49-7.49,7.49,7.49,0,0,1,7.49,7.49"/><path class="cls-1" d="M414.71,738.06a7.49,7.49,0,1,1-7.49-7.49,7.49,7.49,0,0,1,7.49,7.49"/><path class="cls-1" d="M437.76,692a7.49,7.49,0,1,1-7.49-7.49,7.49,7.49,0,0,1,7.49,7.49"/><path class="cls-1" d="M437.76,715a7.49,7.49,0,1,1-7.49-7.49,7.49,7.49,0,0,1,7.49,7.49"/><path class="cls-1" d="M437.76,738.06a7.49,7.49,0,1,1-7.49-7.49,7.5,7.5,0,0,1,7.49,7.49"/><path class="cls-1" d="M460.81,692a7.49,7.49,0,1,1-7.49-7.49,7.49,7.49,0,0,1,7.49,7.49"/><path class="cls-1" d="M460.81,715a7.49,7.49,0,1,1-7.49-7.49,7.49,7.49,0,0,1,7.49,7.49"/><path class="cls-1" d="M460.81,738.06a7.49,7.49,0,1,1-7.49-7.49,7.5,7.5,0,0,1,7.49,7.49"/><polygon class="cls-1" points="333.83 923.44 326.49 902.24 319.56 909.17 309.92 881.32 337.71 891.02 330.82 897.91 351.98 905.29 345.08 912.2 366.29 919.6 348.14 937.75 340.78 916.5 333.83 923.44"/><path class="cls-1" d="M248.4,643.19A13.56,13.56,0,1,1,262,656.93a13.66,13.66,0,0,1-13.56-13.74"/><path class="cls-1" d="M203.19,597.4a13.56,13.56,0,1,1,13.56,13.74,13.65,13.65,0,0,1-13.56-13.74"/><path class="cls-1" d="M139.05,797.21a14.73,14.73,0,0,1,19.09,19.08,14.74,14.74,0,1,1-8.38,8.38,14.73,14.73,0,0,1-19.09-19.08,14.75,14.75,0,1,1,8.38-8.38"/><path class="cls-1" d="M144.46,955.7l.71-.71H478.44V477H.34V620.53l-.06.06.06,0v48.21h0V955H143.45v.29H144ZM94.86,478.15,65.67,507.34h-35v35L1.52,571.49V478.15Zm41.61,0a47.72,47.72,0,0,0-39.6,39.6v-39.6ZM193,531.49l-.81.84V516.05l5.69,5.42,6.93-6.59,6.92,6.59,6.92-6.59,6.92,6.59,6.92-6.59,6.92,6.59,6.93-6.59,6.91,6.59,6.93-6.59,6.92,6.59,6.92-6.59,6.92,6.59,5.42-5.16V532l-.52-.55-4.9,4.66-6.92-6.59-6.92,6.59-6.92-6.59-6.92,6.59-6.92-6.59-6.93,6.59-6.92-6.59-6.92,6.59-6.92-6.59-6.92,6.59-6.93-6.59-6.92,6.59Zm190.06,14.72V528.87l50.58-50.52.19-.2h17.36Zm-1.84,24.37-45.82-45.21L381.25,480ZM144,571.73a46.5,46.5,0,1,1,46.5-46.49A46.54,46.54,0,0,1,144,571.73M191,478.15v39.61a47.7,47.7,0,0,0-39.6-39.61Zm13.79,28.6-6.92,6.59L193,508.69l-.81.84V493.25l5.69,5.42,6.93-6.59,6.92,6.59,6.92-6.59,6.92,6.59,6.92-6.59,6.92,6.59,6.93-6.59,6.91,6.59,6.93-6.59,6.92,6.59,6.92-6.59,6.92,6.59,5.42-5.16v15.72l-.52-.55-4.9,4.66-6.92-6.59-6.92,6.59-6.92-6.59-6.92,6.59-6.92-6.59-6.93,6.59-6.92-6.59-6.92,6.59-6.92-6.59-6.92,6.59Zm81.56-28.6v8.29l-.52-.56-4.9,4.66L274.05,484l-6.92,6.59L260.21,484l-6.92,6.59L246.37,484l-6.93,6.59L232.52,484l-6.92,6.59L218.68,484l-6.92,6.59L204.83,484l-6.92,6.59L193,485.89l-.81.84v-8.58Zm47.85,0s-.05,0-.06,0l-46.52,46V478.15ZM334,480v90.57l-45.82-45.21Zm47.49-1.86-.06,0L335.18,524V478.6a.59.59,0,0,0-.25-.45Zm35,0-33.42,33.39V494.2L399,478.35H383.09v-.2Zm27.21,94.17,33.55-33.51v17.33l-.22.22-16,16Zm-34.71,0,68-68,.22-.22v17.34l-.22.22-50.68,50.63Zm-25.92,0v-8.78l85.48-85.39h8.7v8.65l-.22.22-85.39,85.3Zm-48,0a.55.55,0,0,0,.11-.33V526.78l46.16,45.54Zm-47.36,0v-.24h0V526.51l46.43,45.81Zm-34.43-28.05,6.93-6.59,6.92,6.59,6.92-6.59,6.92,6.59,5.42-5.16v15.72l-.52-.55-4.9,4.66-6.92-6.59-6.92,6.59-6.92-6.59-6.92,6.59-6.92-6.59-6.93,6.59-6.92-6.59-6.92,6.59-6.92-6.59-6.92,6.59-6.93-6.59-6.92,6.59L193,554.28l-.81.85V538.85l5.69,5.42,6.93-6.59,6.92,6.59,6.92-6.59,6.92,6.59,6.92-6.59,6.92,6.59,6.93-6.59Zm0,22.8,6.93-6.59,6.92,6.59,6.92-6.59,6.92,6.59,5.42-5.16v10.17H192.22V561.65l5.69,5.42,6.93-6.59,6.92,6.59,6.92-6.59,6.92,6.59,6.92-6.59,6.92,6.59,6.93-6.59Zm-101.84,5.25A47.69,47.69,0,0,0,191,532.71v39.61Zm-54.57,0v-39.6a47.7,47.7,0,0,0,39.6,39.6Zm-94.52,0,29.11-29.1H66.58V508.09L95.69,479v93.34h-47l-.06-.05-.05.05Zm93.34,96.53V763H1.52V668.85h47l.05.06.06-.06Zm166.86,93.78H241.12l21.43-21.42Zm23.84-21.42v21.42H265Zm-47.68,21.42H217.28l21.43-21.42Zm-23.83,0H193.45l21.43-21.42ZM191,762.19,144.75,715.9,191,669.58ZM381.83,715.8v.09A47.07,47.07,0,0,1,301.29,749l15.87-15.33a25,25,0,0,0,36.65-33.9l15.9-15.37a46.89,46.89,0,0,1,12.12,31.45M346,668.92h35.85v36.37A48.41,48.41,0,0,0,346,668.92m5.3,64.06a23.84,23.84,0,1,1,.57-33.71,23.87,23.87,0,0,1-.57,33.71m-50.8,15.12a46.88,46.88,0,0,1-12.82-32.23v0a47.13,47.13,0,0,1,43.39-46.91h7.39a46.94,46.94,0,0,1,30.46,14.57L353,698.83c-.12-.12-.21-.26-.33-.38a25,25,0,0,0-36.36,34.32Zm-85.6-56.54H193.05l21.83-21.81Zm23.83-21.81v21.81H216.89Zm23.84,0v21.81H240.73Zm23.84,0v21.81H264.56Zm1.27-.83H323.5a48.4,48.4,0,0,0-35.84,36.37Zm-1.27,24.65v21.81H264.56Zm-69.5,21.81,21.82-21.81v21.81Zm-23.84,0,21.83-21.81v21.81Zm69.5-21.81v21.81H240.73Zm0,45.63H240.72l21.83-21.81Zm23.84-21.81V739.2H264.56ZM238.71,739.2H216.89l21.82-21.81Zm-23.83,0H193.05l21.83-21.81Zm-71.8-23.3L96.87,762.14V669.68ZM1.52,621.82l45.81,45.81H1.52ZM48.6,573.93l46.66,46.66L48.6,667.24,2,620.59Zm47.09,47.89v45.81H49.88ZM47.37,573.5,1.52,619.35V573.5Zm48.32,0v45.85L49.84,573.5Zm47.11,1.71v44.23H98.58ZM191,573.5v45.94H145.1Zm95.44,93.93H192.36V573.5h94.12Zm143.07-23.28a22.94,22.94,0,1,1-23-22.94h0a23,23,0,0,1,22.92,22.94m-17.69-23.52a24.14,24.14,0,0,0,18.32-18.45,24.14,24.14,0,0,0,18.32,18.45,24.11,24.11,0,0,0-18.32,18.44,24.11,24.11,0,0,0-18.32-18.44m-28.77,18.25V602.37a24.13,24.13,0,0,0,18.28,18.26,24.12,24.12,0,0,0-18.28,18.25m.59-41.78A22.94,22.94,0,1,1,406.63,620h0a23,23,0,0,1-22.91-22.94m30.55-22.85a24.57,24.57,0,0,0-2.41-.68h36.72A24.11,24.11,0,0,0,430.18,592a24.13,24.13,0,0,0-15.95-17.78m-31.14,17.59V573.57h7.32l10.5.13a24.15,24.15,0,0,0-17.82,18.14m-95.38,65.65V573.57h83.76a94.85,94.85,0,0,0-83.76,83.92m93.53-83.32a93.63,93.63,0,0,1-92.91,92.94,93.63,93.63,0,0,1,92.91-92.94m96,17.67A24.14,24.14,0,0,0,459,573.57h.86l-.13.13h17.36v-.13h.22Zm-.59,5.26A23,23,0,0,1,453.77,620h0a22.94,22.94,0,1,1,22.95-22.94m.59,41.79A24.12,24.12,0,0,0,459,620.63a24.13,24.13,0,0,0,18.28-18.26Zm-.59,5.26a22.94,22.94,0,1,1-22.95-22.94h0a23,23,0,0,1,22.91,22.94M459,667.67a24.13,24.13,0,0,0,18.28-18.26v18.26Zm-47.13,0a24.11,24.11,0,0,0,18.32-18.45,24.11,24.11,0,0,0,18.32,18.45Zm-28.77,0V649.41a24.12,24.12,0,0,0,18.28,18.26Zm-84.72,0a94.85,94.85,0,0,0,83.46-83.58v83.58H337.56c-.94,0-1.87-.09-2.82-.09s-1.88,0-2.81.09Zm-155,0L191,620v47.64Zm-46.52,0h0l45.93-45.93v45.93Zm47,47.4L97.7,668.85h92.4Zm239.17-46.15h94.18v94H383.09ZM344.92,763a48.41,48.41,0,0,0,36.91-36.61V763Zm-57.08,0v-.39h-.18V726.41A48.4,48.4,0,0,0,324.57,763ZM97.66,763l46.26-46.29L190.21,763Zm-85.83,1.14-5,5.26,6.59,6.92-6.59,6.93,6.59,6.92-6.59,6.92L13.4,804,6.81,811l6.59,6.92-6.59,6.92,6.59,6.93-6.59,6.92,6.59,6.92-6.59,6.92,5.57,5.85H1.52V764.16Zm22.8,0-5,5.26,6.59,6.92-6.59,6.93,6.59,6.92-6.59,6.92L36.2,804,29.61,811l6.59,6.92-6.59,6.92,6.59,6.93-6.59,6.92,6.59,6.92-6.59,6.92,5.57,5.85H18.59l1-1-4.66-4.89,6.59-6.92-6.59-6.92,6.58-6.92-6.58-6.93,6.59-6.92L14.94,811,21.52,804l-6.58-6.92,6.59-6.92-6.59-6.92,6.59-6.93-6.59-6.92,4.65-4.89-.39-.37Zm22.8,0-5,5.26L59,776.34l-6.59,6.93L59,790.19l-6.59,6.92L59,804,52.41,811,59,817.87l-6.59,6.92L59,831.72l-6.59,6.92L59,845.56l-6.59,6.92L58,858.33H41.39l1-1-4.65-4.89,6.59-6.92-6.59-6.92,6.59-6.92-6.59-6.93,6.59-6.92L37.74,811,44.33,804l-6.59-6.92,6.59-6.92-6.59-6.92,6.59-6.93-6.59-6.92,4.65-4.89-.39-.37Zm22.8,0-5,5.26,6.59,6.92-6.59,6.93,6.59,6.92-6.59,6.92L81.8,804,75.21,811l6.59,6.92-6.59,6.92,6.59,6.93-6.59,6.92,6.59,6.92-6.59,6.92,5.57,5.85H64.19l1-1-4.65-4.89,6.59-6.92-6.59-6.92,6.59-6.92-6.59-6.93,6.59-6.92L60.54,811,67.13,804l-6.59-6.92,6.59-6.92-6.59-6.92,6.59-6.93-6.59-6.92,4.65-4.89-.39-.37Zm15.46,94.17H87l1-1-4.65-4.89,6.59-6.92-6.59-6.92,6.59-6.92-6.59-6.93,6.59-6.92L83.34,811,89.93,804l-6.59-6.92,6.59-6.92-6.59-6.92,6.59-6.93-6.59-6.92L88,764.53l-.39-.37h8.09ZM321.37,844H302.28V824.86l-.34-.35-13.16-13.15,13.16-13.16.34-.34v-19.1h19.09l.35-.34,13.15-13.16L348,778.42l.34.34h19.1v19.1l.34.34L381,811.36l-13.16,13.15-.34.35V844h-19.1l-.34.34-13.16,13.16-13.15-13.16Zm-33.53-79.68h46.37l-13.32,13.32H301.11v19.78l-13.27,13.26Zm-1.45,51.66a47.22,47.22,0,0,1-94.17-5.07V764.27h94.17Zm49.15-51.66h46.29v46.28l-13.19-13.18V777.59H348.86Zm47.55,0h93L449.8,790.6l.55.55a28.6,28.6,0,0,0-40.57,40.32l-.42-.43-26.27,26.27Zm19.67,47.17a27.43,27.43,0,1,1,27.43,27.42,27.46,27.46,0,0,1-27.43-27.42m-18.93,46.79,26.36-26.35,0,0a28.6,28.6,0,0,0,40.31-40.57l.16.16,26.55-26.54v93.34Zm-48.29.21,13.32-13.32h19.78V825.34l13.19-13.18v46.28Zm-47.88,0V815q.12-1.44.15-2.91l13.3,13.29v19.78h19.78l13.31,13.32Zm-39.44,0a48.53,48.53,0,0,0,38.17-35.82v35.82Zm-56,0v-37a48.52,48.52,0,0,0,38.45,37Zm-95.35,0V764.2H191v94.26H144.6v-.19h-1.18v.19Zm-1.18,1.18V906l-.46.44.41.43v.58h0V953L2.8,859.64Zm143.75.64A46.5,46.5,0,1,1,193,906.78a46.55,46.55,0,0,1,46.49-46.5M97.1,906.3l46.32-44.77,0,44.77Zm46.32-46.66v.26l-46.55,45V859.64Zm47.62,0V906.3H144.61V859.64Zm41.24,0a47.69,47.69,0,0,0-40.06,40.66V859.64Zm54.11,0v38.87a47.7,47.7,0,0,0-39.78-38.87Zm118.62,0-21.92,21.94V859.64Zm47.63,0-21.83,21.85V859.64Zm2,22.63v-21.8l21.77,21.8Zm-47.63,0v-21.8l21.77,21.8Zm48.44,23.86,21.83-21.85v21.85Zm-2-.83-21.77-21.8h21.77Zm-45.64.83,21.82-21.85v21.85Zm-2-.83-21.77-21.8h21.77ZM454.63,930v-21.8L476.4,930Zm-23.82-.78V907.31h21.83ZM407,930v-21.8L428.77,930Zm-23.91-.69v-22H405Zm-1.26,24.55H287.66V859.64h94.17Zm2.22-22.63h21.77V953Zm69.4,0V953l-21.77-21.79Zm2,22.63L477.27,932v21.86Zm-47.63,0L429.63,932v21.85Zm-160.6,0A47.7,47.7,0,0,0,286.39,915v38.77Zm-55,0V913.25a47.69,47.69,0,0,0,39.45,40.56Zm-45.87,0L191,909.16v44.65Zm-1.72,0,0-46.34H191v0l-46.36,46.32Zm-47.76,0V907.47h46.57v46.34Zm-95.35,0V860l93.34,93.79Z"/><path class="cls-1" d="M478.45,1050.3V953.77H144l-.06,0,0,0H.34v96.53M1.52,955H94.88L65.69,984.13h-35v35L1.52,1048.29Zm0,95.35H41.13m15,0H95.71m0-48.32-.06.06.06.05v47H2.35L31.46,1020H66.6V984.89l29.11-29.11Zm96.55.11.05-.05-.05-.06V955H286.4v94.17H192.26Zm.83,48.21h92.48M191,955v45.81L145.22,955Zm-47.05.43L190.65,1002,144,1048.69,97.32,1002ZM191,1003.31v45.81H145.22ZM96.89,955h45.86L96.89,1000.8Zm0,48.32,45.86,45.85H96.89Zm94.19,47h0M287.58,955h94.19v10.86l-5.85-5.56L369,966.83l-6.92-6.59-6.93,6.59-6.92-6.59-6.92,6.59-6.92-6.59-6.93,6.59-6.92-6.59-6.92,6.59-6.92-6.59-6.93,6.59-6.92-6.59-5.27,5Zm0,17.68.38.4,4.89-4.66,6.92,6.59,6.93-6.59,6.92,6.59,6.92-6.59,6.92,6.59,6.93-6.59,6.92,6.59,6.92-6.59,6.92,6.59,6.93-6.59L369,975l6.92-6.59,4.9,4.66.95-1v16.58L375.92,983,369,989.63,362.08,983l-6.93,6.59L348.23,983l-6.92,6.59L334.39,983l-6.93,6.59L320.54,983l-6.92,6.59L306.7,983l-6.93,6.59L292.85,983l-5.27,5Zm0,22.8.38.4,4.89-4.66,6.92,6.59,6.93-6.59,6.92,6.59,6.92-6.59,6.92,6.59,6.93-6.59,6.92,6.59,6.92-6.59,6.92,6.59,6.93-6.59,6.92,6.59,6.92-6.59,4.9,4.66.95-1v16.58l-5.85-5.57-6.92,6.59-6.92-6.59-6.93,6.59-6.92-6.59-6.92,6.59-6.92-6.59-6.93,6.59-6.92-6.59-6.92,6.59-6.92-6.59-6.93,6.59-6.92-6.59-5.27,5Zm0,22.8.38.4,4.89-4.66,6.92,6.59,6.93-6.59,6.92,6.59,6.92-6.59,6.92,6.59,6.93-6.59,6.92,6.59,6.92-6.59,6.92,6.59,6.93-6.59,6.92,6.59,6.92-6.59,4.9,4.66.95-1v16.58l-5.85-5.57-6.92,6.59-6.92-6.59-6.93,6.59-6.92-6.59-6.92,6.59-6.92-6.59-6.93,6.59-6.92-6.59-6.92,6.59-6.92-6.59-6.93,6.59-6.92-6.59-5.27,5Zm0,30.89V1041l.38.4,4.89-4.66,6.92,6.59,6.93-6.59,6.92,6.59,6.92-6.59,6.92,6.59,6.93-6.59,6.92,6.59,6.92-6.59,6.92,6.59,6.93-6.59,6.92,6.59,6.92-6.59,4.9,4.66.95-1v8.69Zm0,1.18H381.9m1.18-94.06,93.35,92.88h-45.5v0h-.59l-.43-.4-.44.45H383.08Zm0,94.06h45.25m2.6,0h46.34m0-2L383.46,955h93.81Z"/><path class="cls-1" d="M215.33,1272.9a7.49,7.49,0,1,0-7.49-7.49,7.49,7.49,0,0,0,7.49,7.49"/><path class="cls-1" d="M238.38,1272.9a7.49,7.49,0,1,0-7.49-7.49,7.49,7.49,0,0,0,7.49,7.49"/><path class="cls-1" d="M261.43,1272.9a7.49,7.49,0,1,0-7.49-7.49,7.49,7.49,0,0,0,7.49,7.49"/><path class="cls-1" d="M215.33,1296a7.49,7.49,0,1,0-7.49-7.49,7.49,7.49,0,0,0,7.49,7.49"/><path class="cls-1" d="M238.38,1296a7.49,7.49,0,1,0-7.49-7.49,7.49,7.49,0,0,0,7.49,7.49"/><path class="cls-1" d="M261.43,1296a7.49,7.49,0,1,0-7.49-7.49,7.5,7.5,0,0,0,7.49,7.49"/><path class="cls-1" d="M215.33,1319a7.49,7.49,0,1,0-7.49-7.49,7.49,7.49,0,0,0,7.49,7.49"/><path class="cls-1" d="M238.38,1319a7.49,7.49,0,1,0-7.49-7.49,7.49,7.49,0,0,0,7.49,7.49"/><path class="cls-1" d="M261.43,1319a7.49,7.49,0,1,0-7.49-7.49,7.49,7.49,0,0,0,7.49,7.49"/><polygon class="cls-1" points="446.81 1192.02 425.61 1184.68 432.54 1177.75 404.69 1168.11 414.39 1195.9 421.28 1189.01 428.66 1210.17 435.57 1203.27 442.96 1224.48 461.12 1206.33 439.87 1198.96 446.81 1192.02"/><path class="cls-1" d="M166.56,1106.59a13.56,13.56,0,1,0,13.74,13.56,13.66,13.66,0,0,0-13.74-13.56"/><path class="cls-1" d="M120.77,1061.37a13.57,13.57,0,1,0,13.74,13.57,13.66,13.66,0,0,0-13.74-13.57"/><path class="cls-1" d="M.34,1049.23v287.4h478V1240.1h0v-94.35h0v-96.52M59.51,1056.1,52.92,1063l6.59,6.93-6.59,6.91,6.59,6.93-6.59,6.92,6.59,6.92-6.59,6.92,6.59,6.92-6.59,6.93,6.59,6.92-6.59,6.92,6.59,6.92-4.66,4.89.55.53H39.68l5.16-5.42-6.59-6.92,6.59-6.92-6.59-6.92,6.59-6.93-6.59-6.92,6.59-6.92-6.59-6.92,6.59-6.92-6.59-6.92,6.59-6.92L38.25,1063l6.59-6.92-5.42-5.69H55.7l-.85.8Zm-58,253.3v-17.35l.2-.2,50.52-50.57H69.58Zm1.86-70,45.36-45.82L94,1239.44Zm37.75-190.21H1.52M36.71,1070l-6.59,6.91,6.59,6.93-6.59,6.92,6.59,6.92-6.59,6.92,6.59,6.92-6.59,6.93,6.59,6.92-6.59,6.92,6.59,6.92-4.66,4.89.55.53H16.88l5.16-5.42-6.59-6.92,6.59-6.92-6.59-6.92,6.59-6.93-6.59-6.92,6.59-6.92-6.59-6.92,6.59-6.92-6.59-6.92L22,1070,15.45,1063,22,1056.1l-5.42-5.69H32.9l-.84.8,4.65,4.89L30.12,1063ZM1.52,1050.41H10.1l-.84.8,4.65,4.89L7.32,1063l6.59,6.93-6.59,6.91,6.59,6.93-6.59,6.92,6.59,6.92-6.59,6.92,6.59,6.92-6.59,6.93,6.59,6.92-6.59,6.92,6.59,6.92-4.66,4.89.56.53H1.52Zm0,95.43H47.6l-46,46.52s0,.05,0,.07Zm47.22.52L94,1192.19H3.38ZM1.52,1193.11a.58.58,0,0,0,.45.26H47.33L1.56,1239.61s0,.05,0,.07Zm0,48.17h.2v15.87l15.85-15.87H34.91L1.52,1274.7Zm94.17,78-16,16-.22.22H62.18l33.51-33.54Zm0-34.71-50.63,50.68-.22.22H27.5l.22-.22,68-68Zm0-34.7-85.3,85.38-.22.22H1.52v-8.7l85.39-85.47h8.78Zm0-10.32-45.54-46.16H95.36a.55.55,0,0,0,.33-.11Zm0-47.25-45.81-46.44H95.45v.05h.24Zm-34.64-87.73,6.59-6.92-6.59-6.92,6.59-6.92-6.59-6.92,6.59-6.92L61.05,1063l6.59-6.92-5.42-5.69H78.5l-.85.8,4.66,4.89L75.72,1063l6.59,6.93-6.59,6.91,6.59,6.93-6.59,6.92,6.59,6.92-6.59,6.92,6.59,6.92-6.59,6.93,6.59,6.92-6.59,6.92,6.59,6.92-4.66,4.89.55.53H62.48l5.16-5.42-6.59-6.92,6.59-6.92-6.59-6.92,6.59-6.93Zm22.8,0,6.59-6.92-6.59-6.92,6.59-6.92-6.59-6.92,6.59-6.92L83.85,1063l6.59-6.92L85,1050.41H95.45v94.17H85.28l5.16-5.42-6.59-6.92,6.59-6.92-6.59-6.92,6.59-6.93Zm11.84-55.32H56.08m208.5,71.51L286,1099.31v21.43Zm21.42,2.41v21.43H264.58Zm-21.42-26.25L286,1075.47v21.43Zm0-23.83L286,1051.64v21.43Zm21-23.84H193m14.77,178.66,15.37-15.9a25,25,0,0,0,33.9-36.65l15.33-15.86A47.07,47.07,0,0,1,239.26,1240h-.09a47,47,0,0,1-31.45-12.13M228.66,1240H192.29v-35.85A48.43,48.43,0,0,0,228.66,1240m-6-30a23.84,23.84,0,1,1,33.71-.58,23.86,23.86,0,0,1-33.71.58m33.5-35.51a25,25,0,0,0-34.32,36.36c.12.11.26.21.38.33l-15.34,15.87a47,47,0,0,1-14.57-30.47v-7.39a47.15,47.15,0,0,1,46.91-43.39h0a46.93,46.93,0,0,1,32.23,12.83Zm-63-101.46,21.81-21.83v21.83Zm21.81,2v21.82H193.12Zm0,23.83v21.83H193.12Zm0,23.84v21.83H193.12Zm13.73,23.09a48.41,48.41,0,0,0-36.37,35.85v-35.85Zm10.09-23.09v21.83H216.94Zm0-25.85H216.94l21.81-21.82Zm0-23.83H216.94l21.81-21.83Zm0,25.84v21.83H216.94Zm2,21.83,21.81-21.83v21.83Zm21.81,2v21.83H240.76Zm-21.81-25.85,21.81-21.83v21.83Zm0-23.83,21.81-21.83v21.83Zm-97.95-23.84H96.87m0,1.32h93.92v94.12H96.87Zm47.71,214.27v0a22.94,22.94,0,1,1,22.94,23,23,23,0,0,1-22.94-23m17.86,23.55A24.11,24.11,0,0,0,144,1306.69a24.14,24.14,0,0,0-18.45-18.32A24.14,24.14,0,0,0,144,1270.05a24.11,24.11,0,0,0,18.44,18.32M144,1259.55a24.13,24.13,0,0,0-18.26-18.27h36.51A24.12,24.12,0,0,0,144,1259.55m-.59,5.23v0a22.91,22.91,0,1,1-22.94-23,23,23,0,0,1,22.94,23m-28,23.59a24.12,24.12,0,0,0-18.46,18.35V1270a23.62,23.62,0,0,0,.68,2.4,24.12,24.12,0,0,0,17.78,16M102.27,1249a24,24,0,0,0-5.2,10.07l-.13-10.5v-7.32h18.27a24.06,24.06,0,0,0-12.94,7.75m-5.33-19.37v-83.77h83.92a94.86,94.86,0,0,0-83.92,83.77m93.54-83.14a93.63,93.63,0,0,1-92.94,92.91,93.63,93.63,0,0,1,92.94-92.91M96.94,1335.45v-.22h.13v-17.35l-.13.13v-.87a24.12,24.12,0,0,0,18.27,18.31Zm.6-23.52a22.94,22.94,0,0,1,45.87,0h0v0a22.94,22.94,0,0,1-45.87,0m28.2,23.52A24.1,24.1,0,0,0,144,1317.18a24.09,24.09,0,0,0,18.26,18.27Zm18.84-23.5v0h0a22.94,22.94,0,1,1,22.94,22.95,23,23,0,0,1-22.94-22.95m46.46,23.5H172.78A24.12,24.12,0,0,0,191,1317.18Zm0-28.76a24.11,24.11,0,0,0-18.45-18.32A24.12,24.12,0,0,0,191,1270.05Zm0-47.13a24.12,24.12,0,0,0-18.26-18.28H191Zm0-69.45c0,.94-.09,1.87-.09,2.82s0,1.88.09,2.81V1240H107.46A94.85,94.85,0,0,0,191,1156.56Zm0-140.88H143.4m142.85,286.22h-94v-94.17h94Zm.14-95.43H249.78a48.42,48.42,0,0,0,36.61-36.92Zm0-57.26a48.41,48.41,0,0,0-36.61-36.92H286v.19h.39Zm81.27-2.85,13.16,13.15-13.16,13.16-.34.34v19.09H348.23l-.35.35-13.15,13.15L321.57,1226l-.34-.35h-19.1v-19.09l-.34-.34-13.16-13.16,13.16-13.15.34-.35v-19.09h19.1l.34-.34L334.73,1147l13.15,13.16.35.34h19.09v19.09ZM334,1146l-13.26,13.26H301v19.78l-13.32,13.32V1146Zm-46.36-1.45v-94.17h46.59a47.22,47.22,0,0,1,5.07,94.17ZM301,1207.05v19.78h19.78L333.92,1240H287.64v-46.29Zm79.72,34.23-26.27,26.26.43.43a28.6,28.6,0,0,0-40.32,40.57L314,1308l-26.33,26.33v-93Zm-18.45,47.1A27.43,27.43,0,1,1,334.81,1261a27.45,27.45,0,0,1,27.42,27.43m19.37,47H288.26l26.54-26.54-.16-.16a28.6,28.6,0,0,0,40.57-40.32l0,0L381.6,1242Zm.21-95.34H335.53l13.18-13.19h19.78v-19.78l13.32-13.32Zm0-47.63-13.32-13.32v-19.78H348.71L335.42,1146c1,0,1.95-.07,2.91-.16h43.48Zm0-47.81H346a48.54,48.54,0,0,0,35.82-38.17Zm0-55.73a48.52,48.52,0,0,0-37-38.44h37Zm0-39.62H287.57m142.58,1.9a46.5,46.5,0,1,1-46.5,46.5,46.55,46.55,0,0,1,46.5-46.5m-.48-1.9H383m0,1.18h40.66A47.68,47.68,0,0,0,383,1090.47Zm0,54.38a47.69,47.69,0,0,0,38.87,39.79H383Zm0,136.49H405L383,1263.2Zm0,47.72h21.85L383,1310.83Zm22.63,45.59-21.8-21.77h21.8Zm0-47.63-21.8-21.77h21.8Zm23.86,48.49H407.65l21.85-21.83Zm-22.63-23.81v-21.77l21.8,21.77Zm22.63-23.82H407.65L429.5,1266ZM406.87,1264v-21.77l21.8,21.77Zm46.44,70.58-21.79-21.77h21.79Zm-22.63-23.76V1289h21.86ZM453.31,1287l-21.79-21.77h21.79Zm-22.63-23.76v-21.92h21.95ZM383,1145.84h94.17V1240H383ZM476.34,1264H454.55v-21.77Zm-21.79,25.86,21.79,21.77H454.55Zm22.63,45.58H455.32l21.86-21.83Zm0-47.63H455.33L477.18,1266Zm0-143.24H438.41a47.7,47.7,0,0,0,38.77-39.18Zm0-54.72a47.69,47.69,0,0,0-40.56-39.45h40.56Zm0-40.63H432.53m-1.67,0h0"/><path class="cls-1" d="M415.05,1550.43a7.49,7.49,0,1,1-7.48-7.48,7.49,7.49,0,0,1,7.48,7.48"/><path class="cls-1" d="M415.05,1573.48a7.49,7.49,0,1,1-7.48-7.49,7.48,7.48,0,0,1,7.48,7.49"/><path class="cls-1" d="M415.05,1596.53a7.49,7.49,0,1,1-7.48-7.49,7.48,7.48,0,0,1,7.48,7.49"/><path class="cls-1" d="M438.1,1550.43a7.49,7.49,0,1,1-7.49-7.48,7.49,7.49,0,0,1,7.49,7.48"/><path class="cls-1" d="M438.1,1573.48a7.49,7.49,0,1,1-7.49-7.49,7.49,7.49,0,0,1,7.49,7.49"/><path class="cls-1" d="M438.1,1596.53a7.49,7.49,0,1,1-7.49-7.49,7.49,7.49,0,0,1,7.49,7.49"/><path class="cls-1" d="M461.15,1550.43a7.49,7.49,0,1,1-7.49-7.48,7.5,7.5,0,0,1,7.49,7.48"/><path class="cls-1" d="M461.15,1573.48a7.49,7.49,0,1,1-7.49-7.49,7.49,7.49,0,0,1,7.49,7.49"/><path class="cls-1" d="M461.15,1596.53a7.49,7.49,0,1,1-7.49-7.49,7.49,7.49,0,0,1,7.49,7.49"/><polygon class="cls-1" points="334.18 1781.91 326.84 1760.71 319.9 1767.64 310.26 1739.8 338.06 1749.49 331.17 1756.38 352.33 1763.76 345.42 1770.67 366.63 1778.07 348.48 1796.22 341.12 1774.97 334.18 1781.91"/><path class="cls-1" d="M248.74,1501.66a13.57,13.57,0,1,1,13.56,13.74,13.65,13.65,0,0,1-13.56-13.74"/><path class="cls-1" d="M203.53,1455.87a13.57,13.57,0,1,1,13.56,13.74,13.65,13.65,0,0,1-13.56-13.74"/><path class="cls-1" d="M139.4,1655.68a14.74,14.74,0,0,1,19.08,19.08,14.74,14.74,0,1,1-8.38,8.38A14.73,14.73,0,0,1,131,1664.06a14.74,14.74,0,1,1,8.38-8.38"/><path class="cls-1" d="M144.8,1814.17l.71-.71H478.79v-478H.68V1479l-.05.06.05.06v48.2h0v286.14h143.1v.3h.59ZM95.2,1336.62,66,1365.81h-35v35L1.86,1430v-93.34Zm41.61,0a47.72,47.72,0,0,0-39.6,39.6v-39.6ZM193.37,1390l-.81.84v-16.28l5.7,5.42,6.92-6.59,6.92,6.59,6.92-6.59,6.92,6.59,6.93-6.59,6.92,6.59,6.92-6.59,6.92,6.59,6.92-6.59,6.92,6.59,6.92-6.59,6.92,6.59,5.42-5.16v15.73l-.52-.55-4.9,4.65-6.92-6.59-6.92,6.59-6.92-6.58-6.92,6.58-6.92-6.59-6.92,6.59-6.92-6.58-6.93,6.58L219,1388l-6.92,6.59-6.92-6.58-6.92,6.58Zm190.07,14.72v-17.34L434,1336.82l.2-.2h17.35Zm-1.84,24.38-45.83-45.21,45.83-45.36Zm-237.3,1.15a46.5,46.5,0,1,1,46.5-46.5,46.55,46.55,0,0,1-46.5,46.5m47.08-93.59v39.61a47.7,47.7,0,0,0-39.6-39.61Zm13.8,28.61-6.92,6.58-4.89-4.65-.81.84v-16.28l5.7,5.42,6.92-6.59,6.92,6.59,6.92-6.59,6.92,6.59,6.93-6.59,6.92,6.59,6.92-6.59,6.92,6.59,6.92-6.59,6.92,6.59,6.92-6.59,6.92,6.59,5.42-5.16v15.73l-.52-.55-4.9,4.65-6.92-6.59-6.92,6.59-6.92-6.58-6.92,6.58-6.92-6.58-6.92,6.58-6.92-6.58-6.93,6.58-6.92-6.59-6.92,6.59Zm81.55-28.61v8.29l-.52-.55-4.9,4.65-6.92-6.58-6.92,6.58-6.92-6.58-6.92,6.58-6.92-6.58-6.92,6.58-6.92-6.58-6.93,6.58-6.92-6.58L212.1,1349l-6.92-6.58-6.92,6.58-4.89-4.65-.81.84v-8.58Zm47.85,0-.06,0-46.52,46v-46.08Zm-.24,1.87v90.57l-45.82-45.21Zm47.5-1.87-.07,0-46.25,45.78v-45.36a.57.57,0,0,0-.25-.46Zm35,0L383.44,1370v-17.34l15.86-15.85H383.44v-.2Zm27.21,94.17,33.55-33.51v17.33l-.22.22-16,16Zm-34.71,0,68-68,.22-.22v17.34l-.22.22-50.68,50.63Zm-25.91,0V1422l85.47-85.4h8.7v8.65l-.22.22L392,1430.79Zm-48,0a.61.61,0,0,0,.1-.33v-45.21l46.16,45.54Zm-47.37,0v-.24H288V1385l46.43,45.8Zm-34.42-28,6.92-6.59,6.92,6.59,6.92-6.59,6.92,6.59,5.42-5.16v15.73l-.52-.55-4.9,4.65-6.92-6.59-6.92,6.59-6.92-6.58-6.92,6.58-6.92-6.59-6.92,6.59-6.92-6.58-6.93,6.58-6.92-6.59-6.92,6.59-6.92-6.58-6.92,6.58-4.89-4.65-.81.84v-16.28l5.7,5.42,6.92-6.59,6.92,6.59,6.92-6.59,6.92,6.59,6.93-6.59,6.92,6.59,6.92-6.59Zm0,22.8,6.92-6.59,6.92,6.59,6.92-6.59,6.92,6.59,5.42-5.16v10.17H192.56v-10.43l5.7,5.42,6.92-6.59,6.92,6.59L219,1419l6.92,6.59,6.93-6.59,6.92,6.59,6.92-6.59Zm-101.85,5.25a47.69,47.69,0,0,0,39.6-39.61v39.61Zm-54.57,0v-39.6a47.7,47.7,0,0,0,39.6,39.6Zm-94.52,0,29.11-29.1H66.93v-35.13l29.1-29.1v93.33H49l0,0-.06,0ZM96,1527.32v94.13H1.86v-94.13h47l.06.06.06-.06ZM262.9,1621.1H241.47l21.43-21.42Zm23.83-21.42v21.42H265.3Zm-47.67,21.42H217.63l21.43-21.41Zm-23.84,0H193.79l21.43-21.42Zm-23.84-.44-46.29-46.29,46.29-46.32Zm190.79-46.39v.1a47.05,47.05,0,0,1-80.53,33.05l15.86-15.33a25,25,0,0,0,36.65-33.9l15.9-15.37a46.89,46.89,0,0,1,12.12,31.45m-35.84-46.88h35.84v36.37a48.41,48.41,0,0,0-35.84-36.37m5.29,64.06a23.84,23.84,0,1,1,.58-33.71,23.86,23.86,0,0,1-.58,33.71m-50.8,15.12A47,47,0,0,1,288,1574.34v0a47.14,47.14,0,0,1,43.39-46.91h7.39A47,47,0,0,1,369.24,1542l-15.87,15.34-.33-.38a25,25,0,0,0-36.36,34.33ZM215.22,1550H193.4l21.82-21.82Zm23.84-21.81V1550H217.23Zm23.84,0V1550H241.07Zm23.83,0V1550H264.91Zm1.27-.83h35.84A48.41,48.41,0,0,0,288,1563.76ZM286.73,1552v21.82H264.9Zm-69.5,21.81,21.83-21.8v21.8Zm-23.83,0L215.22,1552v21.81ZM262.9,1552v21.81H241.07Zm0,45.64H241.07l21.83-21.82Zm23.83-21.82v21.82H264.91Zm-47.67,21.82H217.23l21.83-21.81Zm-23.84,0H193.39l21.83-21.82Zm-71.79-23.31-46.22,46.25v-92.46ZM1.86,1480.29l45.81,45.81H1.86ZM49,1432.4l46.65,46.66L49,1525.71,2.29,1479.06ZM96,1480.29v45.81H50.23ZM47.71,1432,1.86,1477.82V1432ZM96,1432v45.85L50.18,1432Zm47.12,1.71v44.23H98.92Zm48.23-1.71v45.94H145.45Zm95.44,93.93H192.7V1432h94.12Zm143.07-23.28a22.94,22.94,0,1,1-22.95-22.93h0a23,23,0,0,1,22.92,22.93M412.2,1479.1a24.14,24.14,0,0,0,18.32-18.45,24.15,24.15,0,0,0,18.32,18.45,24.12,24.12,0,0,0-18.32,18.45,24.11,24.11,0,0,0-18.32-18.45m-28.76,18.26v-36.52a24.1,24.1,0,0,0,18.27,18.26,24.1,24.1,0,0,0-18.27,18.26m.58-41.78A23,23,0,0,1,407,1432.64a22.63,22.63,0,0,1,7.61,1.33,22.92,22.92,0,0,1-7.6,44.54h0A23,23,0,0,1,384,1455.58m30.55-22.86a24.37,24.37,0,0,0-2.4-.68h36.71a24.14,24.14,0,0,0-18.36,18.46,24.12,24.12,0,0,0-15.95-17.78m-31.13,17.59V1432h7.31l10.51.13a24.15,24.15,0,0,0-17.82,18.14M288.05,1516V1432h83.77A94.87,94.87,0,0,0,288.05,1516m93.54-83.32a93.64,93.64,0,0,1-92.92,92.94,93.64,93.64,0,0,1,92.92-92.94m96,17.67A24.14,24.14,0,0,0,459.3,1432h.86l-.12.13h17.35V1432h.22Zm-.58,5.27a23,23,0,0,1-22.92,22.93h0a22.94,22.94,0,1,1,23-22.93m.58,41.78a24.13,24.13,0,0,0-18.27-18.26,24.13,24.13,0,0,0,18.27-18.26Zm-.58,5.26a22.94,22.94,0,1,1-23-22.93h0A23,23,0,0,1,477,1502.62m-17.7,23.52a24.12,24.12,0,0,0,18.28-18.26v18.26Zm-47.13,0a24.11,24.11,0,0,0,18.32-18.44,24.12,24.12,0,0,0,18.33,18.44Zm-28.76,0v-18.26a24.1,24.1,0,0,0,18.27,18.26Zm-84.73,0a94.85,94.85,0,0,0,83.46-83.58v83.58H337.9c-.93-.05-1.87-.08-2.82-.08s-1.88,0-2.81.08Zm-155,0,47.64-47.64v47.64Zm-46.53,0h0l45.94-45.93v45.93Zm47.05,47.4L98,1527.32h92.41Zm239.18-46.15h94.17v94H383.44Zm-38.18,94.1a48.4,48.4,0,0,0,36.91-36.61v36.61Zm-57.07,0v-.39H288v-36.22a48.4,48.4,0,0,0,36.91,36.61Zm-190.19,0,46.26-46.29,46.29,46.29Zm-85.83,1.14-5,5.27,6.58,6.92-6.58,6.92,6.58,6.92-6.58,6.92,6.58,6.92-6.58,6.93,6.58,6.92-6.58,6.91,6.58,6.93-6.58,6.92,6.58,6.92L7.16,1711l5.56,5.85H1.86v-94.17Zm22.8,0-5,5.27,6.58,6.92L30,1641.74l6.58,6.92L30,1655.58l6.58,6.92L30,1669.43l6.58,6.92L30,1683.26l6.58,6.93L30,1697.11l6.58,6.92L30,1711l5.56,5.85H18.94l1-1-4.66-4.9,6.59-6.92-6.59-6.92,6.59-6.92-6.59-6.92,6.59-6.92-6.59-6.92,6.59-6.93-6.59-6.92,6.59-6.92-6.59-6.92,6.59-6.92-6.59-6.92,4.66-4.89-.4-.38Zm22.8,0-5,5.27,6.58,6.92-6.58,6.92,6.58,6.92-6.58,6.92,6.58,6.92-6.58,6.93,6.58,6.92-6.58,6.91,6.58,6.93-6.58,6.92,6.58,6.92L52.76,1711l5.56,5.85H41.74l1-1-4.66-4.9,6.59-6.92-6.59-6.92,6.59-6.92-6.59-6.92,6.59-6.92-6.59-6.92,6.59-6.93-6.59-6.92,6.59-6.92-6.59-6.92,6.59-6.92-6.59-6.92,4.66-4.89-.4-.38Zm22.8,0-5,5.27,6.59,6.92-6.59,6.92,6.59,6.92-6.59,6.92,6.59,6.92-6.59,6.93,6.59,6.92-6.59,6.91,6.59,6.93-6.59,6.92,6.59,6.92L75.55,1711l5.57,5.85H64.54l1-1-4.66-4.9,6.59-6.92-6.59-6.92,6.59-6.92-6.59-6.92,6.59-6.92-6.59-6.92,6.59-6.93-6.59-6.92,6.59-6.92-6.59-6.92,6.59-6.92-6.59-6.92,4.66-4.89-.4-.38ZM96,1716.8H87.34l1-1-4.66-4.9,6.59-6.92-6.59-6.92,6.59-6.92-6.59-6.92,6.59-6.92-6.59-6.92,6.59-6.93-6.59-6.92,6.59-6.92-6.59-6.92,6.59-6.92-6.59-6.92,4.66-4.89-.4-.38H96Zm225.69-14.38H302.63v-19.09l-.35-.35-13.15-13.15,13.15-13.16.35-.34v-19.09h19.09l.34-.35,13.16-13.15,13.15,13.15.35.35h19.09v19.09l.34.34,13.16,13.16L368.15,1683l-.34.35v19.09H348.72l-.35.34-13.15,13.16-13.16-13.16Zm-33.53-79.68h46.36l-13.32,13.32H301.45v19.78l-13.26,13.26Zm-1.46,51.66a47.22,47.22,0,0,1-94.16-5.07v-46.59h94.16Zm49.16-51.66h46.28V1669L369,1655.84v-19.78H349.21Zm47.55,0h93l-26.33,26.33.56.56a28.6,28.6,0,0,0-40.58,40.31l-.42-.42-26.26,26.26Zm19.67,47.17a27.43,27.43,0,1,1,27.42,27.42,27.46,27.46,0,0,1-27.42-27.42m-18.93,46.79,26.35-26.35,0,0a28.6,28.6,0,0,0,40.31-40.58l.17.17,26.54-26.55v93.34Zm-48.29.21,13.32-13.31H369v-19.78l13.18-13.19v46.28Zm-47.89,0v-43.48c.08-1,.13-1.93.16-2.91l13.29,13.3v19.78h19.78l13.32,13.31Zm-39.43,0a48.52,48.52,0,0,0,38.16-35.82v35.82Zm-56,0v-37a48.52,48.52,0,0,0,38.45,37Zm-95.35,0v-94.26h94.18v94.26H144.94v-.19h-1.18v.19ZM96,1718.11v46.38l-.45.44.41.43v.59h0v45.5L3.15,1718.11Zm143.76.64a46.5,46.5,0,1,1-46.5,46.5,46.55,46.55,0,0,1,46.5-46.5m-142.35,46L143.76,1720l0,44.76Zm46.32-46.66v.26l-46.55,45v-45.24Zm47.62,0v46.66H145l0-46.66Zm41.25,0a47.7,47.7,0,0,0-40.07,40.66v-40.66Zm54.1,0V1757A47.7,47.7,0,0,0,247,1718.11Zm118.62,0-21.91,21.94v-21.94Zm47.63,0L431.16,1740v-21.85Zm2,22.63V1719l21.77,21.79Zm-47.63,0V1719l21.77,21.79Zm48.44,23.87,21.83-21.86v21.86Zm-2-.84L432,1742h21.77Zm-45.64.84L430,1742.75v21.86Zm-2-.84L384.39,1742h21.77ZM455,1788.42v-21.8l21.77,21.8Zm-23.81-.78v-21.86H453Zm-23.82.78v-21.8l21.77,21.8Zm-23.9-.69v-22h21.92Zm-1.27,24.55H288v-94.17h94.17Zm2.22-22.63h21.77v21.8Zm69.4,0v21.8L432,1789.65Zm2,22.63,21.83-21.85v21.85Zm-47.63,0L430,1790.43v21.85Zm-160.59,0a47.69,47.69,0,0,0,39.17-38.77v38.77Zm-55,0v-40.56A47.68,47.68,0,0,0,232,1812.28Zm-45.87,0,44.69-44.65v44.65Zm-1.72,0V1766h46.42v0L145,1812.28Zm-47.76,0V1766h46.57v46.33Zm-95.35,0v-93.79l93.35,93.79Z"/><path class="cls-1" d="M215.72,2226.62a7.49,7.49,0,1,0-7.49-7.49,7.5,7.5,0,0,0,7.49,7.49"/><path class="cls-1" d="M238.77,2226.62a7.49,7.49,0,1,0-7.49-7.49,7.49,7.49,0,0,0,7.49,7.49"/><path class="cls-1" d="M261.82,2226.62a7.49,7.49,0,1,0-7.49-7.49,7.49,7.49,0,0,0,7.49,7.49"/><path class="cls-1" d="M215.72,2249.66a7.49,7.49,0,1,0-7.49-7.49,7.49,7.49,0,0,0,7.49,7.49"/><path class="cls-1" d="M238.77,2249.66a7.49,7.49,0,1,0-7.49-7.49,7.49,7.49,0,0,0,7.49,7.49"/><path class="cls-1" d="M261.82,2249.66a7.49,7.49,0,1,0-7.49-7.49,7.49,7.49,0,0,0,7.49,7.49"/><path class="cls-1" d="M215.72,2272.71a7.49,7.49,0,1,0-7.49-7.49,7.49,7.49,0,0,0,7.49,7.49"/><path class="cls-1" d="M238.77,2272.71a7.49,7.49,0,1,0-7.49-7.49,7.49,7.49,0,0,0,7.49,7.49"/><path class="cls-1" d="M261.82,2272.71a7.49,7.49,0,1,0-7.49-7.49,7.49,7.49,0,0,0,7.49,7.49"/><polygon class="cls-1" points="447.24 2145.74 426.03 2138.4 432.97 2131.47 405.11 2121.82 414.81 2149.62 421.7 2142.73 429.08 2163.89 435.99 2156.98 443.39 2178.2 461.55 2160.04 440.29 2152.68 447.24 2145.74"/><path class="cls-1" d="M166.94,2060.3a13.57,13.57,0,1,0,13.74,13.56,13.65,13.65,0,0,0-13.74-13.56"/><path class="cls-1" d="M121.13,2015.09a13.57,13.57,0,1,0,13.75,13.57,13.66,13.66,0,0,0-13.75-13.57"/><path class="cls-1" d="M321,1951A14.73,14.73,0,0,0,340.07,1970a14.74,14.74,0,1,0,8.38-8.38,14.73,14.73,0,0,0-19.09-19.08A14.74,14.74,0,1,0,321,1951"/><path class="cls-1" d="M479.09,1955.94v-.58h-.3V1812.25H144.38l0-.06-.06.06H.69v478.1h478.1v-96.53h0v-94.35h0v-142.4l.71-.71ZM1.87,1813.42H95.22L66,1842.61h-35v35L1.87,1906.76Zm0,95.35h39.6a47.7,47.7,0,0,0-39.6,39.61Zm58,101-6.59,6.92,6.59,6.92-6.59,6.92,6.59,6.92-6.59,6.93,6.59,6.92-6.59,6.92,6.59,6.92-6.59,6.92,6.59,6.92L53.28,2086l6.59,6.92-4.66,4.9.55.52H40l5.16-5.42L38.6,2086l6.59-6.91-6.59-6.93,6.59-6.92-6.59-6.92,6.59-6.92-6.59-6.92,6.59-6.93-6.59-6.92,6.59-6.91-6.59-6.93,6.59-6.92-5.42-5.7H56.06l-.85.81Zm-58,253.3v-17.35l.19-.2L52.59,2195H69.94Zm1.86-70,45.37-45.83,45.21,45.83ZM49,2002.36a46.5,46.5,0,1,1,46.51-46.5A46.56,46.56,0,0,1,49,2002.36m-47.09-39A47.71,47.71,0,0,0,41.48,2003H1.87Zm35.19,60.32-6.59,6.92,6.59,6.92-6.59,6.93,6.59,6.92-6.59,6.92,6.59,6.92-6.59,6.92,6.59,6.92L30.47,2086l6.59,6.92-4.66,4.9.55.52H17.23l5.16-5.42L15.8,2086l6.59-6.91-6.59-6.93,6.59-6.92-6.59-6.92,6.59-6.92-6.59-6.92,6.59-6.93-6.59-6.92,6.59-6.91-6.59-6.93,6.59-6.92-5.43-5.7H33.25l-.84.81,4.65,4.89-6.59,6.92ZM1.87,2004.12h8.58l-.85.81,4.66,4.89-6.59,6.92,6.59,6.92-6.59,6.92,6.59,6.92-6.59,6.93,6.59,6.92-6.59,6.92,6.59,6.92-6.59,6.92,6.59,6.92L7.67,2086l6.59,6.92-4.66,4.9.55.52H1.87Zm0,95.44H48L1.9,2146.08s0,.05,0,.07Zm47.23.52,45.21,45.83H3.73ZM1.87,2146.83a.54.54,0,0,0,.45.25H47.69L1.9,2193.33s0,.05,0,.07Zm0,48.17h.19v15.87L17.92,2195H35.26L1.87,2228.41Zm94.18,78-16,16-.22.22H62.53l33.52-33.55Zm0-34.7L45.41,2289l-.22.22H27.85l.22-.22,68-68Zm0-34.71L10.73,2289l-.22.22H1.87v-8.7L87.27,2195h8.78Zm0-10.32-45.54-46.16H95.72a.61.61,0,0,0,.33-.1Zm0-47.25-45.81-46.43H95.81v.05h.24Zm-34.64-87.72,6.58-6.92-6.59-6.92L68,2037.5l-6.58-6.92,6.58-6.91-6.59-6.93,6.6-6.92-5.43-5.7H78.86l-.85.81,4.66,4.89-6.59,6.92,6.59,6.92-6.59,6.92,6.59,6.92-6.59,6.93,6.59,6.92-6.59,6.92,6.59,6.92-6.59,6.92,6.59,6.92L76.08,2086l6.59,6.92-4.66,4.9.55.52H62.84l5.15-5.42L61.41,2086,68,2079l-6.6-6.93,6.59-6.92Zm22.8,0,6.59-6.92-6.59-6.92,6.59-6.93-6.59-6.92,6.59-6.91-6.59-6.93,6.59-6.92-5.42-5.7H95.81v94.17H85.64l5.16-5.42L84.21,2086,90.8,2079l-6.59-6.93,6.59-6.92ZM96.05,2003H56.44a47.71,47.71,0,0,0,39.61-39.61Zm0-54.57a47.71,47.71,0,0,0-39.6-39.61h39.6Zm0-87.93,0,.06,0,.06v47H2.7l29.11-29.11H66.94v-35.13l29.11-29.11Zm96.55.12.06-.06-.06-.06v-47h94.15v94.18H192.6ZM265,2074.46,286.39,2053v21.43Zm21.41,2.4v21.43H265ZM265,2050.62l21.41-21.43v21.43Zm0-23.84,21.41-21.43v21.43Zm-71.65-23.84,46.33-46.29,46.3,46.29Zm14.77,178.67,15.37-15.9a25,25,0,0,0,33.91-36.65l15.33-15.86a47.05,47.05,0,0,1-33.06,80.53h-.09a46.91,46.91,0,0,1-31.46-12.12M229,2193.73H192.67v-35.84A48.41,48.41,0,0,0,229,2193.73m-6-30a23.84,23.84,0,1,1,33.71-.58,23.87,23.87,0,0,1-33.71.58m33.51-35.52a25,25,0,0,0-34.33,36.36c.12.12.25.22.37.33l-15.34,15.88a47,47,0,0,1-14.57-30.47V2143a47.14,47.14,0,0,1,46.91-43.39h0a47,47,0,0,1,32.23,12.82Zm-63-101.46L215.32,2005v21.82Zm21.82,2v21.83H193.5Zm0,23.84v21.83H193.5Zm0,23.84v21.82H193.5Zm13.73,23.09a48.41,48.41,0,0,0-36.38,35.84v-35.84Zm10.09-23.09v21.82H217.33Zm0-25.85H217.33l21.81-21.83Zm0-23.84H217.33L239.14,2005Zm0,25.85v21.83H217.33Zm2,21.83L263,2052.63v21.83Zm21.82,2v21.82H241.15Zm-21.82-25.85L263,2028.79v21.83Zm0-23.84L263,2005v21.82Zm-47.72-118h92.48L239.66,1955Zm-2.05-95.35v45.81l-45.82-45.81Zm-47,.43L191,1860.51l-46.66,46.65-46.67-46.65Zm47,47.94v45.81H145.56Zm-94.15-48.37h45.86l-45.86,45.85Zm0,48.32,45.86,45.86H97.23Zm46,48.74v44.23H98.94Zm-45.95,92.46,46-45.93h0V2003H97.23Zm0,1.32h93.94v94.12H97.23ZM145,2218.54v0a22.94,22.94,0,1,1,22.93,22.95A23,23,0,0,1,145,2218.5m17.86,23.54a24.12,24.12,0,0,0-18.45,18.32,24.15,24.15,0,0,0-18.45-18.32,24.12,24.12,0,0,0,18.45-18.32,24.1,24.1,0,0,0,18.45,18.32m-18.45-28.81A24.13,24.13,0,0,0,126.1,2195h36.53a24.13,24.13,0,0,0-18.26,18.27m-.59,5.23v0a22.92,22.92,0,0,1-44.55,7.59,22.64,22.64,0,0,1,3.41-21.51,22.91,22.91,0,0,1,41.14,13.88m-28,23.58a24.17,24.17,0,0,0-18.46,18.36v-36.71a24.37,24.37,0,0,0,.68,2.4,24.12,24.12,0,0,0,17.78,15.95m-13.12-39.33a24,24,0,0,0-5.21,10.07l-.13-10.51V2195h18.27a24,24,0,0,0-12.93,7.75m-5.34-19.37v-83.77h83.94a94.88,94.88,0,0,0-83.94,83.77m93.56-83.15a93.65,93.65,0,0,1-93,92.92,93.65,93.65,0,0,1,93-92.92M97.3,2289.17V2289h.13V2271.6l-.13.12v-.86a24.13,24.13,0,0,0,18.28,18.31Zm.6-23.52a22.94,22.94,0,0,1,45.88,0v0a22.94,22.94,0,0,1-45.88,0m28.2,23.52a24.13,24.13,0,0,0,18.27-18.27,24.13,24.13,0,0,0,18.26,18.27Zm18.86-23.5v0a22.94,22.94,0,1,1,22.93,23,22.95,22.95,0,0,1-22.93-23m46.46,23.5H173.16a24.13,24.13,0,0,0,18.26-18.27Zm0-28.76A24.12,24.12,0,0,0,173,2242.08a24.1,24.1,0,0,0,18.45-18.32Zm0-47.14A24.13,24.13,0,0,0,173.16,2195h18.26Zm0-69.44c0,.93-.09,1.87-.09,2.82s0,1.88.09,2.81v44.27h-83.6a94.86,94.86,0,0,0,83.6-83.46Zm0-140.88H143.77l47.65-47.65Zm0-48.24H145.48l45.94-45.94h0Zm1.18,47.3V1909.6l46.22,46.22Zm94,287.16h-94V2195h94Zm.14-95.44H250.17a48.41,48.41,0,0,0,36.62-36.91Zm0-57.26a48.41,48.41,0,0,0-36.62-36.91h36.22v.19h.4Zm0-134.36-46.3-46.29,46.3-46.26Zm1.13-188.69h94.19v10.86l-5.85-5.56-6.92,6.58-6.92-6.58-6.92,6.59-6.93-6.59-6.92,6.58-6.92-6.58-6.92,6.59-6.93-6.59L314,1825.3l-6.92-6.58-6.93,6.58-6.92-6.58-5.27,5Zm0,17.68.38.4,4.89-4.66,6.92,6.59,6.93-6.59,6.92,6.59,6.92-6.59,6.93,6.59,6.92-6.59,6.92,6.59,6.92-6.59,6.93,6.59,6.92-6.59,6.92,6.59,6.92-6.59,4.9,4.66.95-1v16.58l-5.85-5.56-6.92,6.58-6.92-6.58-6.92,6.58-6.93-6.58-6.92,6.58-6.92-6.58-6.92,6.58-6.93-6.58L314,1848.1l-6.92-6.58-6.93,6.58-6.92-6.58-5.27,5Zm0,22.8.38.4,4.89-4.66,6.92,6.59,6.93-6.59,6.92,6.59,6.92-6.59,6.93,6.59,6.92-6.59,6.92,6.59,6.92-6.59,6.93,6.59,6.92-6.59,6.92,6.59,6.92-6.59,4.9,4.66.95-1v16.58l-5.85-5.56-6.92,6.58-6.92-6.58-6.92,6.58-6.93-6.58-6.92,6.58-6.92-6.58-6.92,6.58-6.93-6.58L314,1870.9l-6.92-6.58-6.93,6.58-6.92-6.58-5.27,5Zm0,22.8.38.4,4.89-4.66,6.92,6.59,6.93-6.59L314,1879l6.92-6.59,6.93,6.59,6.92-6.59,6.92,6.59,6.92-6.59,6.93,6.59,6.92-6.59,6.92,6.59,6.92-6.59,4.9,4.66.95-1v16.58l-5.85-5.56-6.92,6.58-6.92-6.58-6.92,6.58-6.93-6.58-6.92,6.58-6.92-6.58-6.92,6.58-6.93-6.58L314,1893.7l-6.92-6.58-6.93,6.58-6.92-6.58-5.27,5Zm0,30.9v-8.1l.38.4,4.89-4.66,6.92,6.59,6.93-6.59,6.92,6.59,6.92-6.59,6.93,6.59,6.92-6.59,6.92,6.59,6.92-6.59,6.93,6.59,6.92-6.59,6.92,6.59,6.92-6.59,4.9,4.66.95-1v8.7Zm80.16,226,13.15,13.16-13.15,13.15-.35.35v19.09H348.64l-.35.35-13.16,13.15L322,2179.72l-.35-.35H302.54v-19.09l-.35-.35L289,2146.78l13.16-13.16.35-.34v-19.09h19.09l.35-.35,13.15-13.15,13.16,13.15.35.35h19.09v19.09Zm-33.67-33.87L321.14,2113H301.36v19.78L288,2146.11v-46.36ZM288,2098.29v-94.16h46.59a47.22,47.22,0,0,1,5.07,94.16Zm13.32,62.48v19.78h19.78l13.19,13.18H288v-46.28ZM381.09,2195l-26.27,26.26.43.43a28.6,28.6,0,0,0-40.32,40.57l-.56-.56L288,2288v-93Zm-18.45,47.09a27.43,27.43,0,1,1-27.43-27.42,27.45,27.45,0,0,1,27.43,27.42m19.38,47H288.66l26.55-26.54-.16-.16a28.6,28.6,0,0,0,40.58-40.32l0,0L382,2195.74Zm.21-95.35H335.94l13.18-13.18h19.79v-19.78l13.32-13.32Zm0-47.62-13.32-13.32V2113H349.12l-13.29-13.29c1,0,1.94-.08,2.91-.16h43.49Zm0-47.82H346.4a48.54,48.54,0,0,0,35.83-38.16Zm0-55.72a48.55,48.55,0,0,0-37-38.45h37Zm0-87.25h-.2v1.18h.2V2003H288v-94.18h94.28Zm1.17-140.61,93.36,92.89H431.27v0h-.59l-.42-.41-.44.46h-46.4Zm47.15,190.14a46.5,46.5,0,1,1-46.51,46.5,46.56,46.56,0,0,1,46.51-46.5m-.48-49.51H385.32L430.09,1909Zm-46.67-46.57h45.26l-45,46.55h-.26Zm0,47.73,46.67,0v46.42H383.42Zm0,47.62h40.67a47.71,47.71,0,0,0-40.67,40.07Zm0,54.39a47.71,47.71,0,0,0,38.88,39.78H383.42Zm0,136.49h21.95l-21.95,21.92Zm0,47.72h21.86l-21.86,21.82Zm22.64,45.58-21.8-21.77h21.8Zm0-47.63-21.8-21.77h21.8Zm23.87,48.5H408.07l21.86-21.83Zm-22.64-23.82v-21.77l21.8,21.77Zm22.64-23.81H408.07l21.86-21.83Zm-22.64-23.82V2196l21.8,21.76Zm46.45,70.58-21.8-21.77h21.8Zm-22.63-23.75v-21.83H453Zm22.63-23.88-21.8-21.77h21.8Zm-22.63-23.75V2195h21.95Zm-47.69-117.36h94.19v94.17H383.42Zm93.36,118.16H455V2196ZM455,2243.58l21.8,21.77H455Zm22.63,45.59H455.75l21.86-21.83Zm0-47.63H455.76l21.85-21.83Zm0-143.25H438.84a47.68,47.68,0,0,0,38.77-39.17Zm0-54.71a47.69,47.69,0,0,0-40.56-39.46h40.56Zm0-40.64H433l44.66-44.69Zm0-46.35-46.32,46.35h0v-46.42h46.34Zm0-1.23-46.34,0v-46.57h46.34Zm0-48.59-93.81-93.35h93.81Z"/></g></g></svg>