<svg xmlns="http://www.w3.org/2000/svg" viewBox="0 0 20.11 20.11"><defs><style>.cls-1{fill:#fff;}.cls-2{fill:#2b1f4f;}</style></defs><g id="Layer_2" data-name="Layer 2"><g id="Layer_1-2" data-name="Layer 1"><path class="cls-1" d="M20.11,10.06A10.06,10.06,0,1,1,10.06,0a10.05,10.05,0,0,1,10,10.06"/><path class="cls-2" d="M15.61,6.61a4.58,4.58,0,0,1-1.11.32c.18,0,.45-.36.55-.49a2.09,2.09,0,0,0,.37-.67,0,0,0,0,0,0-.06s0,0-.05,0a5.7,5.7,0,0,1-1.32.5.09.09,0,0,1-.09,0,1.31,1.31,0,0,0-.11-.12,2.81,2.81,0,0,0-.64-.39,2.23,2.23,0,0,0-1.91.11,2.16,2.16,0,0,0-.74.61,2.19,2.19,0,0,0-.47,1.83c0,.06,0,.07-.05.06A7.06,7.06,0,0,1,5.51,6c0-.06-.08-.06-.12,0a2.27,2.27,0,0,0,.39,2.71A3.22,3.22,0,0,0,6.06,9a2.31,2.31,0,0,1-.88-.24s-.08,0-.08,0a1.07,1.07,0,0,0,0,.25,2.35,2.35,0,0,0,1.43,1.85,1.4,1.4,0,0,0,.29.09A2.73,2.73,0,0,1,6,11c-.07,0-.09,0-.07.08a2.41,2.41,0,0,0,1.8,1.5l.25,0,0,0c-.2.31-.9.53-1.23.65a4.35,4.35,0,0,1-1.86.24c-.1,0-.12,0-.15,0s0,0,0,.06a4,4,0,0,0,.39.23,6.16,6.16,0,0,0,1.25.5,6.63,6.63,0,0,0,6.44-1.5,6.78,6.78,0,0,0,1.78-4.94c0-.07.08-.11.13-.14a4.46,4.46,0,0,0,.88-.91.28.28,0,0,0,.06-.18h0s0,0-.05,0"/></g></g></svg>